AndadaPro-SemiBold.ufo
<glyph name="exclam" format="2">
  <advance width="323.65000000000003"/>
  <unicode hex="0021"/>
  <outline>
    <contour>
      <point x="192.54545454545453" y="219.6818181818182" type="line"/>
      <point x="203.04545454545456" y="229.1818181818182" type="line"/>
      <point x="200.04545454545456" y="311.5" type="line" smooth="yes"/>
      <point x="198.04545454545456" y="370.04545454545456"/>
      <point x="213.5" y="621.5454545454545"/>
      <point x="221.5" y="750.0909090909091" type="curve"/>
      <point x="199.0" y="771.5909090909091" type="line"/>
      <point x="108.5" y="763.7727272727273" type="line"/>
      <point x="121.0" y="289.5" type="line"/>
      <point x="120.0" y="223.5" type="line"/>
    </contour>
    <contour>
      <point x="164.04545454545453" y="-12.045454545454545" type="curve" smooth="yes"/>
      <point x="205.54545454545453" y="-12.045454545454545"/>
      <point x="228.0" y="17.0"/>
      <point x="228.0" y="58.09090909090909" type="curve" smooth="yes"/>
      <point x="228.0" y="100.4090909090909"/>
      <point x="204.72727272727272" y="128.04545454545456"/>
      <point x="164.04545454545453" y="128.04545454545456" type="curve" smooth="yes"/>
      <point x="122.54545454545455" y="128.04545454545456"/>
      <point x="99.5" y="99.18181818181819"/>
      <point x="99.5" y="58.09090909090909" type="curve" smooth="yes"/>
      <point x="99.5" y="15.227272727272727"/>
      <point x="123.13636363636364" y="-12.045454545454545"/>
    </contour>
  </outline>
</glyph>
<glyph name="quotedbl" format="2">
  <advance width="460.3"/>
  <unicode hex="0022"/>
  <outline>
    <contour>
      <point x="335.6363636363636" y="462.59090909090907" type="line"/>
      <point x="348.6363636363636" y="705.0" type="line"/>
      <point x="259.1363636363636" y="705.0" type="line"/>
      <point x="262.72727272727275" y="658.6818181818181"/>
      <point x="268.1363636363636" y="575.0"/>
      <point x="268.1363636363636" y="560.0" type="curve" smooth="yes"/>
      <point x="267.1363636363636" y="466.40909090909093" type="line"/>
    </contour>
    <contour>
      <point x="188.63636363636363" y="462.59090909090907" type="line"/>
      <point x="201.63636363636363" y="705.0" type="line"/>
      <point x="112.13636363636364" y="705.0" type="line"/>
      <point x="115.72727272727273" y="658.6818181818181"/>
      <point x="121.13636363636364" y="575.0"/>
      <point x="121.13636363636364" y="560.0" type="curve" smooth="yes"/>
      <point x="120.13636363636364" y="466.40909090909093" type="line"/>
    </contour>
  </outline>
</glyph>
<glyph name="numbersign" format="2">
  <advance width="662.25"/>
  <unicode hex="0023"/>
  <outline>
    <contour>
      <point x="403.27272727272725" y="-15.0" type="line"/>
      <point x="494.27272727272725" y="562.0" type="line"/>
      <point x="427.27272727272725" y="572.0" type="line"/>
      <point x="336.27272727272725" y="-5.0" type="line"/>
    </contour>
    <contour>
      <point x="73.77272727272727" y="146.5" type="line"/>
      <point x="568.7727272727273" y="146.5" type="line"/>
      <point x="568.7727272727273" y="224.5" type="line"/>
      <point x="73.77272727272727" y="219.5" type="line"/>
    </contour>
    <contour>
      <point x="231.27272727272728" y="-15.0" type="line"/>
      <point x="322.27272727272725" y="562.0" type="line"/>
      <point x="255.27272727272728" y="572.0" type="line"/>
      <point x="164.27272727272728" y="-5.0" type="line"/>
    </contour>
    <contour>
      <point x="93.77272727272727" y="333.5" type="line"/>
      <point x="588.7727272727273" y="338.5" type="line"/>
      <point x="588.7727272727273" y="411.5" type="line"/>
      <point x="93.77272727272727" y="411.5" type="line"/>
    </contour>
  </outline>
</glyph>
<glyph name="dollar" format="2">
  <advance width="585.4"/>
  <unicode hex="0024"/>
  <outline>
    <contour>
      <point x="284.90909090909093" y="-13.409090909090908" type="curve" smooth="yes"/>
      <point x="408.8181818181818" y="-13.409090909090908"/>
      <point x="507.6818181818182" y="51.77272727272727"/>
      <point x="507.6818181818182" y="172.8181818181818" type="curve" smooth="yes"/>
      <point x="507.6818181818182" y="376.27272727272725"/>
      <point x="209.13636363636363" y="361.1818181818182"/>
      <point x="209.13636363636363" y="491.1818181818182" type="curve" smooth="yes"/>
      <point x="209.13636363636363" y="546.7727272727273"/>
      <point x="250.8181818181818" y="577.3181818181819"/>
      <point x="305.40909090909093" y="577.3181818181819" type="curve" smooth="yes"/>
      <point x="353.40909090909093" y="577.3181818181819"/>
      <point x="397.27272727272725" y="559.0454545454545"/>
      <point x="438.27272727272725" y="538.5454545454545" type="curve"/>
      <point x="384.72727272727275" y="591.7272727272727" type="line"/>
      <point x="393.1818181818182" y="563.2272727272727"/>
      <point x="408.27272727272725" y="522.1363636363636"/>
      <point x="408.27272727272725" y="510.77272727272725" type="curve"/>
      <point x="409.5" y="463.4090909090909" type="line"/>
      <point x="470.27272727272725" y="459.22727272727275" type="line"/>
      <point x="482.8636363636364" y="613.2272727272727" type="line"/>
      <point x="423.04545454545456" y="629.2727272727273"/>
      <point x="354.54545454545456" y="643.2727272727273"/>
      <point x="293.5" y="643.2727272727273" type="curve" smooth="yes"/>
      <point x="176.5909090909091" y="643.2727272727273"/>
      <point x="90.31818181818181" y="579.7727272727273"/>
      <point x="90.31818181818181" y="471.72727272727275" type="curve" smooth="yes"/>
      <point x="90.31818181818181" y="268.5"/>
      <point x="387.5" y="289.6363636363636"/>
      <point x="387.5" y="150.1818181818182" type="curve" smooth="yes"/>
      <point x="387.5" y="88.5909090909091"/>
      <point x="342.54545454545456" y="57.13636363636364"/>
      <point x="280.77272727272725" y="57.13636363636364" type="curve" smooth="yes"/>
      <point x="223.27272727272728" y="57.13636363636364"/>
      <point x="175.27272727272728" y="80.5"/>
      <point x="139.5909090909091" y="96.72727272727273" type="curve"/>
      <point x="185.77272727272728" y="45.77272727272727" type="line"/>
      <point x="183.4090909090909" y="55.09090909090909"/>
      <point x="160.5" y="113.0"/>
      <point x="162.54545454545453" y="129.13636363636363" type="curve"/>
      <point x="164.13636363636363" y="182.13636363636363" type="line"/>
      <point x="95.18181818181819" y="186.72727272727272" type="line"/>
      <point x="81.18181818181819" y="31.363636363636363" type="line"/>
      <point x="117.22727272727273" y="12.181818181818182"/>
      <point x="196.5" y="-13.409090909090908"/>
    </contour>
    <contour>
      <point x="298.8181818181818" y="-154.0" type="line"/>
      <point x="305.8181818181818" y="15.0" type="line"/>
      <point x="253.8181818181818" y="15.0" type="line"/>
      <point x="246.8181818181818" y="-151.0" type="line"/>
    </contour>
    <contour>
      <point x="276.8181818181818" y="616.0" type="line"/>
      <point x="327.8181818181818" y="616.0" type="line"/>
      <point x="334.8181818181818" y="785.0" type="line"/>
      <point x="283.8181818181818" y="788.0" type="line"/>
    </contour>
  </outline>
</glyph>
<glyph name="ampersand" format="2">
  <advance width="837.5"/>
  <unicode hex="0026"/>
  <outline>
    <contour>
      <point x="583.1818181818181" y="0.0" type="line"/>
      <point x="746.7727272727273" y="0.0" type="line"/>
      <point x="753.5454545454545" y="59.54545454545455" type="line"/>
      <point x="684.2272727272727" y="65.31818181818181" type="line"/>
      <point x="620.2727272727273" y="113.27272727272728" type="line"/>
      <point x="504.8181818181818" y="220.54545454545456"/>
      <point x="406.1363636363636" y="314.0909090909091"/>
      <point x="326.5" y="400.1818181818182" type="curve" smooth="yes"/>
      <point x="291.0909090909091" y="438.40909090909093"/>
      <point x="272.90909090909093" y="476.59090909090907"/>
      <point x="272.90909090909093" y="518.0909090909091" type="curve" smooth="yes"/>
      <point x="272.90909090909093" y="567.3181818181819"/>
      <point x="307.3181818181818" y="601.0454545454545"/>
      <point x="358.04545454545456" y="601.0454545454545" type="curve" smooth="yes"/>
      <point x="397.04545454545456" y="601.0454545454545"/>
      <point x="436.6818181818182" y="584.6818181818181"/>
      <point x="476.5" y="567.3181818181819" type="curve"/>
      <point x="425.22727272727275" y="622.3636363636364" type="line"/>
      <point x="435.09090909090907" y="592.0909090909091"/>
      <point x="444.5" y="544.4090909090909"/>
      <point x="444.5" y="534.2272727272727" type="curve" smooth="yes"/>
      <point x="443.3181818181818" y="488.8636363636364" type="line"/>
      <point x="501.40909090909093" y="486.04545454545456" type="line"/>
      <point x="514.0" y="631.0" type="line"/>
      <point x="485.40909090909093" y="641.5909090909091"/>
      <point x="409.09090909090907" y="662.0"/>
      <point x="352.90909090909093" y="662.0" type="curve" smooth="yes"/>
      <point x="248.63636363636363" y="662.0"/>
      <point x="161.63636363636363" y="619.6818181818181"/>
      <point x="161.63636363636363" y="516.8636363636364" type="curve" smooth="yes"/>
      <point x="161.63636363636363" y="464.72727272727275"/>
      <point x="188.0" y="402.54545454545456"/>
      <point x="249.54545454545453" y="340.54545454545456" type="curve" smooth="yes"/>
      <point x="411.6818181818182" y="175.72727272727272"/>
      <point x="471.5" y="134.04545454545453"/>
      <point x="574.7727272727273" y="26.227272727272727" type="curve"/>
    </contour>
    <contour>
      <point x="323.6818181818182" y="-10.0" type="curve" smooth="yes"/>
      <point x="503.3636363636364" y="-10.0"/>
      <point x="617.7272727272727" y="105.5909090909091"/>
      <point x="623.0909090909091" y="267.40909090909093" type="curve" smooth="yes"/>
      <point x="625.5454545454545" y="317.09090909090907"/>
      <point x="627.5" y="334.27272727272725"/>
      <point x="628.9090909090909" y="344.1363636363636" type="curve"/>
      <point x="537.7727272727273" y="344.1363636363636" type="line"/>
      <point x="541.0" y="332.04545454545456"/>
      <point x="546.3636363636364" y="297.6363636363636"/>
      <point x="546.3636363636364" y="280.22727272727275" type="curve" smooth="yes"/>
      <point x="546.3636363636364" y="159.22727272727272"/>
      <point x="477.09090909090907" y="62.36363636363636"/>
      <point x="335.5909090909091" y="62.36363636363636" type="curve" smooth="yes"/>
      <point x="261.22727272727275" y="62.36363636363636"/>
      <point x="203.54545454545456" y="115.22727272727273"/>
      <point x="203.54545454545456" y="195.13636363636363" type="curve" smooth="yes"/>
      <point x="203.54545454545456" y="248.0909090909091"/>
      <point x="225.86363636363637" y="300.3636363636364"/>
      <point x="293.27272727272725" y="344.27272727272725" type="curve"/>
      <point x="259.0909090909091" y="399.1363636363636" type="line"/>
      <point x="154.8181818181818" y="349.09090909090907"/>
      <point x="92.72727272727273" y="284.27272727272725"/>
      <point x="92.72727272727273" y="184.86363636363637" type="curve" smooth="yes"/>
      <point x="92.72727272727273" y="59.0"/>
      <point x="195.77272727272728" y="-10.0"/>
    </contour>
    <contour>
      <point x="545.6818181818181" y="334.54545454545456" type="line"/>
      <point x="624.7272727272727" y="334.54545454545456" type="line"/>
      <point x="702.1818181818181" y="341.1363636363636" type="line"/>
      <point x="697.7727272727273" y="404.04545454545456" type="line"/>
      <point x="661.1818181818181" y="400.8636363636364"/>
      <point x="617.1818181818181" y="399.04545454545456"/>
      <point x="579.3636363636364" y="399.04545454545456" type="curve" smooth="yes"/>
      <point x="548.7727272727273" y="399.04545454545456"/>
      <point x="511.0" y="401.6363636363636"/>
      <point x="474.22727272727275" y="404.04545454545456" type="curve"/>
      <point x="469.22727272727275" y="346.54545454545456" type="line"/>
    </contour>
  </outline>
</glyph>
<glyph name="parenleft" format="2">
  <advance width="421.55"/>
  <unicode hex="0028"/>
  <outline>
    <contour>
      <point x="307.5" y="-103.5909090909091" type="curve"/>
      <point x="337.0" y="-80.0909090909091" type="line"/>
      <point x="251.8181818181818" y="47.86363636363636"/>
      <point x="209.6818181818182" y="205.13636363636363"/>
      <point x="209.6818181818182" y="358.0" type="curve" smooth="yes"/>
      <point x="209.6818181818182" y="512.6818181818181"/>
      <point x="252.63636363636363" y="669.5909090909091"/>
      <point x="337.0" y="796.0909090909091" type="curve"/>
      <point x="307.5" y="819.5909090909091" type="line"/>
      <point x="166.0" y="689.3636363636364"/>
      <point x="100.72727272727273" y="536.3636363636364"/>
      <point x="100.72727272727273" y="358.0" type="curve" smooth="yes"/>
      <point x="100.72727272727273" y="182.0"/>
      <point x="164.22727272727272" y="28.40909090909091"/>
    </contour>
  </outline>
</glyph>
<glyph name="parenright" format="2">
  <advance width="421.55"/>
  <unicode hex="0029"/>
  <outline>
    <contour>
      <point x="114.22727272727273" y="818.5909090909091" type="curve"/>
      <point x="84.72727272727273" y="795.0909090909091" type="line"/>
      <point x="169.9090909090909" y="667.1363636363636"/>
      <point x="212.04545454545453" y="509.8636363636364"/>
      <point x="212.04545454545453" y="357.0" type="curve" smooth="yes"/>
      <point x="212.04545454545453" y="202.3181818181818"/>
      <point x="169.0909090909091" y="45.40909090909091"/>
      <point x="84.72727272727273" y="-81.0909090909091" type="curve"/>
      <point x="114.22727272727273" y="-104.5909090909091" type="line"/>
      <point x="255.72727272727272" y="25.636363636363637"/>
      <point x="321.0" y="178.63636363636363"/>
      <point x="321.0" y="357.0" type="curve" smooth="yes"/>
      <point x="321.0" y="533.0"/>
      <point x="257.5" y="686.5909090909091"/>
    </contour>
  </outline>
</glyph>
<glyph name="asterisk" format="2">
  <advance width="493.84999999999997"/>
  <unicode hex="002A"/>
  <outline>
    <contour>
      <point x="164.86363636363637" y="428.59090909090907" type="line"/>
      <point x="269.09090909090907" y="574.6363636363636" type="line"/>
      <point x="224.77272727272728" y="608.1363636363636" type="line"/>
      <point x="104.72727272727273" y="474.09090909090907" type="line"/>
    </contour>
    <contour>
      <point x="248.8181818181818" y="557.7272727272727" type="line"/>
      <point x="263.8636363636364" y="609.6818181818181" type="line"/>
      <point x="96.4090909090909" y="678.2727272727273" type="line"/>
      <point x="74.36363636363636" y="604.9090909090909" type="line"/>
    </contour>
    <contour>
      <point x="329.8636363636364" y="425.59090909090907" type="line"/>
      <point x="387.59090909090907" y="474.5" type="line"/>
      <point x="269.54545454545456" y="607.1363636363636" type="line"/>
      <point x="227.22727272727272" y="570.6363636363636" type="line"/>
    </contour>
    <contour>
      <point x="217.0909090909091" y="579.7272727272727" type="line"/>
      <point x="273.04545454545456" y="582.1363636363636" type="line"/>
      <point x="279.8636363636364" y="761.0" type="line"/>
      <point x="204.0909090909091" y="756.5909090909091" type="line"/>
    </contour>
    <contour>
      <point x="247.0909090909091" y="558.7272727272727" type="line"/>
      <point x="421.54545454545456" y="606.9090909090909" type="line"/>
      <point x="395.09090909090907" y="678.2727272727273" type="line"/>
      <point x="229.63636363636363" y="610.6818181818181" type="line"/>
    </contour>
  </outline>
</glyph>
<glyph name="plus" format="2">
  <advance width="695.5500000000001"/>
  <unicode hex="002B"/>
  <outline>
    <contour>
      <point x="90.36363636363636" y="213.04545454545453" type="line"/>
      <point x="605.3636363636364" y="218.04545454545453" type="line"/>
      <point x="605.3636363636364" y="298.54545454545456" type="line"/>
      <point x="90.36363636363636" y="298.54545454545456" type="line"/>
    </contour>
    <contour>
      <point x="305.40909090909093" y="0.0" type="line"/>
      <point x="390.90909090909093" y="0.0" type="line"/>
      <point x="385.90909090909093" y="511.0" type="line"/>
      <point x="305.40909090909093" y="511.0" type="line"/>
    </contour>
  </outline>
</glyph>
<glyph name="comma" format="2">
  <advance width="328.84999999999997"/>
  <unicode hex="002C"/>
  <outline>
    <contour>
      <point x="97.72727272727273" y="-150.0" type="line"/>
      <point x="192.3181818181818" y="-129.0"/>
      <point x="237.5909090909091" y="-35.72727272727273"/>
      <point x="237.5909090909091" y="45.31818181818182" type="curve" smooth="yes"/>
      <point x="237.5909090909091" y="95.0"/>
      <point x="220.77272727272728" y="139.04545454545456"/>
      <point x="169.86363636363637" y="139.04545454545456" type="curve" smooth="yes"/>
      <point x="127.54545454545455" y="139.04545454545456"/>
      <point x="103.72727272727273" y="107.81818181818181"/>
      <point x="103.72727272727273" y="64.9090909090909" type="curve" smooth="yes"/>
      <point x="103.72727272727273" y="16.0"/>
      <point x="137.63636363636363" y="-24.90909090909091"/>
      <point x="203.54545454545456" y="-3.318181818181818" type="curve"/>
      <point x="160.27272727272728" y="18.40909090909091" type="line"/>
      <point x="173.27272727272728" y="-41.36363636363637"/>
      <point x="142.6818181818182" y="-90.77272727272727"/>
      <point x="86.9090909090909" y="-114.0" type="curve"/>
    </contour>
  </outline>
</glyph>
<glyph name="hyphen" format="2">
  <advance width="369.59999999999997"/>
  <unicode hex="002D"/>
  <outline>
    <contour>
      <point x="76.18181818181819" y="217.22727272727272" type="line"/>
      <point x="291.1818181818182" y="217.22727272727272" type="line"/>
      <point x="296.1818181818182" y="292.1363636363636" type="line"/>
      <point x="74.18181818181819" y="292.1363636363636" type="line"/>
    </contour>
  </outline>
</glyph>
<glyph name="period" format="2">
  <advance width="338.2"/>
  <unicode hex="002E"/>
  <outline>
    <contour>
      <point x="168.86363636363637" y="-12.045454545454545" type="curve" smooth="yes"/>
      <point x="213.54545454545453" y="-12.045454545454545"/>
      <point x="238.4090909090909" y="18.40909090909091"/>
      <point x="238.4090909090909" y="62.5" type="curve" smooth="yes"/>
      <point x="238.4090909090909" y="109.5909090909091"/>
      <point x="212.54545454545453" y="138.04545454545456"/>
      <point x="168.86363636363637" y="138.04545454545456" type="curve" smooth="yes"/>
      <point x="124.77272727272727" y="138.04545454545456"/>
      <point x="99.9090909090909" y="106.5909090909091"/>
      <point x="99.9090909090909" y="62.5" type="curve" smooth="yes"/>
      <point x="99.9090909090909" y="18.40909090909091"/>
      <point x="124.77272727272727" y="-12.045454545454545"/>
    </contour>
  </outline>
</glyph>
<glyph name="slash" format="2">
  <advance width="416.95"/>
  <unicode hex="002F"/>
  <outline>
    <contour>
      <point x="90.86363636363636" y="-66.18181818181819" type="line"/>
      <point x="399.40909090909093" y="749.5" type="line"/>
      <point x="326.3181818181818" y="773.0" type="line"/>
      <point x="16.772727272727273" y="-42.68181818181818" type="line"/>
    </contour>
  </outline>
</glyph>
<glyph name="zero" format="2">
  <advance width="661.1"/>
  <unicode hex="0030"/>
  <outline>
    <contour>
      <point x="330.72727272727275" y="-10.0" type="curve" smooth="yes"/>
      <point x="508.27272727272725" y="-10.0"/>
      <point x="577.7272727272727" y="146.0"/>
      <point x="577.7272727272727" y="326.0" type="curve"/>
      <point x="577.7272727272727" y="506.0"/>
      <point x="508.27272727272725" y="662.0"/>
      <point x="330.72727272727275" y="662.0" type="curve" smooth="yes"/>
      <point x="152.5909090909091" y="662.0"/>
      <point x="83.72727272727273" y="506.0"/>
      <point x="83.72727272727273" y="326.0" type="curve"/>
      <point x="83.72727272727273" y="146.0"/>
      <point x="152.5909090909091" y="-10.0"/>
    </contour>
    <contour>
      <point x="330.72727272727275" y="59.04545454545455" type="curve" smooth="yes"/>
      <point x="225.9090909090909" y="59.04545454545455"/>
      <point x="205.1818181818182" y="202.3181818181818"/>
      <point x="205.1818181818182" y="326.0" type="curve"/>
      <point x="205.1818181818182" y="449.6818181818182"/>
      <point x="225.9090909090909" y="593.5454545454545"/>
      <point x="330.72727272727275" y="593.5454545454545" type="curve" smooth="yes"/>
      <point x="435.54545454545456" y="593.5454545454545"/>
      <point x="455.6818181818182" y="449.6818181818182"/>
      <point x="455.6818181818182" y="326.0" type="curve" smooth="yes"/>
      <point x="455.6818181818182" y="202.3181818181818"/>
      <point x="435.54545454545456" y="59.04545454545455"/>
    </contour>
  </outline>
</glyph>
<glyph name="one" format="2">
  <advance width="509.05"/>
  <unicode hex="0031"/>
  <outline>
    <contour>
      <point x="81.36363636363636" y="-5.0" type="line"/>
      <point x="126.13636363636364" y="-3.0"/>
      <point x="243.8181818181818" y="0.0"/>
      <point x="261.5" y="0.0" type="curve" smooth="yes"/>
      <point x="444.6818181818182" y="0.0" type="line"/>
      <point x="451.27272727272725" y="59.77272727272727" type="line"/>
      <point x="295.6363636363636" y="70.18181818181819" type="line"/>
      <point x="346.1363636363636" y="21.09090909090909" type="line"/>
      <point x="339.3181818181818" y="72.81818181818181"/>
      <point x="332.6818181818182" y="131.3181818181818"/>
      <point x="332.6818181818182" y="175.86363636363637" type="curve" smooth="yes"/>
      <point x="332.6818181818182" y="426.0" type="line" smooth="yes"/>
      <point x="332.6818181818182" y="463.0"/>
      <point x="337.0909090909091" y="581.0"/>
      <point x="340.0909090909091" y="660.0" type="curve"/>
      <point x="273.72727272727275" y="672.0" type="line"/>
      <point x="63.77272727272727" y="507.0" type="line"/>
      <point x="94.27272727272727" y="458.0" type="line"/>
      <point x="269.72727272727275" y="529.0454545454545" type="line"/>
      <point x="227.86363636363637" y="555.2727272727273" type="line"/>
      <point x="227.86363636363637" y="145.86363636363637" type="line" smooth="yes"/>
      <point x="227.86363636363637" y="125.13636363636364"/>
      <point x="218.63636363636363" y="62.81818181818182"/>
      <point x="212.0" y="21.09090909090909" type="curve"/>
      <point x="264.3181818181818" y="73.18181818181819" type="line"/>
      <point x="76.36363636363636" y="52.0" type="line"/>
    </contour>
  </outline>
</glyph>
<glyph name="two" format="2">
  <advance width="605.75"/>
  <unicode hex="0032"/>
  <outline>
    <contour>
      <point x="496.3636363636364" y="-3.0" type="line"/>
      <point x="519.2727272727273" y="17.0" type="line"/>
      <point x="527.8636363636364" y="176.9090909090909" type="line"/>
      <point x="465.22727272727275" y="181.72727272727272" type="line"/>
      <point x="459.40909090909093" y="138.22727272727272" type="line"/>
      <point x="450.1818181818182" y="110.0909090909091"/>
      <point x="439.77272727272725" y="82.54545454545455"/>
      <point x="429.1363636363636" y="54.40909090909091" type="curve"/>
      <point x="489.8636363636364" y="103.0909090909091" type="line"/>
      <point x="446.3636363636364" y="96.68181818181819"/>
      <point x="382.27272727272725" y="89.04545454545455"/>
      <point x="359.3636363636364" y="89.04545454545455" type="curve" smooth="yes"/>
      <point x="149.77272727272728" y="89.04545454545455" type="line"/>
      <point x="151.36363636363637" y="50.63636363636364" type="line"/>
      <point x="425.72727272727275" y="291.3636363636364"/>
      <point x="495.8636363636364" y="377.22727272727275"/>
      <point x="495.8636363636364" y="497.09090909090907" type="curve" smooth="yes"/>
      <point x="495.8636363636364" y="601.3636363636364"/>
      <point x="418.0" y="662.0"/>
      <point x="285.3636363636364" y="662.0" type="curve" smooth="yes"/>
      <point x="215.36363636363637" y="662.0"/>
      <point x="161.5909090909091" y="652.1818181818181"/>
      <point x="94.0" y="626.4090909090909" type="curve"/>
      <point x="105.13636363636364" y="470.54545454545456" type="line"/>
      <point x="168.1818181818182" y="473.77272727272725" type="line"/>
      <point x="167.0" y="518.5454545454545" type="line" smooth="yes"/>
      <point x="166.4090909090909" y="530.3636363636364"/>
      <point x="178.22727272727272" y="579.6363636363636"/>
      <point x="185.63636363636363" y="609.6818181818181" type="curve"/>
      <point x="146.22727272727272" y="544.9090909090909" type="line"/>
      <point x="190.5909090909091" y="577.7272727272727"/>
      <point x="227.0909090909091" y="591.1818181818181"/>
      <point x="272.04545454545456" y="591.1818181818181" type="curve" smooth="yes"/>
      <point x="334.90909090909093" y="591.1818181818181"/>
      <point x="378.0" y="548.7727272727273"/>
      <point x="378.0" y="482.90909090909093" type="curve" smooth="yes"/>
      <point x="378.0" y="394.6818181818182"/>
      <point x="334.3181818181818" y="337.3636363636364"/>
      <point x="72.18181818181819" y="81.86363636363636" type="curve"/>
      <point x="86.18181818181819" y="0.0" type="line"/>
      <point x="379.6818181818182" y="0.0" type="line"/>
    </contour>
  </outline>
</glyph>
<glyph name="three" format="2">
  <advance width="545.3000000000001"/>
  <unicode hex="0033"/>
  <outline>
    <contour>
      <point x="75.18181818181819" y="-105.0" type="line"/>
      <point x="305.8636363636364" y="-82.27272727272727"/>
      <point x="469.04545454545456" y="32.0"/>
      <point x="469.04545454545456" y="169.86363636363637" type="curve" smooth="yes"/>
      <point x="469.04545454545456" y="259.22727272727275"/>
      <point x="398.04545454545456" y="327.59090909090907"/>
      <point x="288.77272727272725" y="340.1363636363636" type="curve"/>
      <point x="289.90909090909093" y="320.27272727272725" type="line"/>
      <point x="386.0" y="350.90909090909093"/>
      <point x="441.04545454545456" y="415.72727272727275"/>
      <point x="441.04545454545456" y="494.6818181818182" type="curve" smooth="yes"/>
      <point x="441.04545454545456" y="603.7727272727273"/>
      <point x="367.77272727272725" y="662.0"/>
      <point x="232.5909090909091" y="662.0" type="curve" smooth="yes"/>
      <point x="177.5" y="662.0"/>
      <point x="126.72727272727273" y="653.1818181818181"/>
      <point x="66.77272727272727" y="633.0" type="curve"/>
      <point x="80.18181818181819" y="479.77272727272725" type="line"/>
      <point x="143.8181818181818" y="483.59090909090907" type="line"/>
      <point x="142.63636363636363" y="531.2727272727273" type="line" smooth="yes"/>
      <point x="142.04545454545456" y="543.2727272727273"/>
      <point x="154.27272727272728" y="591.7727272727273"/>
      <point x="161.6818181818182" y="622.8181818181819" type="curve"/>
      <point x="126.18181818181819" y="562.0" type="line"/>
      <point x="157.77272727272728" y="585.6363636363636"/>
      <point x="186.4090909090909" y="595.8636363636364"/>
      <point x="228.36363636363637" y="595.8636363636364" type="curve" smooth="yes"/>
      <point x="291.1818181818182" y="595.8636363636364"/>
      <point x="326.27272727272725" y="557.8181818181819"/>
      <point x="326.27272727272725" y="487.6818181818182" type="curve" smooth="yes"/>
      <point x="326.27272727272725" y="403.3181818181818"/>
      <point x="266.1363636363636" y="352.27272727272725"/>
      <point x="144.1818181818182" y="336.04545454545456" type="curve"/>
      <point x="158.1818181818182" y="279.0" type="line"/>
      <point x="172.0" y="280.40909090909093"/>
      <point x="200.0" y="282.40909090909093"/>
      <point x="224.9090909090909" y="282.40909090909093" type="curve" smooth="yes"/>
      <point x="301.77272727272725" y="282.40909090909093"/>
      <point x="349.3636363636364" y="238.13636363636363"/>
      <point x="349.3636363636364" y="164.77272727272728" type="curve" smooth="yes"/>
      <point x="349.3636363636364" y="66.77272727272727"/>
      <point x="232.9090909090909" y="-18.09090909090909"/>
      <point x="56.13636363636364" y="-43.77272727272727" type="curve"/>
    </contour>
  </outline>
</glyph>
<glyph name="four" format="2">
  <advance width="618.0"/>
  <unicode hex="0034"/>
  <outline>
    <contour>
      <point x="110.63636363636364" y="194.4090909090909" type="line"/>
      <point x="366.77272727272725" y="194.4090909090909" type="line"/>
      <point x="366.77272727272725" y="262.3636363636364" type="line"/>
      <point x="128.0909090909091" y="260.0" type="line"/>
      <point x="147.5909090909091" y="223.1818181818182" type="line"/>
      <point x="361.5909090909091" y="532.3636363636364" type="line" smooth="yes"/>
      <point x="372.5909090909091" y="549.3636363636364"/>
      <point x="443.27272727272725" y="624.0"/>
      <point x="493.59090909090907" y="676.2727272727273" type="curve"/>
      <point x="413.6818181818182" y="739.0" type="line"/>
      <point x="56.13636363636363" y="261.0" type="line"/>
    </contour>
    <contour>
      <point x="244.3181818181818" y="-5.0" type="line"/>
      <point x="288.6818181818182" y="-3.0"/>
      <point x="350.54545454545456" y="0.0"/>
      <point x="378.4090909090909" y="0.0" type="curve" smooth="yes"/>
      <point x="538.0454545454545" y="0.0" type="line"/>
      <point x="544.2272727272727" y="59.77272727272727" type="line"/>
      <point x="413.09090909090907" y="69.77272727272728" type="line"/>
      <point x="463.5909090909091" y="21.09090909090909" type="line"/>
      <point x="458.0" y="68.9090909090909"/>
      <point x="451.77272727272725" y="126.9090909090909"/>
      <point x="451.77272727272725" y="164.72727272727272" type="curve" smooth="yes"/>
      <point x="451.77272727272725" y="423.3181818181818" type="line"/>
      <point x="352.54545454545456" y="388.90909090909093" type="line"/>
      <point x="352.54545454545456" y="145.63636363636363" type="line" smooth="yes"/>
      <point x="352.54545454545456" y="114.31818181818181"/>
      <point x="343.3636363636364" y="62.40909090909091"/>
      <point x="336.59090909090907" y="21.09090909090909" type="curve"/>
      <point x="390.04545454545456" y="72.77272727272728" type="line"/>
      <point x="239.3181818181818" y="52.0" type="line"/>
    </contour>
    <contour>
      <point x="436.3636363636364" y="194.4090909090909" type="line"/>
      <point x="544.5909090909091" y="194.4090909090909" type="line"/>
      <point x="544.5909090909091" y="274.59090909090907" type="line"/>
      <point x="436.3636363636364" y="268.0" type="line"/>
    </contour>
  </outline>
</glyph>
<glyph name="five" format="2">
  <advance width="545.6999999999999"/>
  <unicode hex="0035"/>
  <outline>
    <contour>
      <point x="94.27272727272727" y="-105.0" type="line"/>
      <point x="318.90909090909093" y="-77.22727272727272"/>
      <point x="468.04545454545456" y="18.0"/>
      <point x="468.04545454545456" y="179.9090909090909" type="curve" smooth="yes"/>
      <point x="468.04545454545456" y="302.6818181818182"/>
      <point x="383.1363636363636" y="370.59090909090907"/>
      <point x="243.8181818181818" y="370.59090909090907" type="curve" smooth="yes"/>
      <point x="208.13636363636363" y="370.59090909090907"/>
      <point x="170.6818181818182" y="364.0"/>
      <point x="138.9090909090909" y="355.77272727272725" type="curve"/>
      <point x="166.5909090909091" y="322.5" type="line"/>
      <point x="179.5909090909091" y="554.0909090909091" type="line"/>
      <point x="254.0909090909091" y="554.0909090909091" type="line"/>
      <point x="444.59090909090907" y="574.0" type="line"/>
      <point x="438.59090909090907" y="662.0" type="line"/>
      <point x="195.5909090909091" y="652.0" type="line"/>
      <point x="120.5909090909091" y="652.0" type="line"/>
      <point x="101.5909090909091" y="634.0" type="line"/>
      <point x="81.9090909090909" y="310.54545454545456" type="line"/>
      <point x="122.4090909090909" y="277.8181818181818" type="line"/>
      <point x="162.77272727272728" y="288.22727272727275"/>
      <point x="192.36363636363637" y="291.22727272727275"/>
      <point x="216.13636363636363" y="291.22727272727275" type="curve" smooth="yes"/>
      <point x="305.40909090909093" y="291.22727272727275"/>
      <point x="351.6363636363636" y="245.86363636363637"/>
      <point x="351.6363636363636" y="165.1818181818182" type="curve" smooth="yes"/>
      <point x="351.6363636363636" y="46.68181818181819"/>
      <point x="241.5909090909091" y="-15.818181818181817"/>
      <point x="75.22727272727273" y="-44.59090909090909" type="curve"/>
    </contour>
  </outline>
</glyph>
<glyph name="six" format="2">
  <advance width="616.4499999999999"/>
  <unicode hex="0036"/>
  <outline>
    <contour>
      <point x="317.1363636363636" y="-11.0" type="curve" smooth="yes"/>
      <point x="442.6363636363636" y="-11.0"/>
      <point x="544.7272727272727" y="77.18181818181819"/>
      <point x="544.7272727272727" y="202.6818181818182" type="curve" smooth="yes"/>
      <point x="544.7272727272727" y="330.6363636363636"/>
      <point x="467.1818181818182" y="406.5"/>
      <point x="339.8181818181818" y="406.5" type="curve" smooth="yes"/>
      <point x="313.22727272727275" y="406.5"/>
      <point x="286.22727272727275" y="400.54545454545456"/>
      <point x="260.22727272727275" y="392.3636363636364" type="curve"/>
      <point x="266.22727272727275" y="336.3181818181818" type="line"/>
      <point x="284.3181818181818" y="338.90909090909093"/>
      <point x="302.22727272727275" y="340.5"/>
      <point x="320.3181818181818" y="340.5" type="curve" smooth="yes"/>
      <point x="393.90909090909093" y="340.5"/>
      <point x="426.6818181818182" y="276.27272727272725"/>
      <point x="426.6818181818182" y="202.6818181818182" type="curve" smooth="yes"/>
      <point x="426.6818181818182" y="128.86363636363637"/>
      <point x="390.54545454545456" y="58.54545454545455"/>
      <point x="316.72727272727275" y="58.54545454545455" type="curve" smooth="yes"/>
      <point x="228.36363636363637" y="58.54545454545455"/>
      <point x="195.1818181818182" y="158.22727272727272"/>
      <point x="195.1818181818182" y="246.0" type="curve" smooth="yes"/>
      <point x="195.1818181818182" y="415.1363636363636"/>
      <point x="275.77272727272725" y="615.2727272727273"/>
      <point x="525.8181818181819" y="691.0454545454545" type="curve"/>
      <point x="512.1818181818181" y="747.0" type="line"/>
      <point x="219.63636363636363" y="693.4090909090909"/>
      <point x="78.72727272727273" y="457.0"/>
      <point x="78.72727272727273" y="246.0" type="curve" smooth="yes"/>
      <point x="78.72727272727273" y="94.54545454545455"/>
      <point x="165.0909090909091" y="-11.0"/>
    </contour>
  </outline>
</glyph>
<glyph name="seven" format="2">
  <advance width="581.4"/>
  <unicode hex="0037"/>
  <outline>
    <contour>
      <point x="222.5909090909091" y="-105.0" type="line"/>
      <point x="519.0909090909091" y="602.5" type="line"/>
      <point x="503.0909090909091" y="652.0" type="line"/>
      <point x="218.1818181818182" y="652.0" type="line" smooth="yes"/>
      <point x="200.5909090909091" y="652.0"/>
      <point x="139.0" y="657.0"/>
      <point x="97.0" y="661.0" type="curve"/>
      <point x="78.4090909090909" y="641.0" type="line"/>
      <point x="68.5909090909091" y="471.1818181818182" type="line"/>
      <point x="132.22727272727272" y="467.59090909090907" type="line"/>
      <point x="137.86363636363637" y="516.1363636363636" type="line" smooth="yes"/>
      <point x="138.86363636363637" y="524.7272727272727"/>
      <point x="159.3181818181818" y="568.7727272727273"/>
      <point x="171.36363636363637" y="595.6818181818181" type="curve"/>
      <point x="107.0" y="549.0" type="line"/>
      <point x="146.5909090909091" y="553.0"/>
      <point x="205.77272727272728" y="558.4090909090909"/>
      <point x="227.1818181818182" y="558.4090909090909" type="curve" smooth="yes"/>
      <point x="435.5" y="558.4090909090909" type="line"/>
      <point x="402.3181818181818" y="601.8636363636364" type="line"/>
      <point x="385.09090909090907" y="537.2272727272727"/>
      <point x="358.22727272727275" y="433.72727272727275"/>
      <point x="346.22727272727275" y="406.77272727272725" type="curve" smooth="yes"/>
      <point x="128.3181818181818" y="-73.81818181818181" type="line"/>
    </contour>
  </outline>
</glyph>
<glyph name="eight" format="2">
  <advance width="609.15"/>
  <unicode hex="0038"/>
  <outline>
    <contour>
      <point x="304.1363636363636" y="-10.0" type="curve" smooth="yes"/>
      <point x="422.3636363636364" y="-10.0"/>
      <point x="531.5454545454545" y="45.77272727272727"/>
      <point x="531.5454545454545" y="162.8181818181818" type="curve" smooth="yes"/>
      <point x="531.5454545454545" y="276.6818181818182"/>
      <point x="437.72727272727275" y="325.09090909090907"/>
      <point x="351.1363636363636" y="371.72727272727275" type="curve" smooth="yes"/>
      <point x="275.8181818181818" y="411.72727272727275"/>
      <point x="205.9090909090909" y="447.09090909090907"/>
      <point x="205.9090909090909" y="522.1818181818181" type="curve" smooth="yes"/>
      <point x="205.9090909090909" y="577.4090909090909"/>
      <point x="250.6818181818182" y="623.0454545454545"/>
      <point x="304.54545454545456" y="623.0454545454545" type="curve" smooth="yes"/>
      <point x="362.0" y="623.0454545454545"/>
      <point x="402.1818181818182" y="578.5909090909091"/>
      <point x="402.1818181818182" y="518.5909090909091" type="curve" smooth="yes"/>
      <point x="402.1818181818182" y="449.22727272727275"/>
      <point x="349.04545454545456" y="386.1363636363636"/>
      <point x="281.8636363636364" y="344.3181818181818" type="curve"/>
      <point x="328.6363636363636" y="312.3181818181818" type="line"/>
      <point x="433.5" y="361.3636363636364"/>
      <point x="509.54545454545456" y="436.77272727272725"/>
      <point x="509.54545454545456" y="519.0" type="curve" smooth="yes"/>
      <point x="509.54545454545456" y="624.8181818181819"/>
      <point x="408.0" y="682.0"/>
      <point x="304.54545454545456" y="682.0" type="curve" smooth="yes"/>
      <point x="199.3181818181818" y="682.0"/>
      <point x="99.13636363636364" y="624.2272727272727"/>
      <point x="99.13636363636364" y="521.4090909090909" type="curve" smooth="yes"/>
      <point x="99.13636363636364" y="402.6818181818182"/>
      <point x="191.77272727272728" y="354.6363636363636"/>
      <point x="278.54545454545456" y="309.6363636363636" type="curve" smooth="yes"/>
      <point x="351.6818181818182" y="270.8636363636364"/>
      <point x="420.1818181818182" y="235.5"/>
      <point x="420.1818181818182" y="160.8181818181818" type="curve" smooth="yes"/>
      <point x="420.1818181818182" y="92.77272727272728"/>
      <point x="369.8181818181818" y="49.54545454545455"/>
      <point x="304.54545454545456" y="49.54545454545455" type="curve" smooth="yes"/>
      <point x="235.9090909090909" y="49.54545454545455"/>
      <point x="187.5" y="94.4090909090909"/>
      <point x="187.5" y="164.4090909090909" type="curve" smooth="yes"/>
      <point x="187.5" y="237.1818181818182"/>
      <point x="252.72727272727272" y="302.90909090909093"/>
      <point x="342.22727272727275" y="346.1363636363636" type="curve"/>
      <point x="292.3181818181818" y="385.6818181818182" type="line"/>
      <point x="211.27272727272728" y="348.8636363636364"/>
      <point x="77.13636363636364" y="277.5"/>
      <point x="77.13636363636364" y="164.0" type="curve" smooth="yes"/>
      <point x="77.13636363636364" y="45.59090909090909"/>
      <point x="186.0909090909091" y="-10.0"/>
    </contour>
  </outline>
</glyph>
<glyph name="nine" format="2">
  <advance width="616.4"/>
  <unicode hex="0039"/>
  <outline>
    <contour>
      <point x="109.86363636363636" y="-106.18181818181819" type="line"/>
      <point x="407.1363636363636" y="-47.27272727272727"/>
      <point x="537.3181818181819" y="188.0909090909091"/>
      <point x="537.3181818181819" y="402.6363636363636" type="curve" smooth="yes"/>
      <point x="537.3181818181819" y="553.8181818181819"/>
      <point x="453.04545454545456" y="662.0"/>
      <point x="297.1363636363636" y="662.0" type="curve" smooth="yes"/>
      <point x="170.04545454545453" y="662.0"/>
      <point x="69.54545454545455" y="570.3181818181819"/>
      <point x="69.54545454545455" y="447.1363636363636" type="curve" smooth="yes"/>
      <point x="69.54545454545455" y="321.27272727272725"/>
      <point x="156.22727272727272" y="244.5"/>
      <point x="281.5" y="244.5" type="curve" smooth="yes"/>
      <point x="311.3181818181818" y="244.5"/>
      <point x="337.27272727272725" y="250.0909090909091"/>
      <point x="356.40909090909093" y="258.04545454545456" type="curve"/>
      <point x="349.8181818181818" y="313.5" type="line"/>
      <point x="333.1363636363636" y="311.3181818181818"/>
      <point x="316.8181818181818" y="310.5"/>
      <point x="297.5" y="310.5" type="curve" smooth="yes"/>
      <point x="231.77272727272728" y="310.5"/>
      <point x="188.1818181818182" y="373.59090909090907"/>
      <point x="188.1818181818182" y="447.1363636363636" type="curve" smooth="yes"/>
      <point x="188.1818181818182" y="522.1363636363636"/>
      <point x="221.36363636363637" y="593.0454545454545"/>
      <point x="295.77272727272725" y="593.0454545454545" type="curve" smooth="yes"/>
      <point x="380.8636363636364" y="593.0454545454545"/>
      <point x="417.90909090909093" y="495.3181818181818"/>
      <point x="417.90909090909093" y="402.6363636363636" type="curve" smooth="yes"/>
      <point x="417.90909090909093" y="233.5"/>
      <point x="352.8181818181818" y="30.863636363636363"/>
      <point x="93.18181818181819" y="-46.36363636363636" type="curve"/>
    </contour>
  </outline>
</glyph>
<glyph name="colon" format="2">
  <advance width="296.40000000000003"/>
  <unicode hex="003A"/>
  <outline>
    <contour>
      <point x="148.3181818181818" y="338.04545454545456" type="curve" smooth="yes"/>
      <point x="189.8181818181818" y="338.04545454545456"/>
      <point x="212.27272727272728" y="365.90909090909093"/>
      <point x="212.27272727272728" y="407.0" type="curve" smooth="yes"/>
      <point x="212.27272727272728" y="451.09090909090907"/>
      <point x="188.4090909090909" y="477.54545454545456"/>
      <point x="148.3181818181818" y="477.54545454545456" type="curve" smooth="yes"/>
      <point x="106.81818181818181" y="477.54545454545456"/>
      <point x="83.77272727272727" y="448.09090909090907"/>
      <point x="83.77272727272727" y="407.0" type="curve" smooth="yes"/>
      <point x="83.77272727272727" y="365.90909090909093"/>
      <point x="106.81818181818181" y="338.04545454545456"/>
    </contour>
    <contour>
      <point x="148.3181818181818" y="-12.045454545454545" type="curve" smooth="yes"/>
      <point x="189.8181818181818" y="-12.045454545454545"/>
      <point x="212.27272727272728" y="16.40909090909091"/>
      <point x="212.27272727272728" y="57.5" type="curve" smooth="yes"/>
      <point x="212.27272727272728" y="101.5909090909091"/>
      <point x="188.4090909090909" y="128.04545454545456"/>
      <point x="148.3181818181818" y="128.04545454545456" type="curve" smooth="yes"/>
      <point x="106.81818181818181" y="128.04545454545456"/>
      <point x="83.77272727272727" y="98.5909090909091"/>
      <point x="83.77272727272727" y="57.5" type="curve" smooth="yes"/>
      <point x="83.77272727272727" y="16.40909090909091"/>
      <point x="106.81818181818181" y="-12.045454545454545"/>
    </contour>
  </outline>
</glyph>
<glyph name="semicolon" format="2">
  <advance width="309.65000000000003"/>
  <unicode hex="003B"/>
  <outline>
    <contour>
      <point x="86.77272727272727" y="-151.0" type="line"/>
      <point x="181.36363636363637" y="-130.0"/>
      <point x="227.22727272727272" y="-36.72727272727273"/>
      <point x="227.22727272727272" y="44.31818181818182" type="curve" smooth="yes"/>
      <point x="227.22727272727272" y="94.0"/>
      <point x="210.4090909090909" y="138.04545454545456"/>
      <point x="159.5" y="138.04545454545456" type="curve" smooth="yes"/>
      <point x="116.5909090909091" y="138.04545454545456"/>
      <point x="92.77272727272727" y="106.81818181818181"/>
      <point x="92.77272727272727" y="63.90909090909091" type="curve" smooth="yes"/>
      <point x="92.77272727272727" y="15.0"/>
      <point x="126.68181818181819" y="-25.90909090909091"/>
      <point x="192.5909090909091" y="-4.318181818181818" type="curve"/>
      <point x="149.9090909090909" y="17.40909090909091" type="line"/>
      <point x="162.9090909090909" y="-42.36363636363637"/>
      <point x="132.3181818181818" y="-91.77272727272727"/>
      <point x="76.54545454545455" y="-115.0" type="curve"/>
    </contour>
    <contour>
      <point x="158.5" y="334.54545454545456" type="curve" smooth="yes"/>
      <point x="200.0" y="334.54545454545456"/>
      <point x="223.04545454545456" y="362.40909090909093"/>
      <point x="223.04545454545456" y="403.5" type="curve" smooth="yes"/>
      <point x="223.04545454545456" y="447.59090909090907"/>
      <point x="198.5909090909091" y="474.04545454545456"/>
      <point x="158.5" y="474.04545454545456" type="curve" smooth="yes"/>
      <point x="117.0" y="474.04545454545456"/>
      <point x="94.54545454545455" y="444.59090909090907"/>
      <point x="94.54545454545455" y="403.5" type="curve" smooth="yes"/>
      <point x="94.54545454545455" y="362.40909090909093"/>
      <point x="117.0" y="334.54545454545456"/>
    </contour>
  </outline>
</glyph>
<glyph name="less" format="2">
  <advance width="527.85"/>
  <unicode hex="003C"/>
  <outline>
    <contour>
      <point x="381.04545454545456" y="-15.0" type="line"/>
      <point x="437.77272727272725" y="45.81818181818182" type="line"/>
      <point x="162.77272727272728" y="278.0" type="line"/>
      <point x="162.77272727272728" y="218.8181818181818" type="line"/>
      <point x="437.1818181818182" y="452.1818181818182" type="line"/>
      <point x="379.8636363636364" y="513.0" type="line"/>
      <point x="80.31818181818181" y="247.8181818181818" type="line"/>
    </contour>
  </outline>
</glyph>
<glyph name="equal" format="2">
  <advance width="718.65"/>
  <unicode hex="003D"/>
  <outline>
    <contour>
      <point x="132.0" y="300.40909090909093" type="line"/>
      <point x="587.0" y="305.40909090909093" type="line"/>
      <point x="587.0" y="383.3636363636364" type="line"/>
      <point x="132.0" y="383.3636363636364" type="line"/>
    </contour>
    <contour>
      <point x="132.0" y="111.5909090909091" type="line"/>
      <point x="587.0" y="113.63636363636364" type="line"/>
      <point x="587.0" y="195.13636363636363" type="line"/>
      <point x="132.0" y="191.5909090909091" type="line"/>
    </contour>
  </outline>
</glyph>
<glyph name="greater" format="2">
  <advance width="527.85"/>
  <unicode hex="003E"/>
  <outline>
    <contour>
      <point x="146.86363636363637" y="-15.409090909090908" type="line"/>
      <point x="447.59090909090907" y="247.4090909090909" type="line"/>
      <point x="148.04545454545453" y="512.5909090909091" type="line"/>
      <point x="90.72727272727273" y="451.77272727272725" type="line"/>
      <point x="365.1363636363636" y="218.4090909090909" type="line"/>
      <point x="365.1363636363636" y="277.59090909090907" type="line"/>
      <point x="90.13636363636364" y="45.40909090909091" type="line"/>
    </contour>
  </outline>
</glyph>
<glyph name="question" format="2">
  <advance width="501.2"/>
  <unicode hex="003F"/>
  <outline>
    <contour>
      <point x="199.5909090909091" y="219.6818181818182" type="line"/>
      <point x="210.0909090909091" y="229.1818181818182" type="line"/>
      <point x="204.5" y="399.77272727272725" type="line"/>
      <point x="170.6818181818182" y="355.90909090909093" type="line"/>
      <point x="336.09090909090907" y="341.6818181818182"/>
      <point x="434.1818181818182" y="429.8181818181818"/>
      <point x="434.1818181818182" y="565.5909090909091" type="curve" smooth="yes"/>
      <point x="434.1818181818182" y="694.0909090909091"/>
      <point x="349.1363636363636" y="767.0"/>
      <point x="223.3181818181818" y="767.0" type="curve" smooth="yes"/>
      <point x="181.0909090909091" y="767.0"/>
      <point x="135.04545454545453" y="759.0"/>
      <point x="85.22727272727273" y="743.5909090909091" type="curve"/>
      <point x="94.4090909090909" y="593.5" type="line"/>
      <point x="156.3181818181818" y="595.5454545454545" type="line"/>
      <point x="154.3181818181818" y="631.5454545454545" type="line" smooth="yes"/>
      <point x="153.3181818181818" y="649.7272727272727"/>
      <point x="163.13636363636363" y="697.6363636363636"/>
      <point x="167.36363636363637" y="731.7272727272727" type="curve"/>
      <point x="99.31818181818181" y="680.0" type="line"/>
      <point x="136.5" y="695.4090909090909"/>
      <point x="170.9090909090909" y="703.4090909090909"/>
      <point x="201.5" y="703.4090909090909" type="curve" smooth="yes"/>
      <point x="282.3181818181818" y="703.4090909090909"/>
      <point x="326.1818181818182" y="648.4090909090909"/>
      <point x="326.1818181818182" y="561.0" type="curve" smooth="yes"/>
      <point x="326.1818181818182" y="479.09090909090907"/>
      <point x="284.77272727272725" y="416.1818181818182"/>
      <point x="198.4090909090909" y="416.1818181818182" type="curve" smooth="yes"/>
      <point x="186.0" y="416.1818181818182"/>
      <point x="160.54545454545453" y="417.77272727272725"/>
      <point x="144.72727272727272" y="419.77272727272725" type="curve"/>
      <point x="116.68181818181819" y="392.27272727272725" type="line"/>
      <point x="116.68181818181819" y="223.0909090909091" type="line"/>
    </contour>
    <contour>
      <point x="156.0909090909091" y="-12.045454545454545" type="curve" smooth="yes"/>
      <point x="197.5909090909091" y="-12.045454545454545"/>
      <point x="220.63636363636363" y="17.0"/>
      <point x="220.63636363636363" y="58.09090909090909" type="curve" smooth="yes"/>
      <point x="220.63636363636363" y="100.4090909090909"/>
      <point x="196.77272727272728" y="128.04545454545456"/>
      <point x="156.0909090909091" y="128.04545454545456" type="curve" smooth="yes"/>
      <point x="114.5909090909091" y="128.04545454545456"/>
      <point x="92.13636363636364" y="99.18181818181819"/>
      <point x="92.13636363636364" y="58.09090909090909" type="curve" smooth="yes"/>
      <point x="92.13636363636364" y="15.227272727272727"/>
      <point x="115.18181818181819" y="-12.045454545454545"/>
    </contour>
  </outline>
</glyph>
<glyph name="at" format="2">
  <advance width="1047.75"/>
  <unicode hex="0040"/>
  <outline>
    <contour>
      <point x="537.2272727272727" y="-213.0" type="curve" smooth="yes"/>
      <point x="576.8636363636364" y="-213.0"/>
      <point x="676.6818181818181" y="-168.9090909090909"/>
      <point x="745.3181818181819" y="-137.04545454545453" type="curve"/>
      <point x="729.3181818181819" y="-103.18181818181819" type="line"/>
      <point x="665.0909090909091" y="-119.5909090909091"/>
      <point x="568.3181818181819" y="-144.0"/>
      <point x="537.2272727272727" y="-144.0" type="curve" smooth="yes"/>
      <point x="292.8636363636364" y="-144.0"/>
      <point x="201.8181818181818" y="15.318181818181818"/>
      <point x="201.8181818181818" y="232.0" type="curve" smooth="yes"/>
      <point x="201.8181818181818" y="359.6363636363636"/>
      <point x="247.86363636363637" y="611.0"/>
      <point x="532.2272727272727" y="611.0" type="curve" smooth="yes"/>
      <point x="737.4090909090909" y="611.0"/>
      <point x="861.0" y="478.6818181818182"/>
      <point x="861.0" y="287.0" type="curve" smooth="yes"/>
      <point x="861.0" y="195.0909090909091"/>
      <point x="828.2272727272727" y="74.0"/>
      <point x="737.5454545454545" y="53.0" type="curve"/>
      <point x="683.9090909090909" y="0.0" type="line"/>
      <point x="859.0454545454545" y="14.0"/>
      <point x="954.1363636363636" y="155.9090909090909"/>
      <point x="954.1363636363636" y="287.0" type="curve" smooth="yes"/>
      <point x="954.1363636363636" y="527.0"/>
      <point x="787.8181818181819" y="667.0"/>
      <point x="532.2272727272727" y="667.0" type="curve" smooth="yes"/>
      <point x="216.4090909090909" y="667.0"/>
      <point x="100.31818181818181" y="447.0"/>
      <point x="100.31818181818181" y="232.0" type="curve" smooth="yes"/>
      <point x="100.31818181818181" y="25.0"/>
      <point x="192.5909090909091" y="-213.0"/>
    </contour>
    <contour>
      <point x="483.0" y="-10.0" type="curve" smooth="yes"/>
      <point x="557.8636363636364" y="-10.0"/>
      <point x="625.1818181818181" y="35.31818181818182"/>
      <point x="647.3181818181819" y="106.0" type="curve"/>
      <point x="628.1818181818181" y="122.0" type="line"/>
      <point x="646.7272727272727" y="0.0" type="line"/>
      <point x="683.9090909090909" y="0.0" type="line"/>
      <point x="740.7727272727273" y="35.04545454545455" type="line"/>
      <point x="735.7727272727273" y="62.5"/>
      <point x="725.7727272727273" y="112.5909090909091"/>
      <point x="725.7727272727273" y="175.86363636363637" type="curve" smooth="yes"/>
      <point x="725.7727272727273" y="302.3181818181818" type="line" smooth="yes"/>
      <point x="725.7727272727273" y="441.72727272727275"/>
      <point x="668.8636363636364" y="503.0"/>
      <point x="545.7272727272727" y="503.0" type="curve" smooth="yes"/>
      <point x="491.09090909090907" y="503.0"/>
      <point x="427.40909090909093" y="493.3636363636364"/>
      <point x="367.40909090909093" y="477.77272727272725" type="curve"/>
      <point x="380.04545454545456" y="332.09090909090907" type="line"/>
      <point x="444.40909090909093" y="335.09090909090907" type="line"/>
      <point x="443.40909090909093" y="374.8636363636364" type="line"/>
      <point x="457.8636363636364" y="461.5" type="line"/>
      <point x="419.04545454545456" y="406.8636363636364" type="line"/>
      <point x="444.54545454545456" y="419.59090909090907"/>
      <point x="497.8181818181818" y="436.22727272727275"/>
      <point x="536.7727272727273" y="436.22727272727275" type="curve" smooth="yes"/>
      <point x="596.6818181818181" y="436.22727272727275"/>
      <point x="624.1818181818181" y="398.22727272727275"/>
      <point x="624.1818181818181" y="314.90909090909093" type="curve" smooth="yes"/>
      <point x="624.1818181818181" y="163.5" type="line"/>
      <point x="614.1818181818181" y="107.54545454545455"/>
      <point x="568.2727272727273" y="67.5909090909091"/>
      <point x="512.5909090909091" y="67.5909090909091" type="curve" smooth="yes"/>
      <point x="469.0909090909091" y="67.5909090909091"/>
      <point x="446.1818181818182" y="93.5"/>
      <point x="446.1818181818182" y="140.4090909090909" type="curve" smooth="yes"/>
      <point x="446.1818181818182" y="176.22727272727272"/>
      <point x="466.5" y="198.77272727272728"/>
      <point x="505.27272727272725" y="205.36363636363637" type="curve" smooth="yes"/>
      <point x="638.4090909090909" y="229.8181818181818" type="line"/>
      <point x="638.4090909090909" y="285.3636363636364" type="line"/>
      <point x="470.3636363636364" y="257.59090909090907" type="line" smooth="yes"/>
      <point x="381.1818181818182" y="243.0"/>
      <point x="337.1818181818182" y="197.0"/>
      <point x="337.1818181818182" y="123.13636363636364" type="curve" smooth="yes"/>
      <point x="337.1818181818182" y="41.63636363636363"/>
      <point x="393.1818181818182" y="-10.0"/>
    </contour>
  </outline>
</glyph>
<glyph name="A" format="2">
  <advance width="743.75"/>
  <unicode hex="0041"/>
  <anchor x="359.40909090909093" y="0.0" name="bottom"/>
  <anchor x="694.0909090909091" y="0.0" name="ogonek"/>
  <anchor x="367.72727272727275" y="705.0" name="top"/>
  <outline>
    <contour>
      <point x="48.77272727272727" y="-5.0" type="line"/>
      <point x="93.13636363636364" y="-3.0"/>
      <point x="160.4090909090909" y="0.0"/>
      <point x="185.4090909090909" y="0.0" type="curve" smooth="yes"/>
      <point x="276.54545454545456" y="0.0" type="line"/>
      <point x="281.54545454545456" y="58.72727272727273" type="line"/>
      <point x="167.95454545454547" y="73.31818181818181" type="line"/>
      <point x="210.8181818181818" y="33.81818181818182" type="line"/>
      <point x="212.5909090909091" y="66.36363636363636"/>
      <point x="214.8181818181818" y="96.31818181818181"/>
      <point x="223.4090909090909" y="123.9090909090909" type="curve" smooth="yes"/>
      <point x="369.1363636363636" y="585.2272727272727" type="line"/>
      <point x="341.59090909090907" y="585.2272727272727" type="line"/>
      <point x="482.40909090909093" y="160.6818181818182" type="line" smooth="yes"/>
      <point x="496.54545454545456" y="121.5909090909091"/>
      <point x="502.90909090909093" y="85.31818181818181"/>
      <point x="510.90909090909093" y="27.09090909090909" type="curve"/>
      <point x="549.5454545454545" y="79.31818181818181" type="line"/>
      <point x="434.54545454545456" y="49.36363636363637" type="line"/>
      <point x="438.3636363636364" y="-5.0" type="line"/>
      <point x="490.6818181818182" y="-3.0"/>
      <point x="572.8181818181819" y="0.0"/>
      <point x="597.8181818181819" y="0.0" type="curve" smooth="yes"/>
      <point x="694.0909090909091" y="0.0" type="line"/>
      <point x="699.0909090909091" y="58.72727272727273" type="line"/>
      <point x="591.4545454545455" y="76.95454545454545" type="line"/>
      <point x="649.0" y="43.77272727272727" type="line"/>
      <point x="634.8181818181819" y="73.72727272727273"/>
      <point x="615.2272727272727" y="108.68181818181819"/>
      <point x="604.0454545454545" y="143.63636363636363" type="curve" smooth="yes"/>
      <point x="399.5" y="715.4090909090909" type="line"/>
      <point x="326.5" y="705.0" type="line"/>
      <point x="145.8181818181818" y="160.4090909090909" type="line" smooth="yes"/>
      <point x="130.5909090909091" y="115.77272727272727"/>
      <point x="110.27272727272727" y="77.9090909090909"/>
      <point x="86.04545454545455" y="34.59090909090909" type="curve"/>
      <point x="146.9090909090909" y="74.31818181818181" type="line"/>
      <point x="44.36363636363637" y="49.36363636363637" type="line"/>
    </contour>
    <contour>
      <point x="224.86363636363637" y="211.5" type="line"/>
      <point x="497.6363636363636" y="211.5" type="line"/>
      <point x="497.6363636363636" y="273.1363636363636" type="line"/>
      <point x="224.86363636363637" y="273.1363636363636" type="line"/>
    </contour>
  </outline>
</glyph>
<glyph name="B" format="2">
  <advance width="643.1999999999999"/>
  <unicode hex="0042"/>
  <anchor x="322.54545454545456" y="0.0" name="bottom"/>
  <anchor x="322.54545454545456" y="705.0" name="top"/>
  <outline>
    <contour>
      <point x="60.18181818181818" y="-5.0" type="line"/>
      <point x="104.13636363636364" y="-3.0"/>
      <point x="172.86363636363637" y="0.0"/>
      <point x="199.0909090909091" y="0.0" type="curve" smooth="yes"/>
      <point x="249.0909090909091" y="0.0"/>
      <point x="316.90909090909093" y="-4.409090909090909"/>
      <point x="366.90909090909093" y="-4.409090909090909" type="curve" smooth="yes"/>
      <point x="484.8181818181818" y="-4.409090909090909"/>
      <point x="579.7727272727273" y="65.9090909090909"/>
      <point x="579.7727272727273" y="185.04545454545453" type="curve" smooth="yes"/>
      <point x="579.7727272727273" y="298.6818181818182"/>
      <point x="493.90909090909093" y="360.6363636363636"/>
      <point x="377.40909090909093" y="366.8181818181818" type="curve"/>
      <point x="409.77272727272725" y="320.40909090909093" type="line"/>
      <point x="409.77272727272725" y="413.40909090909093" type="line"/>
      <point x="379.8181818181818" y="365.0" type="line"/>
      <point x="476.5" y="375.1363636363636"/>
      <point x="548.7727272727273" y="444.3636363636364"/>
      <point x="548.7727272727273" y="543.0" type="curve" smooth="yes"/>
      <point x="548.7727272727273" y="648.0"/>
      <point x="457.22727272727275" y="710.0"/>
      <point x="349.90909090909093" y="710.0" type="curve" smooth="yes"/>
      <point x="299.90909090909093" y="710.0"/>
      <point x="228.4090909090909" y="705.0"/>
      <point x="178.4090909090909" y="705.0" type="curve" smooth="yes"/>
      <point x="156.13636363636363" y="705.0"/>
      <point x="98.36363636363636" y="708.0"/>
      <point x="61.77272727272727" y="710.0" type="curve"/>
      <point x="56.77272727272727" y="650.6363636363636" type="line"/>
      <point x="164.1818181818182" y="633.1818181818181" type="line"/>
      <point x="126.27272727272727" y="669.1818181818181" type="line"/>
      <point x="128.63636363636363" y="657.1363636363636"/>
      <point x="139.6818181818182" y="586.5"/>
      <point x="139.6818181818182" y="561.4090909090909" type="curve" smooth="yes"/>
      <point x="139.6818181818182" y="144.0" type="line" smooth="yes"/>
      <point x="139.6818181818182" y="120.36363636363636"/>
      <point x="130.27272727272728" y="53.90909090909091"/>
      <point x="126.27272727272727" y="28.90909090909091" type="curve"/>
      <point x="173.6818181818182" y="73.54545454545455" type="line"/>
      <point x="55.18181818181818" y="50.54545454545455" type="line"/>
    </contour>
    <contour>
      <point x="258.3636363636364" y="30.636363636363637" type="line"/>
      <point x="254.1818181818182" y="52.18181818181818"/>
      <point x="247.36363636363637" y="122.68181818181819"/>
      <point x="247.36363636363637" y="174.0" type="curve" smooth="yes"/>
      <point x="247.36363636363637" y="531.4090909090909" type="line" smooth="yes"/>
      <point x="247.36363636363637" y="583.1818181818181"/>
      <point x="255.54545454545456" y="656.5909090909091"/>
      <point x="257.1363636363636" y="671.5909090909091" type="curve"/>
      <point x="227.5909090909091" y="647.4090909090909" type="line"/>
      <point x="256.59090909090907" y="648.5909090909091"/>
      <point x="293.54545454545456" y="648.5909090909091"/>
      <point x="327.6818181818182" y="648.5909090909091" type="curve" smooth="yes"/>
      <point x="397.6818181818182" y="648.5909090909091"/>
      <point x="442.1818181818182" y="601.0454545454545"/>
      <point x="442.1818181818182" y="528.7272727272727" type="curve" smooth="yes"/>
      <point x="442.1818181818182" y="444.27272727272725"/>
      <point x="386.77272727272725" y="397.5"/>
      <point x="310.04545454545456" y="397.5" type="curve" smooth="yes"/>
      <point x="302.8636363636364" y="397.5" type="line"/>
      <point x="295.8636363636364" y="332.27272727272725" type="line"/>
      <point x="307.04545454545456" y="332.27272727272725" type="line" smooth="yes"/>
      <point x="392.54545454545456" y="332.27272727272725"/>
      <point x="465.1818181818182" y="292.0"/>
      <point x="465.1818181818182" y="194.0909090909091" type="curve" smooth="yes"/>
      <point x="465.1818181818182" y="107.36363636363636"/>
      <point x="411.8181818181818" y="59.77272727272727"/>
      <point x="334.6818181818182" y="59.77272727272727" type="curve" smooth="yes"/>
      <point x="294.3181818181818" y="59.77272727272727"/>
      <point x="256.6363636363636" y="63.77272727272727"/>
      <point x="229.5909090909091" y="67.0" type="curve"/>
    </contour>
  </outline>
</glyph>
<glyph name="C" format="2">
  <advance width="684.6999999999999"/>
  <unicode hex="0043"/>
  <anchor x="385.59090909090907" y="0.0" name="bottom"/>
  <anchor x="385.59090909090907" y="720.0" name="top"/>
  <outline>
    <contour>
      <point x="395.1818181818182" y="-15.0" type="curve" smooth="yes"/>
      <point x="477.0" y="-15.0"/>
      <point x="550.2272727272727" y="3.0"/>
      <point x="614.0454545454545" y="19.0" type="curve"/>
      <point x="607.2272727272727" y="175.36363636363637" type="line"/>
      <point x="543.9090909090909" y="173.36363636363637" type="line"/>
      <point x="541.5" y="126.36363636363636" type="line" smooth="yes"/>
      <point x="540.5" y="112.36363636363636"/>
      <point x="526.2272727272727" y="69.0909090909091"/>
      <point x="514.8181818181819" y="40.5" type="curve"/>
      <point x="555.5" y="81.04545454545455" type="line"/>
      <point x="502.8636363636364" y="63.22727272727273"/>
      <point x="443.8181818181818" y="51.86363636363637"/>
      <point x="394.1818181818182" y="51.86363636363637" type="curve" smooth="yes"/>
      <point x="256.72727272727275" y="51.86363636363637"/>
      <point x="192.9090909090909" y="185.54545454545453"/>
      <point x="192.9090909090909" y="353.0" type="curve" smooth="yes"/>
      <point x="192.9090909090909" y="521.0454545454545"/>
      <point x="257.1363636363636" y="653.1363636363636"/>
      <point x="395.1818181818182" y="653.1363636363636" type="curve" smooth="yes"/>
      <point x="442.6363636363636" y="653.1363636363636"/>
      <point x="498.90909090909093" y="639.7727272727273"/>
      <point x="546.0909090909091" y="623.1818181818181" type="curve"/>
      <point x="507.8181818181818" y="662.3181818181819" type="line"/>
      <point x="515.6363636363636" y="637.0909090909091"/>
      <point x="529.6818181818181" y="597.2727272727273"/>
      <point x="529.6818181818181" y="584.2727272727273" type="curve" smooth="yes"/>
      <point x="530.5" y="533.7727272727273" type="line"/>
      <point x="594.2272727272727" y="529.7727272727273" type="line"/>
      <point x="605.0454545454545" y="686.0" type="line"/>
      <point x="540.4090909090909" y="702.8181818181819"/>
      <point x="478.0" y="720.0"/>
      <point x="395.1818181818182" y="720.0" type="curve" smooth="yes"/>
      <point x="179.8181818181818" y="720.0"/>
      <point x="69.72727272727273" y="570.0"/>
      <point x="69.72727272727273" y="352.0" type="curve" smooth="yes"/>
      <point x="69.72727272727273" y="134.0"/>
      <point x="179.8181818181818" y="-15.0"/>
    </contour>
  </outline>
</glyph>
<glyph name="D" format="2">
  <advance width="767.25"/>
  <unicode hex="0044"/>
  <anchor x="347.09090909090907" y="0.0" name="bottom"/>
  <anchor x="202.5" y="353.0" name="center"/>
  <anchor x="348.5" y="720.0" name="top"/>
  <outline>
    <contour>
      <point x="60.18181818181818" y="-5.0" type="line"/>
      <point x="106.4090909090909" y="-3.0"/>
      <point x="173.04545454545453" y="0.0"/>
      <point x="199.0909090909091" y="0.0" type="curve" smooth="yes"/>
      <point x="249.0909090909091" y="0.0"/>
      <point x="303.54545454545456" y="-4.409090909090909"/>
      <point x="353.54545454545456" y="-4.409090909090909" type="curve" smooth="yes"/>
      <point x="573.2727272727273" y="-4.409090909090909"/>
      <point x="700.4090909090909" y="141.4090909090909"/>
      <point x="700.4090909090909" y="352.0" type="curve" smooth="yes"/>
      <point x="700.4090909090909" y="568.1363636363636"/>
      <point x="578.8181818181819" y="710.0"/>
      <point x="353.54545454545456" y="710.0" type="curve" smooth="yes"/>
      <point x="291.27272727272725" y="710.0"/>
      <point x="238.3181818181818" y="705.0"/>
      <point x="177.8181818181818" y="705.0" type="curve" smooth="yes"/>
      <point x="155.54545454545453" y="705.0"/>
      <point x="98.36363636363636" y="708.0"/>
      <point x="61.77272727272727" y="710.0" type="curve"/>
      <point x="56.77272727272727" y="650.6363636363636" type="line"/>
      <point x="173.6818181818182" y="631.4090909090909" type="line"/>
      <point x="125.68181818181819" y="674.8181818181819" type="line"/>
      <point x="129.0909090909091" y="653.3181818181819"/>
      <point x="139.6818181818182" y="585.2727272727273"/>
      <point x="139.6818181818182" y="561.4090909090909" type="curve" smooth="yes"/>
      <point x="139.6818181818182" y="144.0" type="line" smooth="yes"/>
      <point x="139.6818181818182" y="120.54545454545455"/>
      <point x="129.5" y="55.22727272727273"/>
      <point x="124.68181818181819" y="25.681818181818183" type="curve"/>
      <point x="173.6818181818182" y="73.54545454545455" type="line"/>
      <point x="55.18181818181818" y="50.54545454545455" type="line"/>
    </contour>
    <contour>
      <point x="256.3636363636364" y="35.59090909090909" type="line"/>
      <point x="254.54545454545456" y="55.72727272727273"/>
      <point x="247.36363636363637" y="118.9090909090909"/>
      <point x="247.36363636363637" y="174.0" type="curve" smooth="yes"/>
      <point x="247.36363636363637" y="531.4090909090909" type="line" smooth="yes"/>
      <point x="247.36363636363637" y="580.4090909090909"/>
      <point x="254.36363636363637" y="661.2272727272727"/>
      <point x="257.72727272727275" y="675.1363636363636" type="curve"/>
      <point x="234.8181818181818" y="643.0" type="line"/>
      <point x="256.3636363636364" y="643.0"/>
      <point x="302.04545454545456" y="644.2272727272727"/>
      <point x="350.6363636363636" y="644.2272727272727" type="curve" smooth="yes"/>
      <point x="512.0909090909091" y="644.2272727272727"/>
      <point x="583.5" y="510.5"/>
      <point x="583.5" y="352.8181818181818" type="curve" smooth="yes"/>
      <point x="583.5" y="192.0909090909091"/>
      <point x="512.5" y="60.77272727272727"/>
      <point x="350.22727272727275" y="60.77272727272727" type="curve" smooth="yes"/>
      <point x="301.1818181818182" y="60.77272727272727"/>
      <point x="258.1818181818182" y="63.77272727272727"/>
      <point x="233.0" y="63.77272727272727" type="curve"/>
    </contour>
  </outline>
</glyph>
<glyph name="E" format="2">
  <advance width="635.6"/>
  <unicode hex="0045"/>
  <anchor x="327.3636363636364" y="0.0" name="bottom"/>
  <anchor x="536.5909090909091" y="-4.0" name="ogonek"/>
  <anchor x="309.6363636363636" y="720.0" name="top"/>
  <outline>
    <contour>
      <point x="60.18181818181818" y="-5.0" type="line"/>
      <point x="106.81818181818181" y="-2.0"/>
      <point x="173.04545454545453" y="0.0"/>
      <point x="199.0909090909091" y="0.0" type="curve" smooth="yes"/>
      <point x="422.59090909090907" y="0.0" type="line" smooth="yes"/>
      <point x="444.09090909090907" y="0.0"/>
      <point x="498.59090909090907" y="-2.0"/>
      <point x="536.5909090909091" y="-4.0" type="curve"/>
      <point x="555.5909090909091" y="14.0" type="line"/>
      <point x="570.5909090909091" y="171.5909090909091" type="line"/>
      <point x="511.6818181818182" y="176.5909090909091" type="line"/>
      <point x="497.5" y="111.86363636363636" type="line" smooth="yes"/>
      <point x="494.09090909090907" y="96.63636363636364"/>
      <point x="473.6818181818182" y="65.9090909090909"/>
      <point x="454.77272727272725" y="42.59090909090909" type="curve"/>
      <point x="494.1818181818182" y="77.63636363636364" type="line"/>
      <point x="477.40909090909093" y="73.63636363636364"/>
      <point x="434.22727272727275" y="65.22727272727273"/>
      <point x="392.59090909090907" y="65.22727272727273" type="curve" smooth="yes"/>
      <point x="218.13636363636363" y="65.22727272727273" type="line"/>
      <point x="259.1363636363636" y="26.90909090909091" type="line"/>
      <point x="254.36363636363637" y="54.27272727272727"/>
      <point x="247.36363636363637" y="128.5"/>
      <point x="247.36363636363637" y="174.0" type="curve" smooth="yes"/>
      <point x="247.36363636363637" y="531.4090909090909" type="line" smooth="yes"/>
      <point x="247.36363636363637" y="557.4090909090909"/>
      <point x="252.13636363636363" y="622.4090909090909"/>
      <point x="257.1363636363636" y="668.4090909090909" type="curve"/>
      <point x="211.54545454545453" y="642.4090909090909" type="line"/>
      <point x="380.40909090909093" y="642.4090909090909" type="line" smooth="yes"/>
      <point x="418.04545454545456" y="642.4090909090909"/>
      <point x="461.5" y="638.5909090909091"/>
      <point x="483.54545454545456" y="636.0" type="curve"/>
      <point x="441.54545454545456" y="668.5" type="line"/>
      <point x="456.1363636363636" y="649.3636363636364"/>
      <point x="476.3181818181818" y="614.2272727272727"/>
      <point x="478.3181818181818" y="603.0" type="curve" smooth="yes"/>
      <point x="487.6818181818182" y="550.8636363636364" type="line"/>
      <point x="549.1818181818181" y="555.8636363636364" type="line"/>
      <point x="542.1818181818181" y="692.0" type="line"/>
      <point x="523.1818181818181" y="710.0" type="line"/>
      <point x="485.1818181818182" y="707.0"/>
      <point x="427.1818181818182" y="705.0"/>
      <point x="409.1818181818182" y="705.0" type="curve" smooth="yes"/>
      <point x="178.4090909090909" y="705.0" type="line" smooth="yes"/>
      <point x="156.13636363636363" y="705.0"/>
      <point x="98.36363636363636" y="708.0"/>
      <point x="61.77272727272727" y="710.0" type="curve"/>
      <point x="56.77272727272727" y="650.6363636363636" type="line"/>
      <point x="173.6818181818182" y="631.4090909090909" type="line"/>
      <point x="125.27272727272727" y="677.5" type="line"/>
      <point x="131.6818181818182" y="638.2727272727273"/>
      <point x="139.6818181818182" y="580.6363636363636"/>
      <point x="139.6818181818182" y="561.4090909090909" type="curve" smooth="yes"/>
      <point x="139.6818181818182" y="144.0" type="line" smooth="yes"/>
      <point x="139.6818181818182" y="120.13636363636364"/>
      <point x="128.6818181818182" y="50.54545454545455"/>
      <point x="124.68181818181819" y="28.727272727272727" type="curve"/>
      <point x="173.6818181818182" y="73.54545454545455" type="line"/>
      <point x="55.18181818181818" y="50.54545454545455" type="line"/>
    </contour>
    <contour>
      <point x="419.59090909090907" y="261.09090909090907" type="line"/>
      <point x="471.90909090909093" y="267.09090909090907" type="line"/>
      <point x="469.90909090909093" y="305.1363636363636"/>
      <point x="468.90909090909093" y="342.77272727272725"/>
      <point x="468.90909090909093" y="380.8181818181818" type="curve" smooth="yes"/>
      <point x="468.90909090909093" y="464.8181818181818" type="line"/>
      <point x="419.59090909090907" y="469.8181818181818" type="line"/>
      <point x="405.59090909090907" y="365.22727272727275" type="line"/>
      <point x="437.40909090909093" y="406.04545454545456" type="line"/>
      <point x="421.3636363636364" y="402.40909090909093"/>
      <point x="380.8636363636364" y="395.22727272727275"/>
      <point x="354.90909090909093" y="395.22727272727275" type="curve" smooth="yes"/>
      <point x="212.0" y="395.22727272727275" type="line"/>
      <point x="212.0" y="332.6363636363636" type="line"/>
      <point x="334.90909090909093" y="332.6363636363636" type="line" smooth="yes"/>
      <point x="362.54545454545456" y="332.6363636363636"/>
      <point x="421.6363636363636" y="325.8636363636364"/>
      <point x="446.90909090909093" y="323.27272727272725" type="curve"/>
      <point x="405.59090909090907" y="362.6363636363636" type="line"/>
    </contour>
  </outline>
</glyph>
<glyph name="F" format="2">
  <advance width="602.25"/>
  <unicode hex="0046"/>
  <anchor x="301.8636363636364" y="0.0" name="bottom"/>
  <anchor x="301.8636363636364" y="720.0" name="top"/>
  <outline>
    <contour>
      <point x="60.18181818181818" y="-5.0" type="line"/>
      <point x="110.5909090909091" y="-3.0"/>
      <point x="176.13636363636363" y="0.0"/>
      <point x="199.0909090909091" y="0.0" type="curve" smooth="yes"/>
      <point x="347.3636363636364" y="0.0" type="line"/>
      <point x="354.1363636363636" y="58.72727272727273" type="line"/>
      <point x="212.1818181818182" y="68.72727272727273" type="line"/>
      <point x="260.5909090909091" y="27.09090909090909" type="line"/>
      <point x="255.77272727272728" y="53.63636363636364"/>
      <point x="247.36363636363637" y="121.18181818181819"/>
      <point x="247.36363636363637" y="174.0" type="curve"/>
      <point x="247.36363636363637" y="531.4090909090909" type="line"/>
      <point x="247.36363636363637" y="578.1818181818181"/>
      <point x="256.1363636363636" y="660.5"/>
      <point x="257.1363636363636" y="670.1818181818181" type="curve"/>
      <point x="211.54545454545453" y="642.4090909090909" type="line"/>
      <point x="379.1818181818182" y="642.4090909090909" type="line" smooth="yes"/>
      <point x="417.8636363636364" y="642.4090909090909"/>
      <point x="463.54545454545456" y="636.5909090909091"/>
      <point x="481.09090909090907" y="635.5909090909091" type="curve"/>
      <point x="443.8181818181818" y="660.2727272727273" type="line"/>
      <point x="457.40909090909093" y="642.7727272727273"/>
      <point x="474.6818181818182" y="617.0909090909091"/>
      <point x="477.09090909090907" y="606.0909090909091" type="curve"/>
      <point x="481.5" y="589.8636363636364"/>
      <point x="485.6818181818182" y="567.0454545454545"/>
      <point x="487.6818181818182" y="551.0454545454545" type="curve"/>
      <point x="549.1818181818181" y="556.0454545454545" type="line"/>
      <point x="542.1818181818181" y="692.0" type="line"/>
      <point x="523.1818181818181" y="710.0" type="line"/>
      <point x="498.8181818181818" y="708.5909090909091"/>
      <point x="429.1818181818182" y="705.0"/>
      <point x="409.1818181818182" y="705.0" type="curve" smooth="yes"/>
      <point x="178.4090909090909" y="705.0" type="line" smooth="yes"/>
      <point x="156.13636363636363" y="705.0"/>
      <point x="98.36363636363636" y="708.0"/>
      <point x="61.77272727272727" y="710.0" type="curve"/>
      <point x="56.77272727272727" y="650.6363636363636" type="line"/>
      <point x="173.6818181818182" y="631.4090909090909" type="line"/>
      <point x="125.5" y="671.6818181818181" type="line"/>
      <point x="130.0909090909091" y="644.1818181818181"/>
      <point x="139.6818181818182" y="585.2727272727273"/>
      <point x="139.6818181818182" y="561.4090909090909" type="curve" smooth="yes"/>
      <point x="139.6818181818182" y="144.0" type="line" smooth="yes"/>
      <point x="139.6818181818182" y="120.77272727272728"/>
      <point x="130.5" y="60.63636363636364"/>
      <point x="124.0909090909091" y="24.727272727272727" type="curve"/>
      <point x="173.6818181818182" y="73.54545454545455" type="line"/>
      <point x="55.18181818181818" y="50.54545454545455" type="line"/>
    </contour>
    <contour>
      <point x="419.59090909090907" y="252.27272727272728" type="line"/>
      <point x="471.90909090909093" y="258.27272727272725" type="line"/>
      <point x="470.90909090909093" y="285.72727272727275"/>
      <point x="468.90909090909093" y="336.0"/>
      <point x="468.90909090909093" y="372.0" type="curve" smooth="yes"/>
      <point x="468.90909090909093" y="455.59090909090907" type="line"/>
      <point x="419.59090909090907" y="460.59090909090907" type="line"/>
      <point x="406.59090909090907" y="363.54545454545456" type="line"/>
      <point x="437.77272727272725" y="400.77272727272725" type="line"/>
      <point x="419.1363636363636" y="395.77272727272725"/>
      <point x="379.8181818181818" y="386.40909090909093"/>
      <point x="354.90909090909093" y="386.40909090909093" type="curve" smooth="yes"/>
      <point x="206.36363636363637" y="386.40909090909093" type="line"/>
      <point x="206.36363636363637" y="323.40909090909093" type="line"/>
      <point x="334.90909090909093" y="323.40909090909093" type="line" smooth="yes"/>
      <point x="362.54545454545456" y="323.40909090909093"/>
      <point x="424.1363636363636" y="317.22727272727275"/>
      <point x="445.22727272727275" y="314.6363636363636" type="curve"/>
      <point x="406.59090909090907" y="346.8181818181818" type="line"/>
    </contour>
  </outline>
</glyph>
<glyph name="G" format="2">
  <advance width="732.6999999999999"/>
  <unicode hex="0047"/>
  <anchor x="423.27272727272725" y="0.0" name="bottom"/>
  <anchor x="421.27272727272725" y="720.0" name="top"/>
  <outline>
    <contour>
      <point x="411.1818181818182" y="-15.0" type="curve" smooth="yes"/>
      <point x="498.40909090909093" y="-15.0"/>
      <point x="575.2272727272727" y="3.0"/>
      <point x="643.0454545454545" y="19.0" type="curve"/>
      <point x="643.0454545454545" y="174.22727272727272" type="line" smooth="yes"/>
      <point x="643.0454545454545" y="210.9090909090909"/>
      <point x="648.0454545454545" y="274.59090909090907"/>
      <point x="652.0454545454545" y="324.77272727272725" type="curve"/>
      <point x="630.7727272727273" y="344.22727272727275" type="line"/>
      <point x="602.8636363636364" y="343.22727272727275"/>
      <point x="563.2727272727273" y="341.22727272727275"/>
      <point x="548.6363636363636" y="341.22727272727275" type="curve" smooth="yes"/>
      <point x="437.6363636363636" y="341.22727272727275" type="line"/>
      <point x="432.6363636363636" y="272.72727272727275" type="line"/>
      <point x="581.6363636363636" y="260.90909090909093" type="line"/>
      <point x="536.0" y="299.22727272727275" type="line"/>
      <point x="539.8181818181819" y="276.0"/>
      <point x="548.6363636363636" y="224.86363636363637"/>
      <point x="548.6363636363636" y="196.0" type="curve" smooth="yes"/>
      <point x="548.6363636363636" y="128.0" type="line" smooth="yes"/>
      <point x="548.6363636363636" y="112.18181818181819"/>
      <point x="537.2272727272727" y="65.5909090909091"/>
      <point x="530.2272727272727" y="35.18181818181818" type="curve"/>
      <point x="565.6363636363636" y="75.77272727272728" type="line"/>
      <point x="515.5909090909091" y="61.81818181818182"/>
      <point x="456.0" y="51.86363636363637"/>
      <point x="408.59090909090907" y="51.86363636363637" type="curve" smooth="yes"/>
      <point x="259.54545454545456" y="51.86363636363637"/>
      <point x="190.3181818181818" y="185.54545454545453"/>
      <point x="190.3181818181818" y="353.0" type="curve" smooth="yes"/>
      <point x="190.3181818181818" y="521.0454545454545"/>
      <point x="259.3636363636364" y="653.1363636363636"/>
      <point x="409.0" y="653.1363636363636" type="curve" smooth="yes"/>
      <point x="459.8181818181818" y="653.1363636363636"/>
      <point x="525.5909090909091" y="639.7727272727273"/>
      <point x="572.4090909090909" y="624.1818181818181" type="curve"/>
      <point x="539.5" y="659.8636363636364" type="line"/>
      <point x="548.1363636363636" y="631.3181818181819"/>
      <point x="558.2727272727273" y="595.4090909090909"/>
      <point x="558.2727272727273" y="584.2727272727273" type="curve" smooth="yes"/>
      <point x="559.0909090909091" y="533.7727272727273" type="line"/>
      <point x="622.8181818181819" y="529.7727272727273" type="line"/>
      <point x="633.6363636363636" y="686.0" type="line"/>
      <point x="567.2727272727273" y="702.4090909090909"/>
      <point x="498.1818181818182" y="720.0"/>
      <point x="411.1818181818182" y="720.0" type="curve" smooth="yes"/>
      <point x="184.8181818181818" y="720.0"/>
      <point x="68.72727272727273" y="570.0"/>
      <point x="68.72727272727273" y="352.0" type="curve" smooth="yes"/>
      <point x="68.72727272727273" y="134.0"/>
      <point x="184.8181818181818" y="-15.0"/>
    </contour>
  </outline>
</glyph>
<glyph name="H" format="2">
  <advance width="818.1"/>
  <unicode hex="0048"/>
  <anchor x="406.3636363636364" y="0.0" name="bottom"/>
  <anchor x="406.77272727272725" y="520.0" name="center"/>
  <anchor x="406.3636363636364" y="720.0" name="top"/>
  <outline>
    <contour>
      <point x="484.8636363636364" y="-5.0" type="line"/>
      <point x="541.5" y="-2.0"/>
      <point x="587.7272727272727" y="0.0"/>
      <point x="623.7727272727273" y="0.0" type="curve" smooth="yes"/>
      <point x="756.6818181818181" y="0.0" type="line"/>
      <point x="763.2727272727273" y="58.72727272727273" type="line"/>
      <point x="637.0454545454545" y="69.13636363636364" type="line"/>
      <point x="685.2727272727273" y="26.772727272727273" type="line"/>
      <point x="679.8636363636364" y="53.40909090909091"/>
      <point x="672.6363636363636" y="121.5909090909091"/>
      <point x="672.6363636363636" y="174.0" type="curve" smooth="yes"/>
      <point x="672.6363636363636" y="531.4090909090909" type="line" smooth="yes"/>
      <point x="672.6363636363636" y="583.8181818181819"/>
      <point x="679.2272727272727" y="639.8636363636364"/>
      <point x="683.2727272727273" y="671.8636363636364" type="curve"/>
      <point x="637.0454545454545" y="634.8181818181819" type="line"/>
      <point x="754.3636363636364" y="645.6363636363636" type="line"/>
      <point x="750.3636363636364" y="710.0" type="line"/>
      <point x="691.2727272727273" y="707.0"/>
      <point x="642.1818181818181" y="705.0"/>
      <point x="603.0909090909091" y="705.0" type="curve" smooth="yes"/>
      <point x="580.8181818181819" y="705.0"/>
      <point x="523.6363636363636" y="708.0"/>
      <point x="487.04545454545456" y="710.0" type="curve"/>
      <point x="482.04545454545456" y="650.6363636363636" type="line"/>
      <point x="598.5454545454545" y="631.4090909090909" type="line"/>
      <point x="550.3636363636364" y="671.8636363636364" type="line"/>
      <point x="554.3636363636364" y="650.8181818181819"/>
      <point x="564.3636363636364" y="584.6363636363636"/>
      <point x="564.3636363636364" y="561.4090909090909" type="curve" smooth="yes"/>
      <point x="564.3636363636364" y="144.0" type="line" smooth="yes"/>
      <point x="564.3636363636364" y="119.72727272727273"/>
      <point x="554.7272727272727" y="56.18181818181818"/>
      <point x="549.1363636363636" y="26.772727272727273" type="curve"/>
      <point x="598.5454545454545" y="73.54545454545455" type="line"/>
      <point x="479.8636363636364" y="50.54545454545455" type="line"/>
    </contour>
    <contour>
      <point x="60.18181818181818" y="-5.0" type="line"/>
      <point x="116.81818181818181" y="-2.0"/>
      <point x="163.04545454545453" y="0.0"/>
      <point x="199.0909090909091" y="0.0" type="curve" smooth="yes"/>
      <point x="332.40909090909093" y="0.0" type="line"/>
      <point x="338.59090909090907" y="58.72727272727273" type="line"/>
      <point x="212.1818181818182" y="69.13636363636364" type="line"/>
      <point x="260.5909090909091" y="26.772727272727273" type="line"/>
      <point x="255.5909090909091" y="53.18181818181818"/>
      <point x="247.36363636363637" y="120.36363636363636"/>
      <point x="247.36363636363637" y="174.0" type="curve" smooth="yes"/>
      <point x="247.36363636363637" y="531.4090909090909" type="line" smooth="yes"/>
      <point x="247.36363636363637" y="582.5909090909091"/>
      <point x="255.36363636363637" y="647.9090909090909"/>
      <point x="260.0" y="674.3181818181819" type="curve"/>
      <point x="212.1818181818182" y="634.8181818181819" type="line"/>
      <point x="330.09090909090907" y="645.6363636363636" type="line"/>
      <point x="325.6818181818182" y="710.0" type="line"/>
      <point x="266.59090909090907" y="707.0"/>
      <point x="217.5" y="705.0"/>
      <point x="178.4090909090909" y="705.0" type="curve" smooth="yes"/>
      <point x="156.13636363636363" y="705.0"/>
      <point x="98.36363636363636" y="708.0"/>
      <point x="61.77272727272727" y="710.0" type="curve"/>
      <point x="56.77272727272727" y="650.6363636363636" type="line"/>
      <point x="173.6818181818182" y="631.4090909090909" type="line"/>
      <point x="124.86363636363636" y="673.5" type="line"/>
      <point x="130.5" y="647.3636363636364"/>
      <point x="139.6818181818182" y="584.8636363636364"/>
      <point x="139.6818181818182" y="561.4090909090909" type="curve" smooth="yes"/>
      <point x="139.6818181818182" y="144.0" type="line" smooth="yes"/>
      <point x="139.6818181818182" y="119.31818181818181"/>
      <point x="128.6818181818182" y="49.5"/>
      <point x="124.86363636363636" y="26.772727272727273" type="curve"/>
      <point x="173.6818181818182" y="73.54545454545455" type="line"/>
      <point x="55.18181818181818" y="50.54545454545455" type="line"/>
    </contour>
    <contour>
      <point x="192.36363636363637" y="320.40909090909093" type="line"/>
      <point x="619.3636363636364" y="320.40909090909093" type="line"/>
      <point x="619.3636363636364" y="385.6818181818182" type="line"/>
      <point x="192.36363636363637" y="380.6818181818182" type="line"/>
    </contour>
  </outline>
</glyph>
<glyph name="I" format="2">
  <advance width="394.0"/>
  <unicode hex="0049"/>
  <anchor x="199.22727272727272" y="0.0" name="bottom"/>
  <anchor x="331.3636363636364" y="0.0" name="ogonek"/>
  <anchor x="193.0909090909091" y="720.0" name="top"/>
  <outline>
    <contour>
      <point x="60.18181818181818" y="-5.0" type="line"/>
      <point x="106.81818181818181" y="-2.0"/>
      <point x="153.04545454545453" y="0.0"/>
      <point x="199.0909090909091" y="0.0" type="curve" smooth="yes"/>
      <point x="332.40909090909093" y="0.0" type="line"/>
      <point x="338.59090909090907" y="58.72727272727273" type="line"/>
      <point x="212.1818181818182" y="69.13636363636364" type="line"/>
      <point x="260.5909090909091" y="26.772727272727273" type="line"/>
      <point x="255.5909090909091" y="53.18181818181818"/>
      <point x="247.36363636363637" y="120.36363636363636"/>
      <point x="247.36363636363637" y="174.0" type="curve" smooth="yes"/>
      <point x="247.36363636363637" y="531.4090909090909" type="line" smooth="yes"/>
      <point x="247.36363636363637" y="582.5909090909091"/>
      <point x="255.36363636363637" y="647.9090909090909"/>
      <point x="260.0" y="674.3181818181819" type="curve"/>
      <point x="212.1818181818182" y="634.8181818181819" type="line"/>
      <point x="330.09090909090907" y="645.6363636363636" type="line"/>
      <point x="325.6818181818182" y="710.0" type="line"/>
      <point x="276.59090909090907" y="707.0"/>
      <point x="227.5" y="705.0"/>
      <point x="178.4090909090909" y="705.0" type="curve" smooth="yes"/>
      <point x="156.13636363636363" y="705.0"/>
      <point x="98.36363636363636" y="708.0"/>
      <point x="61.77272727272727" y="710.0" type="curve"/>
      <point x="56.77272727272727" y="650.6363636363636" type="line"/>
      <point x="173.6818181818182" y="631.4090909090909" type="line"/>
      <point x="124.86363636363636" y="673.5" type="line"/>
      <point x="130.5" y="647.3636363636364"/>
      <point x="139.6818181818182" y="584.8636363636364"/>
      <point x="139.6818181818182" y="561.4090909090909" type="curve" smooth="yes"/>
      <point x="139.6818181818182" y="144.0" type="line" smooth="yes"/>
      <point x="139.6818181818182" y="119.31818181818181"/>
      <point x="128.6818181818182" y="49.5"/>
      <point x="124.86363636363636" y="26.772727272727273" type="curve"/>
      <point x="173.6818181818182" y="73.54545454545455" type="line"/>
      <point x="55.18181818181818" y="50.54545454545455" type="line"/>
    </contour>
  </outline>
</glyph>
<glyph name="J" format="2">
  <advance width="364.09999999999997"/>
  <unicode hex="004A"/>
  <anchor x="182.3181818181818" y="0.0" name="bottom"/>
  <anchor x="182.3181818181818" y="705.0" name="top"/>
  <outline>
    <contour>
      <point x="87.86363636363636" y="-200.0" type="line"/>
      <point x="148.22727272727272" y="-135.54545454545453"/>
      <point x="235.36363636363637" y="-33.09090909090909"/>
      <point x="235.36363636363637" y="-5.045454545454545" type="curve" smooth="yes"/>
      <point x="235.36363636363637" y="531.4090909090909" type="line" smooth="yes"/>
      <point x="235.36363636363637" y="583.4090909090909"/>
      <point x="243.1818181818182" y="646.7727272727273"/>
      <point x="246.5909090909091" y="674.0" type="curve"/>
      <point x="199.77272727272728" y="634.8181818181819" type="line"/>
      <point x="318.09090909090907" y="645.6363636363636" type="line"/>
      <point x="313.6818181818182" y="710.0" type="line"/>
      <point x="300.5" y="709.1818181818181"/>
      <point x="227.86363636363637" y="705.0"/>
      <point x="166.4090909090909" y="705.0" type="curve" smooth="yes"/>
      <point x="144.13636363636363" y="705.0"/>
      <point x="86.36363636363636" y="708.0"/>
      <point x="49.77272727272727" y="710.0" type="curve"/>
      <point x="44.77272727272727" y="650.6363636363636" type="line"/>
      <point x="161.6818181818182" y="631.4090909090909" type="line"/>
      <point x="113.27272727272727" y="674.0" type="line"/>
      <point x="117.0909090909091" y="652.8636363636364"/>
      <point x="127.68181818181819" y="585.2727272727273"/>
      <point x="127.68181818181819" y="561.4090909090909" type="curve" smooth="yes"/>
      <point x="127.68181818181819" y="11.0" type="line" smooth="yes"/>
      <point x="127.68181818181819" y="-4.0"/>
      <point x="82.5" y="-103.95454545454545"/>
      <point x="48.90909090909091" y="-175.72727272727272" type="curve"/>
    </contour>
  </outline>
</glyph>
<glyph name="K" format="2">
  <advance width="756.4"/>
  <unicode hex="004B"/>
  <anchor x="368.3636363636364" y="0.0" name="bottom"/>
  <anchor x="368.3636363636364" y="720.0" name="top"/>
  <outline>
    <contour>
      <point x="435.27272727272725" y="-5.0" type="line"/>
      <point x="483.72727272727275" y="-3.0"/>
      <point x="554.6818181818181" y="0.0"/>
      <point x="579.6363636363636" y="0.0" type="curve" smooth="yes"/>
      <point x="711.6818181818181" y="0.0" type="line"/>
      <point x="718.2727272727273" y="58.72727272727273" type="line"/>
      <point x="611.2272727272727" y="70.54545454545455" type="line"/>
      <point x="689.1363636363636" y="34.59090909090909" type="line"/>
      <point x="670.5454545454545" y="50.18181818181818"/>
      <point x="596.1818181818182" y="113.81818181818181"/>
      <point x="583.0" y="129.0" type="curve" smooth="yes"/>
      <point x="348.8181818181818" y="398.6363636363636" type="line"/>
      <point x="347.72727272727275" y="335.6363636363636" type="line"/>
      <point x="504.8181818181818" y="546.0" type="line" smooth="yes"/>
      <point x="514.8181818181819" y="559.5909090909091"/>
      <point x="590.8636363636364" y="631.2727272727273"/>
      <point x="615.1363636363636" y="652.5454545454545" type="curve"/>
      <point x="556.8181818181819" y="634.8181818181819" type="line"/>
      <point x="671.0909090909091" y="645.6363636363636" type="line"/>
      <point x="666.6818181818181" y="710.0" type="line"/>
      <point x="611.8181818181819" y="707.0"/>
      <point x="565.7727272727273" y="705.0"/>
      <point x="529.5" y="705.0" type="curve" smooth="yes"/>
      <point x="507.8636363636364" y="705.0"/>
      <point x="459.72727272727275" y="707.5909090909091"/>
      <point x="425.8636363636364" y="710.0" type="curve"/>
      <point x="420.8636363636364" y="650.6363636363636" type="line"/>
      <point x="511.6818181818182" y="632.6363636363636" type="line"/>
      <point x="493.04545454545456" y="678.6363636363636" type="line"/>
      <point x="431.3181818181818" y="577.4090909090909" type="line"/>
      <point x="257.3636363636364" y="351.1363636363636" type="line"/>
      <point x="417.40909090909093" y="164.0" type="line" smooth="yes"/>
      <point x="432.59090909090907" y="146.0"/>
      <point x="490.3181818181818" y="53.90909090909091"/>
      <point x="501.90909090909093" y="35.13636363636364" type="curve"/>
      <point x="526.7272727272727" y="72.13636363636364" type="line"/>
      <point x="430.27272727272725" y="50.54545454545455" type="line"/>
    </contour>
    <contour>
      <point x="60.18181818181818" y="-5.0" type="line"/>
      <point x="116.81818181818181" y="-2.0"/>
      <point x="163.04545454545453" y="0.0"/>
      <point x="199.0909090909091" y="0.0" type="curve" smooth="yes"/>
      <point x="332.40909090909093" y="0.0" type="line"/>
      <point x="338.59090909090907" y="58.72727272727273" type="line"/>
      <point x="212.1818181818182" y="69.13636363636364" type="line"/>
      <point x="260.5909090909091" y="26.772727272727273" type="line"/>
      <point x="255.5909090909091" y="53.18181818181818"/>
      <point x="247.36363636363637" y="120.36363636363636"/>
      <point x="247.36363636363637" y="174.0" type="curve" smooth="yes"/>
      <point x="247.36363636363637" y="531.4090909090909" type="line" smooth="yes"/>
      <point x="247.36363636363637" y="582.5909090909091"/>
      <point x="255.36363636363637" y="647.9090909090909"/>
      <point x="260.0" y="674.3181818181819" type="curve"/>
      <point x="212.1818181818182" y="634.8181818181819" type="line"/>
      <point x="330.09090909090907" y="645.6363636363636" type="line"/>
      <point x="325.6818181818182" y="710.0" type="line"/>
      <point x="266.59090909090907" y="707.0"/>
      <point x="217.5" y="705.0"/>
      <point x="178.4090909090909" y="705.0" type="curve" smooth="yes"/>
      <point x="156.13636363636363" y="705.0"/>
      <point x="98.36363636363636" y="708.0"/>
      <point x="61.77272727272727" y="710.0" type="curve"/>
      <point x="56.77272727272727" y="650.6363636363636" type="line"/>
      <point x="173.6818181818182" y="631.4090909090909" type="line"/>
      <point x="124.86363636363636" y="673.5" type="line"/>
      <point x="130.5" y="647.3636363636364"/>
      <point x="139.6818181818182" y="584.8636363636364"/>
      <point x="139.6818181818182" y="561.4090909090909" type="curve" smooth="yes"/>
      <point x="139.6818181818182" y="144.0" type="line" smooth="yes"/>
      <point x="139.6818181818182" y="119.31818181818181"/>
      <point x="128.6818181818182" y="49.5"/>
      <point x="124.86363636363636" y="26.772727272727273" type="curve"/>
      <point x="173.6818181818182" y="73.54545454545455" type="line"/>
      <point x="55.18181818181818" y="50.54545454545455" type="line"/>
    </contour>
  </outline>
</glyph>
<glyph name="L" format="2">
  <advance width="598.5454545454545"/>
  <unicode hex="004C"/>
  <anchor x="297.27272727272725" y="0.0" name="bottom"/>
  <anchor x="196.8181818181818" y="355.0" name="center"/>
  <anchor x="542.3181818181819" y="423.0" name="centerright"/>
  <anchor x="233.77272727272728" y="720.0" name="top"/>
  <anchor x="474.8181818181818" y="494.0" name="topright"/>
  <outline>
    <contour>
      <point x="60.18181818181818" y="-5.0" type="line"/>
      <point x="110.5909090909091" y="-3.0"/>
      <point x="176.13636363636363" y="0.0"/>
      <point x="199.0909090909091" y="0.0" type="curve" smooth="yes"/>
      <point x="396.59090909090907" y="0.0" type="line" smooth="yes"/>
      <point x="413.95454545454544" y="0.0"/>
      <point x="465.8636363636364" y="-2.0"/>
      <point x="510.59090909090907" y="-4.0" type="curve"/>
      <point x="529.5909090909091" y="14.0" type="line"/>
      <point x="544.5909090909091" y="171.5909090909091" type="line"/>
      <point x="485.6818181818182" y="176.5909090909091" type="line"/>
      <point x="471.5" y="111.86363636363636" type="line" smooth="yes"/>
      <point x="468.5" y="98.63636363636364"/>
      <point x="448.90909090909093" y="67.54545454545455"/>
      <point x="428.77272727272725" y="42.59090909090909" type="curve"/>
      <point x="468.1818181818182" y="77.63636363636364" type="line"/>
      <point x="451.40909090909093" y="73.63636363636364"/>
      <point x="408.22727272727275" y="65.22727272727273"/>
      <point x="366.59090909090907" y="65.22727272727273" type="curve" smooth="yes"/>
      <point x="218.13636363636363" y="65.22727272727273" type="line"/>
      <point x="260.5909090909091" y="26.772727272727273" type="line"/>
      <point x="255.5909090909091" y="53.18181818181818"/>
      <point x="247.36363636363637" y="120.36363636363636"/>
      <point x="247.36363636363637" y="174.0" type="curve" smooth="yes"/>
      <point x="247.36363636363637" y="531.4090909090909" type="line" smooth="yes"/>
      <point x="247.36363636363637" y="582.5909090909091"/>
      <point x="255.36363636363637" y="647.9090909090909"/>
      <point x="260.0" y="674.3181818181819" type="curve"/>
      <point x="212.1818181818182" y="634.8181818181819" type="line"/>
      <point x="340.09090909090907" y="645.6363636363636" type="line"/>
      <point x="335.6818181818182" y="710.0" type="line"/>
      <point x="321.04545454545456" y="709.1818181818181"/>
      <point x="243.36363636363637" y="705.0"/>
      <point x="178.4090909090909" y="705.0" type="curve" smooth="yes"/>
      <point x="156.13636363636363" y="705.0"/>
      <point x="98.36363636363636" y="708.0"/>
      <point x="61.77272727272727" y="710.0" type="curve"/>
      <point x="56.77272727272727" y="650.6363636363636" type="line"/>
      <point x="173.6818181818182" y="631.4090909090909" type="line"/>
      <point x="124.86363636363636" y="673.5" type="line"/>
      <point x="130.5" y="647.3636363636364"/>
      <point x="139.6818181818182" y="584.8636363636364"/>
      <point x="139.6818181818182" y="561.4090909090909" type="curve" smooth="yes"/>
      <point x="139.6818181818182" y="144.0" type="line" smooth="yes"/>
      <point x="139.6818181818182" y="119.31818181818181"/>
      <point x="128.6818181818182" y="49.5"/>
      <point x="124.86363636363636" y="26.772727272727273" type="curve"/>
      <point x="173.6818181818182" y="73.54545454545455" type="line"/>
      <point x="55.18181818181818" y="50.54545454545455" type="line"/>
    </contour>
  </outline>
</glyph>
<glyph name="M" format="2">
  <advance width="985.25"/>
  <unicode hex="004D"/>
  <anchor x="492.27272727272725" y="0.0" name="bottom"/>
  <anchor x="492.27272727272725" y="705.0" name="top"/>
  <outline>
    <contour>
      <point x="53.77272727272727" y="-5.0" type="line"/>
      <point x="93.77272727272727" y="-3.0"/>
      <point x="154.77272727272728" y="0.0"/>
      <point x="174.36363636363637" y="0.0" type="curve" smooth="yes"/>
      <point x="294.90909090909093" y="0.0" type="line"/>
      <point x="301.90909090909093" y="58.72727272727273" type="line"/>
      <point x="181.0" y="69.13636363636364" type="line"/>
      <point x="228.0" y="25.681818181818183" type="line"/>
      <point x="224.5909090909091" y="47.63636363636364"/>
      <point x="217.8181818181818" y="136.5"/>
      <point x="219.8181818181818" y="173.5909090909091" type="curve" smooth="yes"/>
      <point x="244.1818181818182" y="609.9090909090909" type="line"/>
      <point x="226.9090909090909" y="607.5" type="line"/>
      <point x="450.27272727272725" y="0.0" type="line"/>
      <point x="501.09090909090907" y="0.0" type="line"/>
      <point x="726.0909090909091" y="607.0909090909091" type="line"/>
      <point x="708.8181818181819" y="609.9090909090909" type="line"/>
      <point x="736.1363636363636" y="143.5909090909091" type="line" smooth="yes"/>
      <point x="737.7272727272727" y="117.54545454545455"/>
      <point x="727.7727272727273" y="45.13636363636364"/>
      <point x="724.7727272727273" y="25.681818181818183" type="curve"/>
      <point x="773.5454545454545" y="73.54545454545455" type="line"/>
      <point x="656.6363636363636" y="50.54545454545455" type="line"/>
      <point x="661.6363636363636" y="-5.0" type="line"/>
      <point x="707.0454545454545" y="-3.0"/>
      <point x="772.2727272727273" y="0.0"/>
      <point x="797.6818181818181" y="0.0" type="curve" smooth="yes"/>
      <point x="929.7727272727273" y="0.0" type="line"/>
      <point x="936.3636363636364" y="58.72727272727273" type="line"/>
      <point x="815.2727272727273" y="69.13636363636364" type="line"/>
      <point x="866.6818181818181" y="25.681818181818183" type="line"/>
      <point x="860.0909090909091" y="54.40909090909091"/>
      <point x="842.5" y="144.36363636363637"/>
      <point x="839.6818181818181" y="173.5909090909091" type="curve" smooth="yes"/>
      <point x="812.3181818181819" y="531.4090909090909" type="line" smooth="yes"/>
      <point x="809.5" y="562.5"/>
      <point x="812.9090909090909" y="621.6363636363636"/>
      <point x="813.9090909090909" y="665.4090909090909" type="curve"/>
      <point x="769.9090909090909" y="634.8181818181819" type="line"/>
      <point x="889.0" y="645.6363636363636" type="line"/>
      <point x="884.5909090909091" y="710.0" type="line"/>
      <point x="841.3181818181819" y="708.0"/>
      <point x="782.8636363636364" y="705.0"/>
      <point x="735.3636363636364" y="705.0" type="curve" smooth="yes"/>
      <point x="691.2272727272727" y="705.0" type="line"/>
      <point x="671.2272727272727" y="685.0" type="line"/>
      <point x="653.8636363636364" y="632.0454545454545"/>
      <point x="627.9090909090909" y="556.5"/>
      <point x="621.3181818181819" y="540.0909090909091" type="curve"/>
      <point x="477.04545454545456" y="146.54545454545453" type="line"/>
      <point x="506.54545454545456" y="146.54545454545453" type="line"/>
      <point x="366.3181818181818" y="530.6363636363636" type="line"/>
      <point x="358.90909090909093" y="550.5"/>
      <point x="333.95454545454544" y="629.8636363636364"/>
      <point x="316.5909090909091" y="684.4090909090909" type="curve"/>
      <point x="297.1818181818182" y="705.0" type="line"/>
      <point x="205.8181818181818" y="705.0" type="line" smooth="yes"/>
      <point x="183.54545454545453" y="705.0"/>
      <point x="126.18181818181819" y="708.0"/>
      <point x="89.5909090909091" y="710.0" type="curve"/>
      <point x="84.5909090909091" y="650.6363636363636" type="line"/>
      <point x="205.04545454545453" y="632.0" type="line"/>
      <point x="159.0909090909091" y="673.1363636363636" type="line"/>
      <point x="162.27272727272728" y="649.5909090909091"/>
      <point x="167.6818181818182" y="586.6818181818181"/>
      <point x="166.27272727272728" y="562.0" type="curve" smooth="yes"/>
      <point x="141.0909090909091" y="143.5909090909091" type="line" smooth="yes"/>
      <point x="139.6818181818182" y="119.31818181818181"/>
      <point x="119.36363636363636" y="46.68181818181819"/>
      <point x="114.31818181818181" y="25.681818181818183" type="curve"/>
      <point x="167.5" y="73.54545454545455" type="line"/>
      <point x="48.77272727272727" y="50.54545454545455" type="line"/>
    </contour>
  </outline>
</glyph>
<glyph name="N" format="2">
  <advance width="813.3000000000001"/>
  <unicode hex="004E"/>
  <anchor x="416.8181818181818" y="0.0" name="bottom"/>
  <anchor x="401.77272727272725" y="720.0" name="top"/>
  <outline>
    <contour>
      <point x="61.36363636363637" y="-5.0" type="line"/>
      <point x="101.36363636363636" y="-3.0"/>
      <point x="162.36363636363637" y="0.0"/>
      <point x="182.54545454545453" y="0.0" type="curve" smooth="yes"/>
      <point x="301.22727272727275" y="0.0" type="line"/>
      <point x="307.8181818181818" y="58.72727272727273" type="line"/>
      <point x="187.72727272727272" y="69.13636363636364" type="line"/>
      <point x="235.13636363636363" y="29.272727272727273" type="line"/>
      <point x="231.13636363636363" y="57.90909090909091"/>
      <point x="223.3181818181818" y="122.4090909090909"/>
      <point x="223.3181818181818" y="174.0" type="curve" smooth="yes"/>
      <point x="223.3181818181818" y="571.4090909090909" type="line"/>
      <point x="198.0" y="563.3636363636364" type="line"/>
      <point x="599.0" y="0.0" type="line"/>
      <point x="678.7727272727273" y="0.0" type="line"/>
      <point x="679.3636363636364" y="531.4090909090909" type="line" smooth="yes"/>
      <point x="679.3636363636364" y="586.4090909090909"/>
      <point x="695.3181818181819" y="650.0909090909091"/>
      <point x="699.5" y="675.3181818181819" type="curve"/>
      <point x="649.9090909090909" y="634.8181818181819" type="line"/>
      <point x="767.8181818181819" y="645.6363636363636" type="line"/>
      <point x="763.8181818181819" y="710.0" type="line"/>
      <point x="728.2727272727273" y="708.0"/>
      <point x="686.8636363636364" y="705.0"/>
      <point x="624.1818181818181" y="705.0" type="curve" smooth="yes"/>
      <point x="603.1363636363636" y="705.0"/>
      <point x="549.4090909090909" y="708.0"/>
      <point x="518.4090909090909" y="710.0" type="curve"/>
      <point x="513.4090909090909" y="650.6363636363636" type="line"/>
      <point x="630.5" y="631.4090909090909" type="line"/>
      <point x="581.0909090909091" y="678.6818181818181" type="line"/>
      <point x="585.5" y="656.8181818181819"/>
      <point x="596.9090909090909" y="584.2727272727273"/>
      <point x="596.9090909090909" y="561.4090909090909" type="curve" smooth="yes"/>
      <point x="596.9090909090909" y="140.86363636363637" type="line"/>
      <point x="622.2272727272727" y="148.9090909090909" type="line"/>
      <point x="345.8181818181818" y="531.8636363636364" type="line" smooth="yes"/>
      <point x="334.22727272727275" y="548.0454545454545"/>
      <point x="284.8636363636364" y="628.8181818181819"/>
      <point x="251.0909090909091" y="685.0" type="curve"/>
      <point x="231.5" y="705.0" type="line"/>
      <point x="174.54545454545453" y="705.0" type="line" smooth="yes"/>
      <point x="152.5" y="705.0"/>
      <point x="96.54545454545455" y="708.0"/>
      <point x="60.18181818181818" y="710.0" type="curve"/>
      <point x="55.18181818181818" y="650.6363636363636" type="line"/>
      <point x="173.86363636363637" y="632.0" type="line"/>
      <point x="126.63636363636364" y="671.3636363636364" type="line"/>
      <point x="128.86363636363637" y="653.9090909090909"/>
      <point x="140.27272727272728" y="583.8636363636364"/>
      <point x="140.27272727272728" y="561.4090909090909" type="curve" smooth="yes"/>
      <point x="140.27272727272728" y="144.0" type="line" smooth="yes"/>
      <point x="140.27272727272728" y="120.13636363636364"/>
      <point x="130.27272727272728" y="56.36363636363637"/>
      <point x="126.27272727272727" y="33.90909090909091" type="curve"/>
      <point x="174.27272727272728" y="73.54545454545455" type="line"/>
      <point x="56.36363636363637" y="50.54545454545455" type="line"/>
    </contour>
  </outline>
</glyph>
<glyph name="O" format="2">
  <advance width="808.85"/>
  <unicode hex="004F"/>
  <anchor x="404.54545454545456" y="0.0" name="bottom"/>
  <anchor x="418.04545454545456" y="353.0" name="center"/>
  <anchor x="515.1818181818181" y="0.0" name="ogonek"/>
  <anchor x="404.1363636363636" y="720.0" name="top"/>
  <anchor x="592.5454545454545" y="630.0" name="topright"/>
  <outline>
    <contour>
      <point x="404.54545454545456" y="-15.0" type="curve" smooth="yes"/>
      <point x="621.1363636363636" y="-15.0"/>
      <point x="739.7727272727273" y="133.77272727272728"/>
      <point x="739.7727272727273" y="352.0" type="curve" smooth="yes"/>
      <point x="739.7727272727273" y="571.2272727272727"/>
      <point x="621.1363636363636" y="720.0"/>
      <point x="404.54545454545456" y="720.0" type="curve" smooth="yes"/>
      <point x="187.54545454545453" y="720.0"/>
      <point x="68.72727272727273" y="571.2272727272727"/>
      <point x="68.72727272727273" y="352.0" type="curve" smooth="yes"/>
      <point x="68.72727272727273" y="133.77272727272728"/>
      <point x="187.54545454545453" y="-15.0"/>
    </contour>
    <contour>
      <point x="404.54545454545456" y="49.72727272727273" type="curve" smooth="yes"/>
      <point x="262.77272727272725" y="49.72727272727273"/>
      <point x="194.6818181818182" y="176.13636363636363"/>
      <point x="194.6818181818182" y="352.0" type="curve" smooth="yes"/>
      <point x="194.6818181818182" y="528.8636363636364"/>
      <point x="262.77272727272725" y="655.2727272727273"/>
      <point x="404.54545454545456" y="655.2727272727273" type="curve" smooth="yes"/>
      <point x="545.7272727272727" y="655.2727272727273"/>
      <point x="613.8181818181819" y="528.8636363636364"/>
      <point x="613.8181818181819" y="352.0" type="curve" smooth="yes"/>
      <point x="613.8181818181819" y="176.13636363636363"/>
      <point x="545.7272727272727" y="49.72727272727273"/>
    </contour>
  </outline>
</glyph>
<glyph name="P" format="2">
  <advance width="637.4"/>
  <unicode hex="0050"/>
  <anchor x="319.3181818181818" y="0.0" name="bottom"/>
  <anchor x="319.3181818181818" y="705.0" name="top"/>
  <outline>
    <contour>
      <point x="60.18181818181818" y="-5.0" type="line"/>
      <point x="106.81818181818181" y="-3.0"/>
      <point x="173.04545454545453" y="0.0"/>
      <point x="199.0909090909091" y="0.0" type="curve" smooth="yes"/>
      <point x="342.40909090909093" y="0.0" type="line"/>
      <point x="349.0" y="58.72727272727273" type="line"/>
      <point x="212.1818181818182" y="69.13636363636364" type="line"/>
      <point x="260.5909090909091" y="26.772727272727273" type="line"/>
      <point x="255.5909090909091" y="53.18181818181818"/>
      <point x="247.36363636363637" y="120.36363636363636"/>
      <point x="247.36363636363637" y="174.0" type="curve" smooth="yes"/>
      <point x="247.36363636363637" y="531.4090909090909" type="line" smooth="yes"/>
      <point x="247.36363636363637" y="582.1818181818181"/>
      <point x="254.72727272727272" y="647.9090909090909"/>
      <point x="258.3636363636364" y="674.3181818181819" type="curve"/>
      <point x="178.4090909090909" y="705.0" type="line"/>
      <point x="156.13636363636363" y="705.0"/>
      <point x="98.36363636363636" y="708.0"/>
      <point x="61.77272727272727" y="710.0" type="curve"/>
      <point x="56.77272727272727" y="650.6363636363636" type="line"/>
      <point x="173.6818181818182" y="631.4090909090909" type="line"/>
      <point x="124.86363636363636" y="673.5" type="line"/>
      <point x="130.5" y="647.3636363636364"/>
      <point x="139.6818181818182" y="584.8636363636364"/>
      <point x="139.6818181818182" y="561.4090909090909" type="curve" smooth="yes"/>
      <point x="139.6818181818182" y="144.0" type="line" smooth="yes"/>
      <point x="139.6818181818182" y="119.31818181818181"/>
      <point x="128.6818181818182" y="49.5"/>
      <point x="124.86363636363636" y="26.772727272727273" type="curve"/>
      <point x="173.6818181818182" y="73.54545454545455" type="line"/>
      <point x="55.18181818181818" y="50.54545454545455" type="line"/>
    </contour>
    <contour>
      <point x="327.90909090909093" y="286.04545454545456" type="curve" smooth="yes"/>
      <point x="463.3636363636364" y="286.04545454545456"/>
      <point x="580.5" y="363.5"/>
      <point x="580.5" y="500.3636363636364" type="curve" smooth="yes"/>
      <point x="580.5" y="637.1363636363636"/>
      <point x="492.40909090909093" y="710.0"/>
      <point x="354.0" y="710.0" type="curve" smooth="yes"/>
      <point x="299.0" y="710.0"/>
      <point x="233.4090909090909" y="705.0"/>
      <point x="178.4090909090909" y="705.0" type="curve"/>
      <point x="178.4090909090909" y="643.5454545454545" type="line"/>
      <point x="216.0909090909091" y="647.1363636363636"/>
      <point x="270.8181818181818" y="651.3636363636364"/>
      <point x="307.6818181818182" y="651.3636363636364" type="curve" smooth="yes"/>
      <point x="408.59090909090907" y="651.3636363636364"/>
      <point x="468.59090909090907" y="599.8636363636364"/>
      <point x="468.59090909090907" y="500.3636363636364" type="curve" smooth="yes"/>
      <point x="468.59090909090907" y="396.6818181818182"/>
      <point x="403.27272727272725" y="344.09090909090907"/>
      <point x="302.77272727272725" y="344.09090909090907" type="curve" smooth="yes"/>
      <point x="257.8181818181818" y="344.09090909090907"/>
      <point x="211.86363636363637" y="349.6363636363636"/>
      <point x="166.9090909090909" y="353.59090909090907" type="curve"/>
      <point x="166.9090909090909" y="289.40909090909093" type="line"/>
      <point x="236.77272727272728" y="287.22727272727275"/>
      <point x="280.90909090909093" y="286.04545454545456"/>
    </contour>
  </outline>
</glyph>
<glyph name="Q" format="2">
  <advance width="808.4499999999999"/>
  <unicode hex="0051"/>
  <anchor x="404.72727272727275" y="0.0" name="bottom"/>
  <anchor x="404.72727272727275" y="705.0" name="top"/>
  <outline>
    <contour>
      <point x="404.1363636363636" y="-15.0" type="curve" smooth="yes"/>
      <point x="620.7272727272727" y="-15.0"/>
      <point x="739.3636363636364" y="133.77272727272728"/>
      <point x="739.3636363636364" y="352.0" type="curve" smooth="yes"/>
      <point x="739.3636363636364" y="571.2272727272727"/>
      <point x="620.7272727272727" y="720.0"/>
      <point x="404.1363636363636" y="720.0" type="curve" smooth="yes"/>
      <point x="187.13636363636363" y="720.0"/>
      <point x="68.31818181818181" y="571.2272727272727"/>
      <point x="68.31818181818181" y="352.0" type="curve" smooth="yes"/>
      <point x="68.31818181818181" y="133.77272727272728"/>
      <point x="187.13636363636363" y="-15.0"/>
    </contour>
    <contour>
      <point x="700.0" y="-224.0" type="line"/>
      <point x="767.2272727272727" y="-123.36363636363636" type="line"/>
      <point x="706.2272727272727" y="-97.77272727272727"/>
      <point x="620.8181818181819" y="-60.18181818181818"/>
      <point x="609.2272727272727" y="-52.59090909090909" type="curve" smooth="yes"/>
      <point x="492.8636363636364" y="26.772727272727273" type="line"/>
      <point x="404.3636363636364" y="8.227272727272727" type="line"/>
    </contour>
    <contour>
      <point x="404.1363636363636" y="49.72727272727273" type="curve" smooth="yes"/>
      <point x="262.3636363636364" y="49.72727272727273"/>
      <point x="194.27272727272728" y="176.13636363636363"/>
      <point x="194.27272727272728" y="352.0" type="curve" smooth="yes"/>
      <point x="194.27272727272728" y="528.8636363636364"/>
      <point x="262.3636363636364" y="655.2727272727273"/>
      <point x="404.1363636363636" y="655.2727272727273" type="curve" smooth="yes"/>
      <point x="545.3181818181819" y="655.2727272727273"/>
      <point x="613.4090909090909" y="528.8636363636364"/>
      <point x="613.4090909090909" y="352.0" type="curve" smooth="yes"/>
      <point x="613.4090909090909" y="176.13636363636363"/>
      <point x="545.3181818181819" y="49.72727272727273"/>
    </contour>
  </outline>
</glyph>
<glyph name="R" format="2">
  <advance width="699.25"/>
  <unicode hex="0052"/>
  <anchor x="351.6818181818182" y="0.0" name="bottom"/>
  <anchor x="322.1818181818182" y="720.0" name="top"/>
  <outline>
    <contour>
      <point x="60.18181818181818" y="-5.0" type="line"/>
      <point x="106.81818181818181" y="-3.0"/>
      <point x="173.04545454545453" y="0.0"/>
      <point x="199.0909090909091" y="0.0" type="curve" smooth="yes"/>
      <point x="329.72727272727275" y="0.0" type="line"/>
      <point x="336.3181818181818" y="58.72727272727273" type="line"/>
      <point x="212.1818181818182" y="69.13636363636364" type="line"/>
      <point x="260.5909090909091" y="26.772727272727273" type="line"/>
      <point x="255.5909090909091" y="53.18181818181818"/>
      <point x="247.36363636363637" y="120.36363636363636"/>
      <point x="247.36363636363637" y="174.0" type="curve" smooth="yes"/>
      <point x="247.36363636363637" y="531.4090909090909" type="line" smooth="yes"/>
      <point x="247.36363636363637" y="582.1818181818181"/>
      <point x="254.72727272727272" y="647.9090909090909"/>
      <point x="258.3636363636364" y="674.3181818181819" type="curve"/>
      <point x="178.4090909090909" y="705.0" type="line"/>
      <point x="156.13636363636363" y="705.0"/>
      <point x="98.36363636363636" y="708.0"/>
      <point x="61.77272727272727" y="710.0" type="curve"/>
      <point x="56.77272727272727" y="650.6363636363636" type="line"/>
      <point x="173.6818181818182" y="631.4090909090909" type="line"/>
      <point x="124.86363636363636" y="673.5" type="line"/>
      <point x="130.5" y="647.3636363636364"/>
      <point x="139.6818181818182" y="584.8636363636364"/>
      <point x="139.6818181818182" y="561.4090909090909" type="curve" smooth="yes"/>
      <point x="139.6818181818182" y="144.0" type="line" smooth="yes"/>
      <point x="139.6818181818182" y="119.31818181818181"/>
      <point x="128.6818181818182" y="49.5"/>
      <point x="124.86363636363636" y="26.772727272727273" type="curve"/>
      <point x="173.6818181818182" y="73.54545454545455" type="line"/>
      <point x="55.18181818181818" y="50.54545454545455" type="line"/>
    </contour>
    <contour>
      <point x="481.1363636363636" y="0.0" type="curve"/>
      <point x="647.1818181818181" y="0.0" type="line"/>
      <point x="653.7727272727273" y="58.72727272727273" type="line"/>
      <point x="588.5454545454545" y="64.9090909090909" type="line"/>
      <point x="574.4090909090909" y="84.63636363636364"/>
      <point x="552.0454545454545" y="116.4090909090909"/>
      <point x="543.0454545454545" y="131.0" type="curve" smooth="yes"/>
      <point x="536.8636363636364" y="140.0"/>
      <point x="472.8181818181818" y="243.0"/>
      <point x="421.04545454545456" y="349.0" type="curve"/>
      <point x="307.0" y="345.0" type="line"/>
      <point x="427.1818181818182" y="116.0" type="line" smooth="yes"/>
      <point x="435.1818181818182" y="100.0"/>
      <point x="463.54545454545456" y="39.0"/>
    </contour>
    <contour>
      <point x="324.22727272727275" y="294.8181818181818" type="curve" smooth="yes"/>
      <point x="459.5" y="294.8181818181818"/>
      <point x="576.2727272727273" y="373.3181818181818"/>
      <point x="576.2727272727273" y="506.77272727272725" type="curve" smooth="yes"/>
      <point x="576.2727272727273" y="638.3181818181819"/>
      <point x="489.1818181818182" y="710.0"/>
      <point x="351.77272727272725" y="710.0" type="curve" smooth="yes"/>
      <point x="296.77272727272725" y="710.0"/>
      <point x="233.4090909090909" y="705.0"/>
      <point x="178.4090909090909" y="705.0" type="curve"/>
      <point x="178.4090909090909" y="641.3636363636364" type="line"/>
      <point x="216.5" y="646.1363636363636"/>
      <point x="277.04545454545456" y="651.3636363636364"/>
      <point x="308.3181818181818" y="651.3636363636364" type="curve" smooth="yes"/>
      <point x="407.8181818181818" y="651.3636363636364"/>
      <point x="464.3636363636364" y="600.0"/>
      <point x="464.3636363636364" y="504.72727272727275" type="curve" smooth="yes"/>
      <point x="464.3636363636364" y="403.6363636363636"/>
      <point x="403.72727272727275" y="353.6818181818182"/>
      <point x="304.22727272727275" y="353.6818181818182" type="curve" smooth="yes"/>
      <point x="257.6363636363636" y="353.6818181818182"/>
      <point x="211.63636363636363" y="359.22727272727275"/>
      <point x="165.04545454545453" y="363.1818181818182" type="curve"/>
      <point x="165.04545454545453" y="301.6818181818182" type="line"/>
      <point x="218.04545454545453" y="297.8636363636364"/>
      <point x="271.6363636363636" y="294.8181818181818"/>
    </contour>
  </outline>
</glyph>
<glyph name="S" format="2">
  <advance width="603.0"/>
  <unicode hex="0053"/>
  <anchor x="287.77272727272725" y="0.0" name="bottom"/>
  <anchor x="312.04545454545456" y="720.0" name="top"/>
  <outline>
    <contour>
      <point x="293.5" y="-15.0" type="curve" smooth="yes"/>
      <point x="428.59090909090907" y="-15.0"/>
      <point x="537.2272727272727" y="54.13636363636364"/>
      <point x="537.2272727272727" y="187.77272727272728" type="curve" smooth="yes"/>
      <point x="537.2272727272727" y="415.59090909090907"/>
      <point x="198.63636363636363" y="400.90909090909093"/>
      <point x="198.63636363636363" y="552.1363636363636" type="curve" smooth="yes"/>
      <point x="198.63636363636363" y="619.3636363636364"/>
      <point x="247.54545454545456" y="655.3181818181819"/>
      <point x="309.1363636363636" y="655.3181818181819" type="curve" smooth="yes"/>
      <point x="362.72727272727275" y="655.3181818181819"/>
      <point x="405.54545454545456" y="641.5"/>
      <point x="455.5909090909091" y="615.5909090909091" type="curve"/>
      <point x="408.3636363636364" y="666.0909090909091" type="line"/>
      <point x="417.8181818181818" y="636.4090909090909"/>
      <point x="431.27272727272725" y="591.1363636363636"/>
      <point x="431.27272727272725" y="578.7727272727273" type="curve" smooth="yes"/>
      <point x="432.09090909090907" y="530.6363636363636" type="line"/>
      <point x="496.22727272727275" y="524.8636363636364" type="line"/>
      <point x="510.22727272727275" y="686.7727272727273" type="line"/>
      <point x="444.1818181818182" y="704.4090909090909"/>
      <point x="368.5" y="720.0"/>
      <point x="303.09090909090907" y="720.0" type="curve" smooth="yes"/>
      <point x="176.0" y="720.0"/>
      <point x="81.36363636363636" y="651.9090909090909"/>
      <point x="81.36363636363636" y="531.5" type="curve" smooth="yes"/>
      <point x="81.36363636363636" y="309.72727272727275"/>
      <point x="416.1818181818182" y="328.6363636363636"/>
      <point x="416.1818181818182" y="168.77272727272728" type="curve" smooth="yes"/>
      <point x="416.1818181818182" y="94.54545454545455"/>
      <point x="365.8181818181818" y="54.68181818181819"/>
      <point x="291.59090909090907" y="54.68181818181819" type="curve" smooth="yes"/>
      <point x="230.9090909090909" y="54.68181818181819"/>
      <point x="177.3181818181818" y="76.5909090909091"/>
      <point x="139.04545454545453" y="94.81818181818181" type="curve"/>
      <point x="177.9090909090909" y="51.77272727272727" type="line"/>
      <point x="174.13636363636363" y="64.5"/>
      <point x="156.13636363636363" y="127.9090909090909"/>
      <point x="156.13636363636363" y="141.5" type="curve" smooth="yes"/>
      <point x="155.72727272727272" y="194.86363636363637" type="line"/>
      <point x="85.0" y="200.86363636363637" type="line"/>
      <point x="70.0" y="36.36363636363637" type="line"/>
      <point x="108.63636363636364" y="14.181818181818182"/>
      <point x="195.0909090909091" y="-15.0"/>
    </contour>
  </outline>
</glyph>
<glyph name="T" format="2">
  <advance width="695.3000000000001"/>
  <unicode hex="0054"/>
  <anchor x="351.04545454545456" y="0.0" name="bottom"/>
  <anchor x="345.5" y="353.0" name="center"/>
  <anchor x="347.6818181818182" y="720.0" name="top"/>
  <outline>
    <contour>
      <point x="201.27272727272728" y="-5.0" type="line"/>
      <point x="252.13636363636363" y="-3.0"/>
      <point x="329.04545454545456" y="0.0"/>
      <point x="352.8636363636364" y="0.0" type="curve" smooth="yes"/>
      <point x="499.04545454545456" y="0.0" type="line"/>
      <point x="505.22727272727275" y="58.72727272727273" type="line"/>
      <point x="366.1363636363636" y="69.13636363636364" type="line"/>
      <point x="414.3636363636364" y="26.772727272727273" type="line"/>
      <point x="409.54545454545456" y="54.40909090909091"/>
      <point x="401.72727272727275" y="121.18181818181819"/>
      <point x="401.72727272727275" y="174.0" type="curve" smooth="yes"/>
      <point x="401.72727272727275" y="531.4090909090909" type="line" smooth="yes"/>
      <point x="401.72727272727275" y="585.0454545454545"/>
      <point x="409.72727272727275" y="647.9090909090909"/>
      <point x="413.77272727272725" y="674.3181818181819" type="curve"/>
      <point x="279.22727272727275" y="673.5" type="line"/>
      <point x="283.8636363636364" y="648.5909090909091"/>
      <point x="294.04545454545456" y="584.8636363636364"/>
      <point x="294.04545454545456" y="561.4090909090909" type="curve" smooth="yes"/>
      <point x="294.04545454545456" y="144.0" type="line" smooth="yes"/>
      <point x="294.04545454545456" y="120.13636363636364"/>
      <point x="283.04545454545456" y="50.31818181818182"/>
      <point x="279.22727272727275" y="26.772727272727273" type="curve"/>
      <point x="327.6363636363636" y="73.54545454545455" type="line"/>
      <point x="196.27272727272728" y="50.54545454545455" type="line"/>
    </contour>
    <contour>
      <point x="117.04545454545455" y="518.6818181818181" type="line"/>
      <point x="119.04545454545455" y="542.4090909090909"/>
      <point x="125.63636363636364" y="585.4090909090909"/>
      <point x="129.63636363636363" y="600.8181818181819" type="curve"/>
      <point x="161.1818181818182" y="677.8181818181819" type="line"/>
      <point x="113.86363636363636" y="636.0" type="line"/>
      <point x="130.77272727272728" y="637.0"/>
      <point x="186.04545454545453" y="642.4090909090909"/>
      <point x="225.77272727272728" y="642.4090909090909" type="curve" smooth="yes"/>
      <point x="470.6363636363636" y="642.4090909090909" type="line" smooth="yes"/>
      <point x="510.77272727272725" y="642.4090909090909"/>
      <point x="562.3636363636364" y="638.0"/>
      <point x="582.3636363636364" y="636.0" type="curve"/>
      <point x="532.3636363636364" y="677.4090909090909" type="line"/>
      <point x="566.3636363636364" y="600.8181818181819" type="line"/>
      <point x="570.1363636363636" y="585.8181818181819"/>
      <point x="576.7272727272727" y="542.4090909090909"/>
      <point x="578.7272727272727" y="518.6818181818181" type="curve"/>
      <point x="639.8181818181819" y="523.6818181818181" type="line"/>
      <point x="632.4090909090909" y="692.0" type="line"/>
      <point x="613.4090909090909" y="710.0" type="line"/>
      <point x="578.5" y="708.0"/>
      <point x="516.5909090909091" y="705.0"/>
      <point x="499.0" y="705.0" type="curve" smooth="yes"/>
      <point x="195.77272727272728" y="705.0" type="line" smooth="yes"/>
      <point x="177.77272727272728" y="705.0"/>
      <point x="119.77272727272727" y="708.0"/>
      <point x="81.77272727272727" y="710.0" type="curve"/>
      <point x="62.36363636363637" y="692.0" type="line"/>
      <point x="55.36363636363637" y="523.6818181818181" type="line"/>
    </contour>
  </outline>
</glyph>
<glyph name="U" format="2">
  <advance width="790.65"/>
  <unicode hex="0055"/>
  <anchor x="399.8181818181818" y="0.0" name="bottom"/>
  <anchor x="631.9090909090909" y="460.0" name="horn"/>
  <anchor x="496.77272727272725" y="0.0" name="ogonek"/>
  <anchor x="399.54545454545456" y="720.0" name="top"/>
  <outline>
    <contour>
      <point x="394.6818181818182" y="-15.0" type="curve" smooth="yes"/>
      <point x="570.8181818181819" y="-15.0"/>
      <point x="661.9090909090909" y="95.81818181818181"/>
      <point x="661.9090909090909" y="266.8181818181818" type="curve" smooth="yes"/>
      <point x="661.9090909090909" y="527.6363636363636" type="line" smooth="yes"/>
      <point x="661.9090909090909" y="579.2272727272727"/>
      <point x="669.9090909090909" y="649.5909090909091"/>
      <point x="674.3636363636364" y="680.3636363636364" type="curve"/>
      <point x="626.7272727272727" y="634.8181818181819" type="line"/>
      <point x="745.2272727272727" y="645.6363636363636" type="line"/>
      <point x="740.8181818181819" y="710.0" type="line"/>
      <point x="703.4090909090909" y="708.0"/>
      <point x="654.0454545454545" y="705.0"/>
      <point x="601.4090909090909" y="705.0" type="curve" smooth="yes"/>
      <point x="579.3636363636364" y="705.0"/>
      <point x="530.1363636363636" y="708.0"/>
      <point x="494.77272727272725" y="710.0" type="curve"/>
      <point x="489.77272727272725" y="650.6363636363636" type="line"/>
      <point x="609.6363636363636" y="631.4090909090909" type="line"/>
      <point x="557.8636363636364" y="680.3636363636364" type="line"/>
      <point x="561.6818181818181" y="658.3636363636364"/>
      <point x="573.8636363636364" y="581.5"/>
      <point x="573.8636363636364" y="557.6363636363636" type="curve" smooth="yes"/>
      <point x="573.8636363636364" y="264.3636363636364" type="line" smooth="yes"/>
      <point x="573.8636363636364" y="145.54545454545453"/>
      <point x="521.8181818181819" y="62.18181818181819"/>
      <point x="406.1363636363636" y="62.18181818181819" type="curve" smooth="yes"/>
      <point x="296.09090909090907" y="62.18181818181819"/>
      <point x="241.13636363636363" y="147.63636363636363"/>
      <point x="241.13636363636363" y="264.3636363636364" type="curve" smooth="yes"/>
      <point x="241.13636363636363" y="527.6363636363636" type="line" smooth="yes"/>
      <point x="241.13636363636363" y="578.8181818181819"/>
      <point x="247.9090909090909" y="646.5"/>
      <point x="252.36363636363637" y="680.3636363636364" type="curve"/>
      <point x="205.13636363636363" y="634.8181818181819" type="line"/>
      <point x="324.04545454545456" y="645.6363636363636" type="line"/>
      <point x="319.6363636363636" y="710.0" type="line"/>
      <point x="291.3181818181818" y="708.4090909090909"/>
      <point x="218.36363636363637" y="705.0"/>
      <point x="166.4090909090909" y="705.0" type="curve" smooth="yes"/>
      <point x="144.13636363636363" y="705.0"/>
      <point x="86.36363636363636" y="708.0"/>
      <point x="49.77272727272727" y="710.0" type="curve"/>
      <point x="44.77272727272727" y="650.6363636363636" type="line"/>
      <point x="163.04545454545453" y="632.0" type="line"/>
      <point x="113.86363636363636" y="680.3636363636364" type="line"/>
      <point x="118.04545454545455" y="654.5909090909091"/>
      <point x="129.04545454545453" y="582.3181818181819"/>
      <point x="129.04545454545453" y="557.6363636363636" type="curve" smooth="yes"/>
      <point x="129.04545454545453" y="266.8181818181818" type="line" smooth="yes"/>
      <point x="129.04545454545453" y="95.81818181818181"/>
      <point x="218.72727272727272" y="-15.0"/>
    </contour>
  </outline>
</glyph>
<glyph name="V" format="2">
  <advance width="767.75"/>
  <unicode hex="0056"/>
  <anchor x="384.3181818181818" y="0.0" name="bottom"/>
  <anchor x="384.3181818181818" y="720.0" name="top"/>
  <outline>
    <contour>
      <point x="355.59090909090907" y="0.0" type="line"/>
      <point x="430.59090909090907" y="0.0" type="line"/>
      <point x="620.1818181818181" y="536.5454545454545" type="line" smooth="yes"/>
      <point x="640.7272727272727" y="593.1818181818181"/>
      <point x="673.0454545454545" y="646.2727272727273"/>
      <point x="685.2727272727273" y="666.5" type="curve"/>
      <point x="625.6363636363636" y="634.6363636363636" type="line"/>
      <point x="722.0909090909091" y="645.6363636363636" type="line"/>
      <point x="717.6818181818181" y="710.0" type="line"/>
      <point x="670.9090909090909" y="707.0"/>
      <point x="620.2272727272727" y="705.0"/>
      <point x="576.3636363636364" y="705.0" type="curve" smooth="yes"/>
      <point x="558.0454545454545" y="705.0"/>
      <point x="515.8636363636364" y="707.4090909090909"/>
      <point x="477.90909090909093" y="710.0" type="curve"/>
      <point x="472.90909090909093" y="650.6363636363636" type="line"/>
      <point x="591.5909090909091" y="630.2272727272727" type="line"/>
      <point x="559.2727272727273" y="669.2272727272727" type="line"/>
      <point x="557.8636363636364" y="647.8181818181819"/>
      <point x="551.5454545454545" y="594.5"/>
      <point x="542.3636363636364" y="568.7272727272727" type="curve" smooth="yes"/>
      <point x="389.1818181818182" y="123.04545454545455" type="line"/>
      <point x="418.09090909090907" y="123.04545454545455" type="line"/>
      <point x="269.8181818181818" y="527.6363636363636" type="line" smooth="yes"/>
      <point x="253.5" y="570.6818181818181"/>
      <point x="237.4090909090909" y="640.5"/>
      <point x="234.8181818181818" y="668.1363636363636" type="curve"/>
      <point x="197.22727272727272" y="631.2727272727273" type="line"/>
      <point x="321.90909090909093" y="645.6363636363636" type="line"/>
      <point x="317.5" y="710.0" type="line"/>
      <point x="265.77272727272725" y="707.0"/>
      <point x="211.13636363636363" y="705.0"/>
      <point x="162.9090909090909" y="705.0" type="curve" smooth="yes"/>
      <point x="140.86363636363637" y="705.0"/>
      <point x="85.72727272727273" y="707.5909090909091"/>
      <point x="49.77272727272727" y="710.0" type="curve"/>
      <point x="44.77272727272727" y="650.6363636363636" type="line"/>
      <point x="146.77272727272728" y="626.8181818181819" type="line"/>
      <point x="88.36363636363636" y="662.5" type="line"/>
      <point x="98.5909090909091" y="646.6818181818181"/>
      <point x="128.54545454545453" y="597.0454545454545"/>
      <point x="144.9090909090909" y="554.1363636363636" type="curve" smooth="yes"/>
    </contour>
  </outline>
</glyph>
<glyph name="W" format="2">
  <advance width="1093.25"/>
  <unicode hex="0057"/>
  <anchor x="546.6818181818181" y="0.0" name="bottom"/>
  <anchor x="546.6818181818181" y="705.0" name="top"/>
  <outline>
    <contour>
      <point x="321.8181818181818" y="0.0" type="line"/>
      <point x="397.22727272727275" y="0.0" type="line"/>
      <point x="556.3636363636364" y="525.7727272727273" type="line"/>
      <point x="531.6363636363636" y="525.7727272727273" type="line"/>
      <point x="701.0" y="0.0" type="line"/>
      <point x="776.4090909090909" y="0.0" type="line"/>
      <point x="940.0" y="536.5454545454545" type="line"/>
      <point x="954.5909090909091" y="583.3181818181819"/>
      <point x="989.0454545454545" y="643.7272727272727"/>
      <point x="1007.0909090909091" y="670.9090909090909" type="curve"/>
      <point x="944.2272727272727" y="634.6363636363636" type="line"/>
      <point x="1047.590909090909" y="645.6363636363636" type="line"/>
      <point x="1043.590909090909" y="710.0" type="line"/>
      <point x="1007.0" y="708.0"/>
      <point x="947.3181818181819" y="705.0"/>
      <point x="901.8636363636364" y="705.0" type="curve" smooth="yes"/>
      <point x="880.8181818181819" y="705.0"/>
      <point x="841.8636363636364" y="707.4090909090909"/>
      <point x="806.9090909090909" y="710.0" type="curve"/>
      <point x="801.9090909090909" y="650.6363636363636" type="line"/>
      <point x="918.2272727272727" y="629.0454545454545" type="line"/>
      <point x="877.8636363636364" y="667.8181818181819" type="line"/>
      <point x="878.6818181818181" y="649.3181818181819"/>
      <point x="871.3636363636364" y="600.4090909090909"/>
      <point x="863.0" y="569.1363636363636" type="curve"/>
      <point x="737.4090909090909" y="122.04545454545455" type="line"/>
      <point x="761.5" y="122.04545454545455" type="line"/>
      <point x="590.1363636363636" y="682.7272727272727" type="line"/>
      <point x="521.0909090909091" y="682.7272727272727" type="line"/>
      <point x="358.22727272727275" y="122.04545454545455" type="line"/>
      <point x="381.3181818181818" y="122.04545454545455" type="line"/>
      <point x="265.1818181818182" y="527.6363636363636" type="line"/>
      <point x="250.04545454545456" y="582.0454545454545"/>
      <point x="238.5909090909091" y="635.4090909090909"/>
      <point x="236.0" y="665.8181818181819" type="curve"/>
      <point x="197.22727272727272" y="631.2727272727273" type="line"/>
      <point x="318.40909090909093" y="645.6363636363636" type="line"/>
      <point x="314.0" y="710.0" type="line"/>
      <point x="273.3181818181818" y="708.0"/>
      <point x="209.9090909090909" y="705.0"/>
      <point x="163.3181818181818" y="705.0" type="curve" smooth="yes"/>
      <point x="141.27272727272728" y="705.0"/>
      <point x="85.72727272727273" y="708.0"/>
      <point x="49.77272727272727" y="710.0" type="curve"/>
      <point x="44.77272727272727" y="650.6363636363636" type="line"/>
      <point x="146.54545454545453" y="627.2272727272727" type="line"/>
      <point x="86.13636363636364" y="669.4090909090909" type="line"/>
      <point x="106.0" y="630.5909090909091"/>
      <point x="126.5909090909091" y="596.2272727272727"/>
      <point x="141.5" y="552.5" type="curve"/>
    </contour>
  </outline>
</glyph>
<glyph name="X" format="2">
  <advance width="795.65"/>
  <unicode hex="0058"/>
  <anchor x="398.0" y="0.0" name="bottom"/>
  <anchor x="398.0" y="705.0" name="top"/>
  <outline>
    <contour>
      <point x="57.0" y="-5.0" type="line"/>
      <point x="104.5909090909091" y="-3.0"/>
      <point x="172.77272727272728" y="0.0"/>
      <point x="200.36363636363637" y="0.0" type="curve" smooth="yes"/>
      <point x="299.22727272727275" y="0.0" type="line"/>
      <point x="304.22727272727275" y="58.72727272727273" type="line"/>
      <point x="195.22727272727272" y="72.9090909090909" type="line"/>
      <point x="227.1818181818182" y="43.36363636363637" type="line"/>
      <point x="237.36363636363637" y="66.18181818181819"/>
      <point x="258.8181818181818" y="112.0"/>
      <point x="272.0" y="132.0" type="curve" smooth="yes"/>
      <point x="401.27272727272725" y="324.40909090909093" type="line"/>
      <point x="353.04545454545456" y="324.40909090909093" type="line"/>
      <point x="481.5" y="142.0" type="line" smooth="yes"/>
      <point x="499.09090909090907" y="117.4090909090909"/>
      <point x="525.3181818181819" y="65.9090909090909"/>
      <point x="534.9090909090909" y="42.18181818181818" type="curve"/>
      <point x="566.8636363636364" y="74.68181818181819" type="line"/>
      <point x="465.8636363636364" y="49.36363636363637" type="line"/>
      <point x="470.27272727272725" y="-5.0" type="line"/>
      <point x="524.1363636363636" y="-3.0"/>
      <point x="597.4090909090909" y="0.0"/>
      <point x="630.6818181818181" y="0.0" type="curve" smooth="yes"/>
      <point x="739.4090909090909" y="0.0" type="line"/>
      <point x="744.4090909090909" y="58.72727272727273" type="line"/>
      <point x="632.4090909090909" y="74.54545454545455" type="line"/>
      <point x="694.7272727272727" y="47.36363636363637" type="line"/>
      <point x="668.5909090909091" y="72.0909090909091"/>
      <point x="631.3636363636364" y="112.72727272727273"/>
      <point x="617.5" y="132.0" type="curve" smooth="yes"/>
      <point x="422.54545454545456" y="406.22727272727275" type="line"/>
      <point x="423.3636363636364" y="333.90909090909093" type="line"/>
      <point x="575.6363636363636" y="568.5909090909091" type="line" smooth="yes"/>
      <point x="585.6363636363636" y="584.1818181818181"/>
      <point x="652.4090909090909" y="641.5909090909091"/>
      <point x="676.9090909090909" y="661.6818181818181" type="curve"/>
      <point x="606.6818181818181" y="634.2272727272727" type="line"/>
      <point x="718.0454545454545" y="645.6363636363636" type="line"/>
      <point x="713.6363636363636" y="710.0" type="line"/>
      <point x="662.8636363636364" y="708.0"/>
      <point x="601.6818181818181" y="705.0"/>
      <point x="561.5" y="705.0" type="curve" smooth="yes"/>
      <point x="539.8636363636364" y="705.0"/>
      <point x="494.5" y="708.0"/>
      <point x="461.09090909090907" y="710.0" type="curve"/>
      <point x="456.09090909090907" y="650.6363636363636" type="line"/>
      <point x="565.0" y="629.0454545454545" type="line"/>
      <point x="535.5" y="665.9090909090909" type="line"/>
      <point x="522.0454545454545" y="636.3636363636364"/>
      <point x="502.8636363636364" y="598.4090909090909"/>
      <point x="490.8636363636364" y="578.0" type="curve" smooth="yes"/>
      <point x="378.77272727272725" y="397.59090909090907" type="line"/>
      <point x="426.1818181818182" y="398.1818181818182" type="line"/>
      <point x="316.3636363636364" y="555.0" type="line" smooth="yes"/>
      <point x="299.54545454545456" y="579.8181818181819"/>
      <point x="274.09090909090907" y="638.7727272727273"/>
      <point x="268.72727272727275" y="655.4090909090909" type="curve"/>
      <point x="232.36363636363637" y="631.2727272727273" type="line"/>
      <point x="345.5" y="645.6363636363636" type="line"/>
      <point x="341.09090909090907" y="710.0" type="line"/>
      <point x="289.6363636363636" y="708.0"/>
      <point x="228.5909090909091" y="705.0"/>
      <point x="187.13636363636363" y="705.0" type="curve" smooth="yes"/>
      <point x="163.63636363636363" y="705.0"/>
      <point x="108.72727272727273" y="708.0"/>
      <point x="70.5" y="710.0" type="curve"/>
      <point x="65.5" y="650.6363636363636" type="line"/>
      <point x="171.4090909090909" y="627.8636363636364" type="line"/>
      <point x="114.04545454545455" y="653.8181818181819" type="line"/>
      <point x="127.72727272727272" y="636.7272727272727"/>
      <point x="170.3181818181818" y="583.4090909090909"/>
      <point x="187.72727272727272" y="558.0" type="curve" smooth="yes"/>
      <point x="358.09090909090907" y="316.54545454545456" type="line"/>
      <point x="358.09090909090907" y="387.6818181818182" type="line"/>
      <point x="203.8181818181818" y="164.0" type="line" smooth="yes"/>
      <point x="183.8181818181818" y="135.0"/>
      <point x="114.0909090909091" y="66.27272727272727"/>
      <point x="100.22727272727272" y="51.40909090909091" type="curve"/>
      <point x="155.3181818181818" y="73.9090909090909" type="line"/>
      <point x="52.59090909090909" y="49.36363636363637" type="line"/>
    </contour>
  </outline>
</glyph>
<glyph name="Y" format="2">
  <advance width="746.3000000000001"/>
  <unicode hex="0059"/>
  <anchor x="370.0" y="0.0" name="bottom"/>
  <anchor x="378.1818181818182" y="720.0" name="top"/>
  <outline>
    <contour>
      <point x="336.04545454545456" y="229.8181818181818" type="line"/>
      <point x="411.04545454545456" y="229.8181818181818" type="line"/>
      <point x="573.3636363636364" y="544.5909090909091" type="line" smooth="yes"/>
      <point x="604.0909090909091" y="602.8636363636364"/>
      <point x="642.5454545454545" y="646.8181818181819"/>
      <point x="656.5909090909091" y="661.6363636363636" type="curve"/>
      <point x="591.0909090909091" y="634.2272727272727" type="line"/>
      <point x="700.8181818181819" y="645.6363636363636" type="line"/>
      <point x="696.4090909090909" y="710.0" type="line"/>
      <point x="666.7272727272727" y="708.5909090909091"/>
      <point x="604.5909090909091" y="705.0"/>
      <point x="552.4090909090909" y="705.0" type="curve" smooth="yes"/>
      <point x="530.7727272727273" y="705.0"/>
      <point x="490.72727272727275" y="708.0"/>
      <point x="458.5" y="710.0" type="curve"/>
      <point x="453.5" y="650.6363636363636" type="line"/>
      <point x="561.8181818181819" y="629.0454545454545" type="line"/>
      <point x="534.6363636363636" y="673.3636363636364" type="line"/>
      <point x="531.2272727272727" y="656.7727272727273"/>
      <point x="512.5909090909091" y="608.5909090909091"/>
      <point x="499.6363636363636" y="581.0909090909091" type="curve" smooth="yes"/>
      <point x="366.59090909090907" y="311.8181818181818" type="line"/>
      <point x="405.3636363636364" y="312.40909090909093" type="line"/>
      <point x="284.04545454545456" y="544.3181818181819" type="line" smooth="yes"/>
      <point x="252.27272727272728" y="602.5454545454545"/>
      <point x="243.0909090909091" y="644.7727272727273"/>
      <point x="241.86363636363637" y="664.7272727272727" type="curve"/>
      <point x="206.9090909090909" y="631.2727272727273" type="line"/>
      <point x="320.04545454545456" y="645.6363636363636" type="line"/>
      <point x="315.6363636363636" y="710.0" type="line"/>
      <point x="283.09090909090907" y="708.5909090909091"/>
      <point x="220.86363636363637" y="705.0"/>
      <point x="166.4090909090909" y="705.0" type="curve" smooth="yes"/>
      <point x="142.9090909090909" y="705.0"/>
      <point x="88.0" y="708.0"/>
      <point x="49.77272727272727" y="710.0" type="curve"/>
      <point x="44.77272727272727" y="650.6363636363636" type="line"/>
      <point x="150.6818181818182" y="627.8636363636364" type="line"/>
      <point x="92.5909090909091" y="662.0454545454545" type="line"/>
      <point x="105.63636363636364" y="645.1818181818181"/>
      <point x="138.5" y="605.3636363636364"/>
      <point x="161.4090909090909" y="561.3636363636364" type="curve" smooth="yes"/>
    </contour>
    <contour>
      <point x="242.6818181818182" y="-5.0" type="line"/>
      <point x="292.6818181818182" y="-3.0"/>
      <point x="365.3181818181818" y="0.0"/>
      <point x="381.59090909090907" y="0.0" type="curve" smooth="yes"/>
      <point x="514.5" y="0.0" type="line"/>
      <point x="521.0909090909091" y="58.72727272727273" type="line"/>
      <point x="394.27272727272725" y="69.13636363636364" type="line"/>
      <point x="443.0909090909091" y="26.772727272727273" type="line"/>
      <point x="437.6818181818182" y="54.40909090909091"/>
      <point x="429.8636363636364" y="121.18181818181819"/>
      <point x="429.8636363636364" y="174.0" type="curve" smooth="yes"/>
      <point x="429.8636363636364" y="315.6818181818182" type="line"/>
      <point x="322.1818181818182" y="315.6818181818182" type="line"/>
      <point x="322.1818181818182" y="144.0" type="line" smooth="yes"/>
      <point x="322.1818181818182" y="120.13636363636364"/>
      <point x="311.1818181818182" y="50.31818181818182"/>
      <point x="307.3636363636364" y="26.772727272727273" type="curve"/>
      <point x="355.77272727272725" y="73.54545454545455" type="line"/>
      <point x="237.6818181818182" y="50.54545454545455" type="line"/>
    </contour>
  </outline>
</glyph>
<glyph name="Z" format="2">
  <advance width="642.5"/>
  <unicode hex="005A"/>
  <anchor x="322.54545454545456" y="0.0" name="bottom"/>
  <anchor x="322.54545454545456" y="353.0" name="center"/>
  <anchor x="322.54545454545456" y="720.0" name="top"/>
  <outline>
    <contour>
      <point x="544.7272727272727" y="-4.0" type="curve"/>
      <point x="563.7272727272727" y="14.0" type="line"/>
      <point x="578.7272727272727" y="180.77272727272728" type="line"/>
      <point x="520.6363636363636" y="185.77272727272728" type="line"/>
      <point x="517.8181818181819" y="166.6818181818182"/>
      <point x="509.6363636363636" y="124.54545454545455"/>
      <point x="506.04545454545456" y="113.9090909090909" type="curve" smooth="yes"/>
      <point x="501.6818181818182" y="102.9090909090909"/>
      <point x="475.8636363636364" y="57.81818181818182"/>
      <point x="459.09090909090907" y="34.36363636363637" type="curve"/>
      <point x="528.1818181818181" y="81.4090909090909" type="line"/>
      <point x="504.8181818181818" y="77.4090909090909"/>
      <point x="439.5" y="67.22727272727273"/>
      <point x="398.6818181818182" y="67.22727272727273" type="curve" smooth="yes"/>
      <point x="164.8181818181818" y="67.22727272727273" type="line"/>
      <point x="189.4090909090909" y="33.18181818181818" type="line"/>
      <point x="218.1818181818182" y="87.36363636363636"/>
      <point x="257.40909090909093" y="162.3181818181818"/>
      <point x="278.3636363636364" y="196.54545454545453" type="curve" smooth="yes"/>
      <point x="460.5" y="485.77272727272725" type="line" smooth="yes"/>
      <point x="492.6363636363636" y="536.6818181818181"/>
      <point x="532.7272727272727" y="591.8636363636364"/>
      <point x="568.0909090909091" y="642.8181818181819" type="curve"/>
      <point x="560.2727272727273" y="705.0" type="line"/>
      <point x="216.9090909090909" y="705.0" type="line"/>
      <point x="173.54545454545453" y="707.4090909090909"/>
      <point x="142.54545454545453" y="711.0"/>
      <point x="102.5" y="715.0" type="curve"/>
      <point x="83.0909090909091" y="697.0" type="line"/>
      <point x="76.0909090909091" y="523.6818181818181" type="line"/>
      <point x="138.0" y="518.6818181818181" type="line"/>
      <point x="140.0" y="544.0454545454545"/>
      <point x="147.4090909090909" y="589.7272727272727"/>
      <point x="151.4090909090909" y="600.8181818181819" type="curve" smooth="yes"/>
      <point x="185.27272727272728" y="672.3636363636364" type="line"/>
      <point x="137.6818181818182" y="631.7727272727273" type="line"/>
      <point x="152.0" y="632.3636363636364"/>
      <point x="212.0909090909091" y="638.1818181818181"/>
      <point x="251.77272727272728" y="638.1818181818181" type="curve" smooth="yes"/>
      <point x="470.1363636363636" y="638.1818181818181" type="line"/>
      <point x="445.3636363636364" y="673.6818181818181" type="line"/>
      <point x="419.6363636363636" y="623.3636363636364"/>
      <point x="392.6363636363636" y="566.5"/>
      <point x="362.09090909090907" y="518.7727272727273" type="curve" smooth="yes"/>
      <point x="176.4090909090909" y="223.72727272727272" type="line" smooth="yes"/>
      <point x="155.63636363636363" y="189.77272727272728"/>
      <point x="100.22727272727273" y="112.18181818181819"/>
      <point x="64.4090909090909" y="62.77272727272727" type="curve"/>
      <point x="72.22727272727273" y="0.0" type="line"/>
      <point x="430.3181818181818" y="0.0" type="line" smooth="yes"/>
      <point x="464.8181818181818" y="0.0"/>
      <point x="506.72727272727275" y="-2.0"/>
    </contour>
  </outline>
</glyph>
<glyph name="bracketleft" format="2">
  <advance width="434.15000000000003"/>
  <unicode hex="005B"/>
  <outline>
    <contour>
      <point x="345.72727272727275" y="-107.0" type="line"/>
      <point x="348.72727272727275" y="-55.77272727272727" type="line"/>
      <point x="197.0" y="-38.77272727272727" type="line"/>
      <point x="244.04545454545456" y="-88.27272727272727" type="line"/>
      <point x="234.22727272727272" y="-28.227272727272727"/>
      <point x="226.0909090909091" y="40.54545454545455"/>
      <point x="226.0909090909091" y="66.0" type="curve" smooth="yes"/>
      <point x="226.0909090909091" y="656.0" type="line" smooth="yes"/>
      <point x="226.0909090909091" y="681.9090909090909"/>
      <point x="235.27272727272728" y="761.5"/>
      <point x="244.04545454545456" y="811.2727272727273" type="curve"/>
      <point x="197.0" y="760.7727272727273" type="line"/>
      <point x="348.72727272727275" y="778.7727272727273" type="line"/>
      <point x="345.72727272727275" y="829.0" type="line"/>
      <point x="156.4090909090909" y="825.0" type="line"/>
      <point x="135.36363636363637" y="802.5" type="line"/>
      <point x="139.13636363636363" y="736.7272727272727"/>
      <point x="143.5" y="629.7727272727273"/>
      <point x="143.5" y="604.0" type="curve" smooth="yes"/>
      <point x="143.5" y="119.63636363636364" type="line" smooth="yes"/>
      <point x="143.5" y="92.86363636363636"/>
      <point x="139.13636363636363" y="-14.318181818181818"/>
      <point x="135.36363636363637" y="-80.5" type="curve"/>
      <point x="156.4090909090909" y="-103.0" type="line"/>
    </contour>
  </outline>
</glyph>
<glyph name="backslash" format="2">
  <advance width="416.65000000000003"/>
  <unicode hex="005C"/>
  <outline>
    <contour>
      <point x="324.3181818181818" y="-66.18181818181819" type="line"/>
      <point x="399.8181818181818" y="-42.68181818181818" type="line"/>
      <point x="90.27272727272728" y="773.0" type="line"/>
      <point x="16.772727272727273" y="749.5" type="line"/>
    </contour>
  </outline>
</glyph>
<glyph name="bracketright" format="2">
  <advance width="434.15000000000003"/>
  <unicode hex="005D"/>
  <outline>
    <contour>
      <point x="88.36363636363636" y="829.0" type="line"/>
      <point x="85.36363636363636" y="777.7727272727273" type="line"/>
      <point x="237.0909090909091" y="760.7727272727273" type="line"/>
      <point x="190.04545454545453" y="810.2727272727273" type="line"/>
      <point x="199.86363636363637" y="750.2272727272727"/>
      <point x="208.0" y="681.4545454545455"/>
      <point x="208.0" y="656.0" type="curve" smooth="yes"/>
      <point x="208.0" y="66.0" type="line" smooth="yes"/>
      <point x="208.0" y="40.09090909090909"/>
      <point x="198.8181818181818" y="-39.5"/>
      <point x="190.04545454545453" y="-89.27272727272727" type="curve"/>
      <point x="237.0909090909091" y="-38.77272727272727" type="line"/>
      <point x="85.36363636363636" y="-56.77272727272727" type="line"/>
      <point x="88.36363636363636" y="-107.0" type="line"/>
      <point x="277.6818181818182" y="-103.0" type="line"/>
      <point x="298.72727272727275" y="-80.5" type="line"/>
      <point x="294.95454545454544" y="-14.727272727272727"/>
      <point x="290.5909090909091" y="92.22727272727273"/>
      <point x="290.5909090909091" y="118.0" type="curve" smooth="yes"/>
      <point x="290.5909090909091" y="602.3636363636364" type="line" smooth="yes"/>
      <point x="290.5909090909091" y="629.1363636363636"/>
      <point x="294.95454545454544" y="736.3181818181819"/>
      <point x="298.72727272727275" y="802.5" type="curve"/>
      <point x="277.6818181818182" y="825.0" type="line"/>
    </contour>
  </outline>
</glyph>
<glyph name="asciicircum" format="2">
  <advance width="729.6999999999999"/>
  <unicode hex="005E"/>
  <outline>
    <contour>
      <point x="161.77272727272728" y="108.13636363636364" type="line"/>
      <point x="384.3181818181818" y="585.4090909090909" type="line"/>
      <point x="346.5" y="585.4090909090909" type="line"/>
      <point x="569.0454545454545" y="108.13636363636364" type="line"/>
      <point x="647.0909090909091" y="135.22727272727272" type="line"/>
      <point x="365.40909090909093" y="714.4090909090909" type="line"/>
      <point x="82.72727272727273" y="135.22727272727272" type="line"/>
    </contour>
  </outline>
</glyph>
<glyph name="a" format="2">
  <advance width="531.1999999999999"/>
  <unicode hex="0061"/>
  <anchor x="255.5909090909091" y="0.0" name="bottom"/>
  <anchor x="502.3181818181818" y="0.0" name="ogonek"/>
  <anchor x="238.1818181818182" y="494.0" name="top"/>
  <outline>
    <contour>
      <point x="190.63636363636363" y="-10.0" type="curve" smooth="yes"/>
      <point x="276.1363636363636" y="-10.0"/>
      <point x="342.27272727272725" y="47.13636363636363"/>
      <point x="357.90909090909093" y="117.22727272727273" type="curve"/>
      <point x="335.8181818181818" y="122.0" type="line"/>
      <point x="353.77272727272725" y="0.0" type="line"/>
      <point x="502.90909090909093" y="0.0" type="line"/>
      <point x="508.90909090909093" y="59.77272727272727" type="line"/>
      <point x="400.6818181818182" y="71.18181818181819" type="line"/>
      <point x="448.40909090909093" y="35.04545454545455" type="line"/>
      <point x="443.40909090909093" y="62.5"/>
      <point x="433.40909090909093" y="112.5909090909091"/>
      <point x="433.40909090909093" y="175.86363636363637" type="curve" smooth="yes"/>
      <point x="433.40909090909093" y="304.1818181818182" type="line" smooth="yes"/>
      <point x="433.40909090909093" y="443.59090909090907"/>
      <point x="376.5" y="504.8636363636364"/>
      <point x="252.77272727272728" y="504.8636363636364" type="curve" smooth="yes"/>
      <point x="198.72727272727272" y="504.8636363636364"/>
      <point x="131.54545454545453" y="495.22727272727275"/>
      <point x="71.54545454545455" y="480.22727272727275" type="curve"/>
      <point x="83.5909090909091" y="332.5" type="line"/>
      <point x="148.54545454545453" y="335.5" type="line"/>
      <point x="147.54545454545453" y="377.3181818181818" type="line"/>
      <point x="162.0" y="463.3636363636364" type="line"/>
      <point x="126.0909090909091" y="409.3181818181818" type="line"/>
      <point x="148.0909090909091" y="422.04545454545456"/>
      <point x="204.86363636363637" y="438.09090909090907"/>
      <point x="244.4090909090909" y="438.09090909090907" type="curve" smooth="yes"/>
      <point x="304.3181818181818" y="438.09090909090907"/>
      <point x="331.8181818181818" y="400.09090909090907"/>
      <point x="331.8181818181818" y="316.77272727272725" type="curve" smooth="yes"/>
      <point x="331.8181818181818" y="163.5" type="line"/>
      <point x="321.8181818181818" y="107.54545454545455"/>
      <point x="275.90909090909093" y="67.5909090909091"/>
      <point x="220.22727272727272" y="67.5909090909091" type="curve" smooth="yes"/>
      <point x="176.72727272727272" y="67.5909090909091"/>
      <point x="153.8181818181818" y="93.5"/>
      <point x="153.8181818181818" y="140.4090909090909" type="curve" smooth="yes"/>
      <point x="153.8181818181818" y="175.4090909090909"/>
      <point x="173.3181818181818" y="198.77272727272728"/>
      <point x="212.9090909090909" y="205.36363636363637" type="curve"/>
      <point x="346.04545454545456" y="229.8181818181818" type="line"/>
      <point x="346.04545454545456" y="285.3636363636364" type="line"/>
      <point x="178.0" y="257.59090909090907" type="line" smooth="yes"/>
      <point x="87.18181818181819" y="242.5909090909091"/>
      <point x="44.81818181818182" y="193.77272727272728"/>
      <point x="44.81818181818182" y="123.13636363636364" type="curve" smooth="yes"/>
      <point x="44.81818181818182" y="41.63636363636363"/>
      <point x="100.81818181818181" y="-10.0"/>
    </contour>
  </outline>
</glyph>
<glyph name="b" format="2">
  <advance width="560.9090909090909"/>
  <unicode hex="0062"/>
  <anchor x="280.45454545454544" y="0.0" name="bottom"/>
  <anchor x="280.45454545454544" y="756.0" name="top"/>
  <outline>
    <contour>
      <point x="277.90909090909093" y="-10.0" type="curve" smooth="yes"/>
      <point x="428.3181818181818" y="-10.0"/>
      <point x="515.3181818181819" y="105.18181818181819"/>
      <point x="515.3181818181819" y="256.40909090909093" type="curve" smooth="yes"/>
      <point x="515.3181818181819" y="395.22727272727275"/>
      <point x="455.04545454545456" y="504.8636363636364"/>
      <point x="320.0" y="504.8636363636364" type="curve" smooth="yes"/>
      <point x="239.95454545454547" y="504.8636363636364"/>
      <point x="192.5909090909091" y="457.72727272727275"/>
      <point x="164.8181818181818" y="407.72727272727275" type="curve"/>
      <point x="179.77272727272728" y="383.59090909090907" type="line"/>
      <point x="179.77272727272728" y="575.3181818181819" type="line" smooth="yes"/>
      <point x="179.77272727272728" y="612.3181818181819"/>
      <point x="184.5909090909091" y="689.2727272727273"/>
      <point x="188.0" y="737.5909090909091" type="curve"/>
      <point x="168.1818181818182" y="756.0" type="line"/>
      <point x="99.68181818181819" y="756.0" type="line"/>
      <point x="-0.7727272727272727" y="759.8181818181819" type="line"/>
      <point x="-7.409090909090909" y="701.6363636363636" type="line"/>
      <point x="113.22727272727273" y="674.7727272727273" type="line"/>
      <point x="63.77272727272727" y="711.5" type="line"/>
      <point x="69.0" y="681.7272727272727"/>
      <point x="78.18181818181819" y="626.5"/>
      <point x="78.18181818181819" y="605.3181818181819" type="curve" smooth="yes"/>
      <point x="78.18181818181819" y="145.86363636363637" type="line" smooth="yes"/>
      <point x="78.18181818181819" y="130.86363636363637"/>
      <point x="73.36363636363636" y="68.9090909090909"/>
      <point x="69.95454545454545" y="26.0" type="curve"/>
      <point x="133.04545454545456" y="5.090909090909091"/>
      <point x="202.0909090909091" y="-10.0"/>
    </contour>
    <contour>
      <point x="188.6818181818182" y="46.40909090909091" type="line"/>
      <point x="185.54545454545456" y="64.36363636363636"/>
      <point x="180.5909090909091" y="125.77272727272728"/>
      <point x="180.5909090909091" y="175.86363636363637" type="curve" smooth="yes"/>
      <point x="180.5909090909091" y="271.3181818181818" type="line" smooth="yes"/>
      <point x="180.5909090909091" y="350.0"/>
      <point x="215.22727272727272" y="426.1363636363636"/>
      <point x="291.40909090909093" y="426.1363636363636" type="curve" smooth="yes"/>
      <point x="379.0" y="426.1363636363636"/>
      <point x="400.04545454545456" y="340.8636363636364"/>
      <point x="400.04545454545456" y="250.5" type="curve" smooth="yes"/>
      <point x="400.04545454545456" y="147.5"/>
      <point x="371.04545454545456" y="59.59090909090909"/>
      <point x="270.04545454545456" y="59.59090909090909" type="curve" smooth="yes"/>
      <point x="229.54545454545456" y="59.59090909090909"/>
      <point x="190.54545454545456" y="70.27272727272728"/>
      <point x="159.13636363636363" y="80.27272727272728" type="curve"/>
    </contour>
  </outline>
</glyph>
<glyph name="c" format="2">
  <advance width="494.84999999999997"/>
  <unicode hex="0063"/>
  <anchor x="269.72727272727275" y="0.0" name="bottom"/>
  <anchor x="281.8636363636364" y="494.0" name="top"/>
  <outline>
    <contour>
      <point x="281.77272727272725" y="-12.045454545454545" type="curve" smooth="yes"/>
      <point x="342.8181818181818" y="-12.045454545454545"/>
      <point x="401.1363636363636" y="8.045454545454545"/>
      <point x="455.09090909090907" y="48.31818181818182" type="curve"/>
      <point x="424.8181818181818" y="99.22727272727273" type="line"/>
      <point x="380.5" y="76.63636363636364"/>
      <point x="338.77272727272725" y="64.27272727272728"/>
      <point x="293.04545454545456" y="64.27272727272728" type="curve" smooth="yes"/>
      <point x="200.04545454545456" y="64.27272727272728"/>
      <point x="162.4090909090909" y="142.9090909090909"/>
      <point x="162.4090909090909" y="246.8181818181818" type="curve" smooth="yes"/>
      <point x="162.4090909090909" y="355.27272727272725"/>
      <point x="197.13636363636363" y="440.6363636363636"/>
      <point x="284.0" y="440.6363636363636" type="curve" smooth="yes"/>
      <point x="322.27272727272725" y="440.6363636363636"/>
      <point x="359.72727272727275" y="420.54545454545456"/>
      <point x="392.8636363636364" y="399.5" type="curve"/>
      <point x="350.40909090909093" y="445.40909090909093" type="line"/>
      <point x="359.04545454545456" y="421.3636363636364"/>
      <point x="365.1818181818182" y="393.1818181818182"/>
      <point x="366.0" y="376.22727272727275" type="curve" smooth="yes"/>
      <point x="365.59090909090907" y="334.04545454545456" type="line"/>
      <point x="432.8636363636364" y="331.04545454545456" type="line"/>
      <point x="444.90909090909093" y="473.77272727272725" type="line"/>
      <point x="385.3181818181818" y="491.09090909090907"/>
      <point x="340.3181818181818" y="504.8636363636364"/>
      <point x="280.90909090909093" y="504.8636363636364" type="curve" smooth="yes"/>
      <point x="128.3181818181818" y="504.8636363636364"/>
      <point x="45.36363636363637" y="402.90909090909093"/>
      <point x="45.36363636363637" y="246.8181818181818" type="curve" smooth="yes"/>
      <point x="45.36363636363637" y="87.63636363636364"/>
      <point x="125.27272727272727" y="-12.045454545454545"/>
    </contour>
  </outline>
</glyph>
<glyph name="d" format="2">
  <advance width="580.75"/>
  <unicode hex="0064"/>
  <anchor x="293.72727272727275" y="0.0" name="bottom"/>
  <anchor x="403.8181818181818" y="599.7727272727273" name="center"/>
  <anchor x="343.77272727272725" y="756.0" name="top"/>
  <anchor x="585.0454545454545" y="494.0" name="topright"/>
  <outline>
    <contour>
      <point x="243.86363636363637" y="-10.0" type="curve" smooth="yes"/>
      <point x="310.8636363636364" y="-10.0"/>
      <point x="384.3181818181818" y="41.0"/>
      <point x="403.59090909090907" y="106.63636363636364" type="curve"/>
      <point x="385.1363636363636" y="123.22727272727273" type="line"/>
      <point x="403.09090909090907" y="0.0" type="line"/>
      <point x="552.2272727272727" y="0.0" type="line"/>
      <point x="558.2272727272727" y="59.77272727272727" type="line"/>
      <point x="447.04545454545456" y="71.18181818181819" type="line"/>
      <point x="497.90909090909093" y="32.31818181818182" type="line"/>
      <point x="492.90909090909093" y="59.22727272727273"/>
      <point x="482.72727272727275" y="116.72727272727273"/>
      <point x="482.72727272727275" y="175.27272727272728" type="curve" smooth="yes"/>
      <point x="482.72727272727275" y="575.9090909090909" type="line" smooth="yes"/>
      <point x="482.72727272727275" y="612.3181818181819"/>
      <point x="486.95454545454544" y="689.2727272727273"/>
      <point x="490.3636363636364" y="737.5909090909091" type="curve"/>
      <point x="471.1363636363636" y="756.0" type="line"/>
      <point x="402.04545454545456" y="756.0" type="line"/>
      <point x="293.90909090909093" y="759.8181818181819" type="line"/>
      <point x="287.27272727272725" y="701.6363636363636" type="line"/>
      <point x="415.0" y="676.5454545454545" type="line"/>
      <point x="365.54545454545456" y="715.2727272727273" type="line"/>
      <point x="369.1363636363636" y="698.8636363636364"/>
      <point x="381.1363636363636" y="633.5454545454545"/>
      <point x="381.1363636363636" y="605.9090909090909" type="curve" smooth="yes"/>
      <point x="381.1363636363636" y="215.27272727272728" type="line"/>
      <point x="379.09090909090907" y="122.77272727272728"/>
      <point x="337.27272727272725" y="70.5"/>
      <point x="267.1363636363636" y="70.5" type="curve" smooth="yes"/>
      <point x="199.6818181818182" y="70.5"/>
      <point x="160.86363636363637" y="135.04545454545456"/>
      <point x="160.86363636363637" y="249.0909090909091" type="curve" smooth="yes"/>
      <point x="160.86363636363637" y="368.77272727272725"/>
      <point x="203.0909090909091" y="432.90909090909093"/>
      <point x="281.40909090909093" y="432.90909090909093" type="curve" smooth="yes"/>
      <point x="318.1818181818182" y="432.90909090909093"/>
      <point x="354.6818181818182" y="422.1818181818182"/>
      <point x="397.59090909090907" y="394.59090909090907" type="curve"/>
      <point x="400.5" y="481.3181818181818" type="line"/>
      <point x="344.22727272727275" y="500.09090909090907"/>
      <point x="311.40909090909093" y="504.8636363636364"/>
      <point x="270.5909090909091" y="504.8636363636364" type="curve" smooth="yes"/>
      <point x="130.6818181818182" y="504.8636363636364"/>
      <point x="46.77272727272727" y="407.27272727272725"/>
      <point x="46.77272727272727" y="245.54545454545453" type="curve" smooth="yes"/>
      <point x="46.77272727272727" y="85.13636363636364"/>
      <point x="120.68181818181819" y="-10.0"/>
    </contour>
  </outline>
</glyph>
<glyph name="e" format="2">
  <advance width="512.9"/>
  <unicode hex="0065"/>
  <anchor x="277.90909090909093" y="0.0" name="bottom"/>
  <anchor x="410.8181818181818" y="17.68181818181818" name="ogonek"/>
  <anchor x="271.3181818181818" y="494.0" name="top"/>
  <outline>
    <contour>
      <point x="280.3181818181818" y="-12.045454545454545" type="curve" smooth="yes"/>
      <point x="382.54545454545456" y="-12.045454545454545"/>
      <point x="446.77272727272725" y="36.772727272727266"/>
      <point x="463.3181818181818" y="51.86363636363637" type="curve"/>
      <point x="433.6363636363636" y="101.5909090909091" type="line"/>
      <point x="407.90909090909093" y="85.22727272727273"/>
      <point x="352.04545454545456" y="63.27272727272727"/>
      <point x="293.1363636363636" y="63.27272727272727" type="curve" smooth="yes"/>
      <point x="201.4090909090909" y="63.27272727272727"/>
      <point x="160.63636363636363" y="146.6818181818182"/>
      <point x="160.63636363636363" y="251.86363636363637" type="curve" smooth="yes"/>
      <point x="160.63636363636363" y="347.54545454545456"/>
      <point x="181.0909090909091" y="444.1818181818182"/>
      <point x="264.72727272727275" y="444.1818181818182" type="curve" smooth="yes"/>
      <point x="326.6363636363636" y="444.1818181818182"/>
      <point x="355.5" y="393.77272727272725"/>
      <point x="355.5" y="321.3181818181818" type="curve" smooth="yes"/>
      <point x="355.5" y="298.8636363636364"/>
      <point x="352.8636363636364" y="279.1818181818182"/>
      <point x="350.8181818181818" y="258.5" type="curve"/>
      <point x="399.59090909090907" y="306.1818181818182" type="line"/>
      <point x="144.13636363636363" y="288.6818181818182" type="line"/>
      <point x="143.72727272727272" y="232.22727272727272" type="line"/>
      <point x="450.1363636363636" y="232.22727272727272" type="line"/>
      <point x="468.1818181818182" y="267.09090909090907" type="line"/>
      <point x="471.27272727272725" y="412.09090909090907"/>
      <point x="411.8181818181818" y="504.8636363636364"/>
      <point x="271.0" y="504.8636363636364" type="curve" smooth="yes"/>
      <point x="125.22727272727273" y="504.8636363636364"/>
      <point x="45.36363636363637" y="401.8181818181818"/>
      <point x="45.36363636363637" y="245.0" type="curve" smooth="yes"/>
      <point x="45.36363636363637" y="90.63636363636364"/>
      <point x="128.5" y="-12.045454545454545"/>
    </contour>
  </outline>
</glyph>
<glyph name="f" format="2">
  <advance width="373.59090909090907"/>
  <unicode hex="0066"/>
  <anchor x="186.5" y="0.0" name="bottom"/>
  <anchor x="186.5" y="756.0" name="top"/>
  <outline>
    <contour>
      <point x="40.45454545454545" y="-5.0" type="line"/>
      <point x="77.45454545454545" y="-3.0"/>
      <point x="133.95454545454547" y="0.0"/>
      <point x="150.45454545454547" y="0.0" type="curve"/>
      <point x="311.1363636363636" y="0.0" type="line"/>
      <point x="316.72727272727275" y="59.77272727272727" type="line"/>
      <point x="177.0" y="70.5909090909091" type="line"/>
      <point x="227.0909090909091" y="29.09090909090909" type="line"/>
      <point x="222.6818181818182" y="56.36363636363637"/>
      <point x="215.63636363636363" y="117.31818181818181"/>
      <point x="215.63636363636363" y="175.86363636363637" type="curve" smooth="yes"/>
      <point x="215.63636363636363" y="460.0" type="line"/>
      <point x="201.4090909090909" y="432.59090909090907" type="line"/>
      <point x="338.90909090909093" y="432.59090909090907" type="line"/>
      <point x="345.54545454545456" y="494.0" type="line"/>
      <point x="201.4090909090909" y="494.0" type="line"/>
      <point x="215.63636363636363" y="480.5" type="line"/>
      <point x="206.5909090909091" y="611.1363636363636"/>
      <point x="196.9090909090909" y="707.3181818181819"/>
      <point x="280.27272727272725" y="707.3181818181819" type="curve" smooth="yes"/>
      <point x="291.6818181818182" y="707.3181818181819"/>
      <point x="322.09090909090907" y="701.5909090909091"/>
      <point x="331.54545454545456" y="701.5909090909091" type="curve"/>
      <point x="287.6363636363636" y="729.0" type="line"/>
      <point x="294.77272727272725" y="702.0454545454545"/>
      <point x="300.90909090909093" y="666.2272727272727"/>
      <point x="300.90909090909093" y="654.7272727272727" type="curve"/>
      <point x="300.09090909090907" y="615.6363636363636" type="line"/>
      <point x="353.40909090909093" y="612.6363636363636" type="line"/>
      <point x="368.09090909090907" y="761.3636363636364" type="line"/>
      <point x="343.1818181818182" y="766.0"/>
      <point x="319.40909090909093" y="770.0"/>
      <point x="291.5" y="770.0" type="curve" smooth="yes"/>
      <point x="178.54545454545453" y="770.0"/>
      <point x="114.04545454545455" y="697.6818181818181"/>
      <point x="114.04545454545455" y="591.2272727272727" type="curve" smooth="yes"/>
      <point x="114.04545454545455" y="472.6818181818182" type="line"/>
      <point x="127.68181818181819" y="496.40909090909093" type="line"/>
      <point x="41.04545454545455" y="483.1818181818182" type="line"/>
      <point x="44.04545454545455" y="432.59090909090907" type="line"/>
      <point x="128.27272727272728" y="432.59090909090907" type="line"/>
      <point x="114.04545454545455" y="452.3636363636364" type="line"/>
      <point x="114.04545454545455" y="145.86363636363637" type="line" smooth="yes"/>
      <point x="114.04545454545455" y="118.81818181818181"/>
      <point x="101.27272727272727" y="49.72727272727273"/>
      <point x="98.04545454545455" y="29.0" type="curve"/>
      <point x="149.3181818181818" y="75.0" type="line"/>
      <point x="35.45454545454545" y="52.0" type="line"/>
    </contour>
  </outline>
</glyph>
<glyph name="g" format="2">
  <advance width="528.15"/>
  <unicode hex="0067"/>
  <anchor x="251.0909090909091" y="494.0" name="top"/>
  <outline>
    <contour>
      <point x="230.77272727272728" y="-235.0" type="curve" smooth="yes"/>
      <point x="374.27272727272725" y="-235.0"/>
      <point x="489.90909090909093" y="-149.0"/>
      <point x="489.90909090909093" y="-42.54545454545455" type="curve" smooth="yes"/>
      <point x="489.90909090909093" y="5.863636363636363"/>
      <point x="473.09090909090907" y="36.27272727272727"/>
      <point x="442.6363636363636" y="46.90909090909091" type="curve" smooth="yes"/>
      <point x="408.77272727272725" y="57.68181818181818"/>
      <point x="337.40909090909093" y="66.04545454545455"/>
      <point x="245.3181818181818" y="76.9090909090909" type="curve" smooth="yes"/>
      <point x="175.27272727272728" y="84.68181818181819"/>
      <point x="155.22727272727272" y="92.31818181818181"/>
      <point x="155.22727272727272" y="113.13636363636364" type="curve" smooth="yes"/>
      <point x="155.22727272727272" y="120.36363636363636"/>
      <point x="165.0" y="138.3181818181818"/>
      <point x="191.54545454545453" y="164.63636363636363" type="curve"/>
      <point x="151.1818181818182" y="178.5" type="line"/>
      <point x="95.22727272727273" y="129.6818181818182"/>
      <point x="68.63636363636364" y="101.04545454545455"/>
      <point x="68.63636363636364" y="85.63636363636364" type="curve" smooth="yes"/>
      <point x="68.63636363636364" y="43.13636363636363"/>
      <point x="87.04545454545455" y="15.227272727272727"/>
      <point x="130.8181818181818" y="0.4090909090909083" type="curve" smooth="yes"/>
      <point x="171.22727272727272" y="-13.227272727272728"/>
      <point x="191.04545454545453" y="-17.045454545454547"/>
      <point x="225.0" y="-22.045454545454547" type="curve" smooth="yes"/>
      <point x="355.0" y="-39.68181818181819" type="line" smooth="yes"/>
      <point x="381.90909090909093" y="-43.27272727272727"/>
      <point x="392.1363636363636" y="-55.09090909090909"/>
      <point x="392.1363636363636" y="-80.77272727272728" type="curve" smooth="yes"/>
      <point x="392.1363636363636" y="-134.54545454545453"/>
      <point x="340.1363636363636" y="-169.77272727272728"/>
      <point x="264.72727272727275" y="-169.77272727272728" type="curve" smooth="yes"/>
      <point x="172.63636363636363" y="-169.77272727272728"/>
      <point x="127.81818181818181" y="-140.0"/>
      <point x="127.81818181818181" y="-77.77272727272727" type="curve" smooth="yes"/>
      <point x="127.81818181818181" y="-58.0"/>
      <point x="137.8181818181818" y="-38.31818181818182"/>
      <point x="174.77272727272728" y="4.318181818181817" type="curve"/>
      <point x="131.63636363636363" y="15.272727272727273" type="line"/>
      <point x="70.5909090909091" y="-25.40909090909091"/>
      <point x="25.545454545454547" y="-69.36363636363636"/>
      <point x="25.545454545454547" y="-90.81818181818181" type="curve" smooth="yes"/>
      <point x="25.545454545454547" y="-185.4090909090909"/>
      <point x="95.4090909090909" y="-235.0"/>
    </contour>
    <contour>
      <point x="245.5" y="142.86363636363637" type="curve" smooth="yes"/>
      <point x="366.22727272727275" y="142.86363636363637"/>
      <point x="446.3181818181818" y="215.27272727272728"/>
      <point x="446.3181818181818" y="324.6818181818182" type="curve" smooth="yes"/>
      <point x="446.3181818181818" y="434.3181818181818"/>
      <point x="365.59090909090907" y="504.8636363636364"/>
      <point x="247.13636363636363" y="504.8636363636364" type="curve" smooth="yes"/>
      <point x="126.4090909090909" y="504.8636363636364"/>
      <point x="46.31818181818182" y="433.04545454545456"/>
      <point x="46.31818181818182" y="323.6363636363636" type="curve" smooth="yes"/>
      <point x="46.31818181818182" y="213.1818181818182"/>
      <point x="128.27272727272728" y="142.86363636363637"/>
    </contour>
    <contour>
      <point x="245.9090909090909" y="199.4090909090909" type="curve" smooth="yes"/>
      <point x="185.8181818181818" y="199.4090909090909"/>
      <point x="155.77272727272728" y="240.13636363636363"/>
      <point x="155.77272727272728" y="322.8181818181818" type="curve" smooth="yes"/>
      <point x="155.77272727272728" y="406.77272727272725"/>
      <point x="186.8181818181818" y="448.90909090909093"/>
      <point x="247.13636363636363" y="448.90909090909093" type="curve" smooth="yes"/>
      <point x="307.22727272727275" y="448.90909090909093"/>
      <point x="336.27272727272725" y="408.1818181818182"/>
      <point x="336.27272727272725" y="325.5" type="curve" smooth="yes"/>
      <point x="336.27272727272725" y="240.36363636363637"/>
      <point x="306.8181818181818" y="199.4090909090909"/>
    </contour>
    <contour>
      <point x="494.6363636363636" y="432.1818181818182" type="line"/>
      <point x="488.27272727272725" y="505.1818181818182" type="line"/>
      <point x="330.09090909090907" y="476.04545454545456" type="line"/>
      <point x="397.8181818181818" y="433.3636363636364" type="line"/>
    </contour>
  </outline>
</glyph>
<glyph name="h" format="2">
  <advance width="620.5454545454545"/>
  <unicode hex="0068"/>
  <anchor x="311.09090909090907" y="0.0" name="bottom"/>
  <anchor x="186.13636363636363" y="599.7727272727273" name="center"/>
  <anchor x="177.13636363636363" y="734.1363636363636" name="top"/>
  <outline>
    <contour>
      <point x="25.59090909090909" y="-5.0" type="line"/>
      <point x="63.81818181818182" y="-3.0"/>
      <point x="123.18181818181819" y="0.0"/>
      <point x="139.6818181818182" y="0.0" type="curve"/>
      <point x="279.77272727272725" y="0.0" type="line"/>
      <point x="285.95454545454544" y="59.77272727272727" type="line"/>
      <point x="166.8181818181818" y="70.5909090909091" type="line"/>
      <point x="216.9090909090909" y="29.09090909090909" type="line"/>
      <point x="212.5" y="56.36363636363637"/>
      <point x="205.45454545454547" y="117.31818181818181"/>
      <point x="205.45454545454547" y="175.86363636363637" type="curve" smooth="yes"/>
      <point x="205.45454545454547" y="270.90909090909093" type="line" smooth="yes"/>
      <point x="206.04545454545456" y="366.22727272727275"/>
      <point x="254.45454545454547" y="428.4090909090909"/>
      <point x="322.77272727272725" y="428.4090909090909" type="curve" smooth="yes"/>
      <point x="396.04545454545456" y="428.4090909090909"/>
      <point x="415.6818181818182" y="361.22727272727275"/>
      <point x="415.6818181818182" y="288.54545454545456" type="curve" smooth="yes"/>
      <point x="415.6818181818182" y="145.86363636363637" type="line" smooth="yes"/>
      <point x="415.6818181818182" y="119.63636363636364"/>
      <point x="408.3181818181818" y="65.22727272727273"/>
      <point x="403.1363636363636" y="38.68181818181818" type="curve"/>
      <point x="452.0" y="76.4090909090909" type="line"/>
      <point x="344.6363636363636" y="52.0" type="line"/>
      <point x="349.6363636363636" y="-5.0" type="line"/>
      <point x="387.3181818181818" y="-3.0"/>
      <point x="442.8181818181818" y="0.0"/>
      <point x="457.8181818181818" y="0.0" type="curve"/>
      <point x="592.7727272727273" y="0.0" type="line"/>
      <point x="598.9545454545455" y="59.77272727272727" type="line"/>
      <point x="479.8181818181818" y="70.5909090909091" type="line"/>
      <point x="529.3181818181819" y="35.40909090909091" type="line"/>
      <point x="525.3181818181819" y="61.81818181818182"/>
      <point x="517.2727272727273" y="119.0909090909091"/>
      <point x="517.2727272727273" y="175.86363636363637" type="curve" smooth="yes"/>
      <point x="517.2727272727273" y="293.0909090909091" type="line" smooth="yes"/>
      <point x="517.2727272727273" y="423.27272727272725"/>
      <point x="475.77272727272725" y="503.0"/>
      <point x="345.5909090909091" y="503.0" type="curve" smooth="yes"/>
      <point x="268.8181818181818" y="503.0"/>
      <point x="218.63636363636363" y="458.04545454545456"/>
      <point x="189.9090909090909" y="405.6818181818182" type="curve"/>
      <point x="205.45454545454547" y="384.40909090909093" type="line"/>
      <point x="205.45454545454547" y="575.3181818181819" type="line" smooth="yes"/>
      <point x="205.45454545454547" y="623.5454545454545"/>
      <point x="209.6818181818182" y="702.2727272727273"/>
      <point x="213.0909090909091" y="737.5909090909091" type="curve"/>
      <point x="193.27272727272728" y="756.0" type="line"/>
      <point x="124.77272727272728" y="756.0" type="line"/>
      <point x="24.318181818181817" y="759.8181818181819" type="line"/>
      <point x="17.68181818181818" y="701.6363636363636" type="line"/>
      <point x="138.3181818181818" y="674.7727272727273" type="line"/>
      <point x="86.63636363636364" y="732.6363636363636" type="line"/>
      <point x="92.04545454545455" y="698.5454545454545"/>
      <point x="103.27272727272727" y="632.3636363636364"/>
      <point x="103.27272727272727" y="605.3181818181819" type="curve" smooth="yes"/>
      <point x="103.27272727272727" y="145.86363636363637" type="line" smooth="yes"/>
      <point x="103.27272727272727" y="118.81818181818181"/>
      <point x="91.0909090909091" y="49.72727272727273"/>
      <point x="87.27272727272727" y="29.0" type="curve"/>
      <point x="139.13636363636363" y="75.0" type="line"/>
      <point x="20.59090909090909" y="52.0" type="line"/>
    </contour>
  </outline>
</glyph>
<glyph name="k" format="2">
  <advance width="618.9545454545455"/>
  <unicode hex="006B"/>
  <anchor x="308.77272727272725" y="0.0" name="bottom"/>
  <anchor x="308.77272727272725" y="756.0" name="top"/>
  <outline>
    <contour>
      <point x="25.59090909090909" y="-5.0" type="line"/>
      <point x="63.81818181818182" y="-3.0"/>
      <point x="123.18181818181819" y="0.0"/>
      <point x="139.6818181818182" y="0.0" type="curve"/>
      <point x="279.77272727272725" y="0.0" type="line"/>
      <point x="285.95454545454544" y="59.77272727272727" type="line"/>
      <point x="166.8181818181818" y="70.5909090909091" type="line"/>
      <point x="216.9090909090909" y="29.09090909090909" type="line"/>
      <point x="212.5" y="56.36363636363637"/>
      <point x="205.45454545454547" y="117.31818181818181"/>
      <point x="205.45454545454547" y="175.86363636363637" type="curve" smooth="yes"/>
      <point x="205.45454545454547" y="575.3181818181819" type="line" smooth="yes"/>
      <point x="205.45454545454547" y="623.5454545454545"/>
      <point x="209.6818181818182" y="702.2727272727273"/>
      <point x="213.0909090909091" y="737.5909090909091" type="curve"/>
      <point x="193.27272727272728" y="756.0" type="line"/>
      <point x="124.77272727272728" y="756.0" type="line"/>
      <point x="24.318181818181817" y="759.8181818181819" type="line"/>
      <point x="17.68181818181818" y="701.6363636363636" type="line"/>
      <point x="138.3181818181818" y="674.7727272727273" type="line"/>
      <point x="86.63636363636364" y="732.6363636363636" type="line"/>
      <point x="92.04545454545455" y="698.5454545454545"/>
      <point x="103.27272727272727" y="632.3636363636364"/>
      <point x="103.27272727272727" y="605.3181818181819" type="curve" smooth="yes"/>
      <point x="103.27272727272727" y="145.86363636363637" type="line" smooth="yes"/>
      <point x="103.27272727272727" y="118.81818181818181"/>
      <point x="91.0909090909091" y="49.72727272727273"/>
      <point x="87.27272727272727" y="29.0" type="curve"/>
      <point x="139.13636363636363" y="75.0" type="line"/>
      <point x="20.59090909090909" y="52.0" type="line"/>
    </contour>
    <contour>
      <point x="348.0" y="-3.5454545454545454" type="line"/>
      <point x="391.6818181818182" y="-1.7727272727272727"/>
      <point x="434.3181818181818" y="0.0"/>
      <point x="459.04545454545456" y="0.0" type="curve" smooth="yes"/>
      <point x="582.6818181818181" y="0.0" type="line"/>
      <point x="588.6818181818181" y="59.77272727272727" type="line"/>
      <point x="481.6363636363636" y="70.0" type="line"/>
      <point x="551.5909090909091" y="44.81818181818182" type="line"/>
      <point x="518.4545454545455" y="71.27272727272727"/>
      <point x="453.1818181818182" y="125.72727272727273"/>
      <point x="440.8181818181818" y="140.72727272727272" type="curve" smooth="yes"/>
      <point x="297.54545454545456" y="315.27272727272725" type="line"/>
      <point x="295.5" y="244.1818181818182" type="line"/>
      <point x="401.5" y="366.0" type="line" smooth="yes"/>
      <point x="422.45454545454544" y="389.40909090909093"/>
      <point x="486.6363636363636" y="426.3636363636364"/>
      <point x="517.6818181818182" y="442.40909090909093" type="curve"/>
      <point x="449.45454545454544" y="424.6818181818182" type="line"/>
      <point x="561.9090909090909" y="436.27272727272725" type="line"/>
      <point x="560.9545454545455" y="494.0" type="line"/>
      <point x="437.27272727272725" y="494.0" type="line"/>
      <point x="413.77272727272725" y="494.0"/>
      <point x="362.59090909090907" y="494.0"/>
      <point x="325.54545454545456" y="494.0" type="curve"/>
      <point x="320.54545454545456" y="432.59090909090907" type="line"/>
      <point x="412.72727272727275" y="425.04545454545456" type="line"/>
      <point x="397.0" y="465.6818181818182" type="line"/>
      <point x="216.45454545454547" y="265.0" type="line"/>
      <point x="339.72727272727275" y="113.54545454545455" type="line"/>
      <point x="380.6363636363636" y="62.09090909090909" type="line"/>
      <point x="345.04545454545456" y="52.31818181818182" type="line"/>
    </contour>
  </outline>
</glyph>
<glyph name="l" format="2">
  <advance width="307.54545454545456"/>
  <unicode hex="006C"/>
  <anchor x="154.13636363636363" y="0.0" name="bottom"/>
  <anchor x="147.27272727272728" y="382.0" name="center"/>
  <anchor x="368.09090909090907" y="410.0" name="centerright"/>
  <anchor x="134.22727272727272" y="756.0" name="top"/>
  <anchor x="308.95454545454544" y="494.0" name="topright"/>
  <outline>
    <contour>
      <point x="25.59090909090909" y="-5.0" type="line"/>
      <point x="63.81818181818182" y="-3.0"/>
      <point x="123.18181818181819" y="0.0"/>
      <point x="139.6818181818182" y="0.0" type="curve" smooth="yes"/>
      <point x="279.77272727272725" y="0.0" type="line"/>
      <point x="285.95454545454544" y="59.77272727272727" type="line"/>
      <point x="166.8181818181818" y="70.5909090909091" type="line"/>
      <point x="216.9090909090909" y="29.09090909090909" type="line"/>
      <point x="212.5" y="56.36363636363637"/>
      <point x="205.45454545454547" y="116.72727272727273"/>
      <point x="205.45454545454547" y="175.86363636363637" type="curve" smooth="yes"/>
      <point x="205.45454545454547" y="575.3181818181819" type="line" smooth="yes"/>
      <point x="205.45454545454547" y="623.5454545454545"/>
      <point x="209.6818181818182" y="702.2727272727273"/>
      <point x="213.0909090909091" y="737.5909090909091" type="curve"/>
      <point x="193.27272727272728" y="756.0" type="line"/>
      <point x="124.77272727272728" y="756.0" type="line"/>
      <point x="24.318181818181817" y="759.8181818181819" type="line"/>
      <point x="17.68181818181818" y="701.6363636363636" type="line"/>
      <point x="138.3181818181818" y="674.7727272727273" type="line"/>
      <point x="86.63636363636364" y="732.6363636363636" type="line"/>
      <point x="92.04545454545455" y="698.5454545454545"/>
      <point x="103.27272727272727" y="632.3636363636364"/>
      <point x="103.27272727272727" y="605.3181818181819" type="curve" smooth="yes"/>
      <point x="103.27272727272727" y="145.86363636363637" type="line" smooth="yes"/>
      <point x="103.27272727272727" y="118.81818181818181"/>
      <point x="91.0909090909091" y="49.72727272727273"/>
      <point x="87.27272727272727" y="29.0" type="curve"/>
      <point x="139.13636363636363" y="75.0" type="line"/>
      <point x="20.59090909090909" y="52.0" type="line"/>
    </contour>
  </outline>
</glyph>
<glyph name="m" format="2">
  <advance width="918.75"/>
  <unicode hex="006D"/>
  <anchor x="459.8181818181818" y="0.0" name="bottom"/>
  <anchor x="459.8181818181818" y="494.0" name="top"/>
  <outline>
    <contour>
      <point x="648.1363636363636" y="-5.0" type="line"/>
      <point x="684.0" y="-3.0"/>
      <point x="746.3181818181819" y="0.0"/>
      <point x="756.3181818181819" y="0.0" type="curve"/>
      <point x="891.2727272727273" y="0.0" type="line"/>
      <point x="896.8636363636364" y="59.77272727272727" type="line"/>
      <point x="778.3181818181819" y="70.5909090909091" type="line"/>
      <point x="826.5909090909091" y="42.86363636363637" type="line"/>
      <point x="824.0" y="58.63636363636363"/>
      <point x="815.7727272727273" y="125.86363636363636"/>
      <point x="815.7727272727273" y="175.86363636363637" type="curve" smooth="yes"/>
      <point x="815.7727272727273" y="295.54545454545456" type="line" smooth="yes"/>
      <point x="815.7727272727273" y="425.72727272727275"/>
      <point x="778.5" y="504.8636363636364"/>
      <point x="659.7272727272727" y="504.8636363636364" type="curve" smooth="yes"/>
      <point x="579.5909090909091" y="504.8636363636364"/>
      <point x="517.1363636363636" y="454.1363636363636"/>
      <point x="485.77272727272725" y="368.59090909090907" type="curve"/>
      <point x="519.3636363636364" y="272.77272727272725" type="line"/>
      <point x="520.5454545454545" y="368.09090909090907"/>
      <point x="567.3181818181819" y="430.27272727272725"/>
      <point x="632.2272727272727" y="430.27272727272725" type="curve" smooth="yes"/>
      <point x="697.5454545454545" y="430.27272727272725"/>
      <point x="714.1818181818181" y="363.09090909090907"/>
      <point x="714.1818181818181" y="290.40909090909093" type="curve" smooth="yes"/>
      <point x="714.1818181818181" y="145.86363636363637" type="line" smooth="yes"/>
      <point x="714.1818181818181" y="126.4090909090909"/>
      <point x="707.2272727272727" y="67.04545454545455"/>
      <point x="703.0454545454545" y="39.90909090909091" type="curve"/>
      <point x="750.5" y="76.4090909090909" type="line"/>
      <point x="643.1363636363636" y="52.0" type="line"/>
    </contour>
    <contour>
      <point x="43.68181818181818" y="-5.0" type="line"/>
      <point x="81.9090909090909" y="-3.0"/>
      <point x="141.27272727272728" y="0.0"/>
      <point x="157.77272727272728" y="0.0" type="curve"/>
      <point x="297.8636363636364" y="0.0" type="line"/>
      <point x="304.04545454545456" y="59.77272727272727" type="line"/>
      <point x="184.9090909090909" y="70.5909090909091" type="line"/>
      <point x="235.0" y="29.09090909090909" type="line"/>
      <point x="230.5909090909091" y="56.36363636363637"/>
      <point x="223.54545454545456" y="117.31818181818181"/>
      <point x="223.54545454545456" y="175.86363636363637" type="curve" smooth="yes"/>
      <point x="223.54545454545456" y="302.8181818181818" type="line"/>
      <point x="203.0" y="475.59090909090907" type="line"/>
      <point x="183.1818181818182" y="494.0" type="line"/>
      <point x="42.40909090909091" y="494.0" type="line"/>
      <point x="35.77272727272727" y="432.59090909090907" type="line"/>
      <point x="156.4090909090909" y="412.77272727272725" type="line"/>
      <point x="104.54545454545455" y="466.54545454545456" type="line"/>
      <point x="108.54545454545455" y="443.90909090909093"/>
      <point x="121.36363636363636" y="370.3636363636364"/>
      <point x="121.36363636363636" y="343.3181818181818" type="curve" smooth="yes"/>
      <point x="121.36363636363636" y="145.86363636363637" type="line"/>
      <point x="121.36363636363636" y="118.81818181818181"/>
      <point x="109.18181818181819" y="49.72727272727273"/>
      <point x="105.36363636363636" y="29.0" type="curve"/>
      <point x="157.22727272727272" y="75.0" type="line"/>
      <point x="38.68181818181818" y="52.0" type="line"/>
    </contour>
    <contour>
      <point x="351.72727272727275" y="-5.0" type="line"/>
      <point x="387.59090909090907" y="-3.0"/>
      <point x="449.90909090909093" y="0.0"/>
      <point x="459.90909090909093" y="0.0" type="curve"/>
      <point x="594.8636363636364" y="0.0" type="line"/>
      <point x="601.0454545454545" y="59.77272727272727" type="line"/>
      <point x="481.90909090909093" y="70.5909090909091" type="line"/>
      <point x="530.1818181818181" y="42.86363636363637" type="line"/>
      <point x="527.5909090909091" y="58.63636363636363"/>
      <point x="519.3636363636364" y="125.86363636363636"/>
      <point x="519.3636363636364" y="175.86363636363637" type="curve" smooth="yes"/>
      <point x="519.3636363636364" y="295.54545454545456" type="line" smooth="yes"/>
      <point x="519.3636363636364" y="425.72727272727275"/>
      <point x="482.09090909090907" y="504.8636363636364"/>
      <point x="363.3181818181818" y="504.8636363636364" type="curve" smooth="yes"/>
      <point x="283.1818181818182" y="504.8636363636364"/>
      <point x="220.72727272727272" y="451.6818181818182"/>
      <point x="189.36363636363637" y="366.72727272727275" type="curve"/>
      <point x="223.54545454545456" y="270.90909090909093" type="line"/>
      <point x="224.13636363636363" y="366.22727272727275"/>
      <point x="270.90909090909093" y="430.27272727272725"/>
      <point x="335.8181818181818" y="430.27272727272725" type="curve" smooth="yes"/>
      <point x="401.1363636363636" y="430.27272727272725"/>
      <point x="417.77272727272725" y="363.09090909090907"/>
      <point x="417.77272727272725" y="290.40909090909093" type="curve" smooth="yes"/>
      <point x="417.77272727272725" y="145.86363636363637" type="line" smooth="yes"/>
      <point x="417.77272727272725" y="126.4090909090909"/>
      <point x="410.8181818181818" y="67.04545454545455"/>
      <point x="406.6363636363636" y="39.90909090909091" type="curve"/>
      <point x="454.09090909090907" y="76.4090909090909" type="line"/>
      <point x="346.72727272727275" y="52.0" type="line"/>
    </contour>
  </outline>
</glyph>
